<mxfile host="Electron" modified="2023-06-26T14:50:47.248Z" agent="Mozilla/5.0 (Macintosh; Intel Mac OS X 10_15_7) AppleWebKit/537.36 (KHTML, like Gecko) draw.io/21.2.8 Chrome/112.0.5615.165 Electron/24.2.0 Safari/537.36" etag="83GXUQED6C4qg80r11A-" version="21.2.8" type="device" pages="2">
  <diagram name="respo-vision-oci-future" id="fKeU7qdv1loY-SYDPgRG">
    <mxGraphModel dx="1026" dy="1728" grid="1" gridSize="10" guides="1" tooltips="1" connect="1" arrows="1" fold="1" page="1" pageScale="1" pageWidth="850" pageHeight="1100" math="0" shadow="0">
      <root>
        <mxCell id="0" />
        <mxCell id="1" parent="0" />
        <UserObject label="" tags="Background" id="RRVFnwyOMEM094zqBqRR-1">
          <mxCell style="vsdxID=2;fillColor=#FFFFFF;gradientColor=none;shape=stencil(nZBLDoAgDERP0z3SIyjew0SURgSD+Lu9kMZoXLhwN9O+tukAlrNpJg1SzDH4QW/URgNYgZTkjA4UkwJUgGXng+6DX1zLfmoymdXo17xh5zmRJ6Q42BWCfc2oJfdAr+Yv+AP9Cb7OJ3H/2JG1HNGz/84klThPVCc=);strokeColor=none;spacingTop=-3;spacingBottom=-3;spacingLeft=-3;spacingRight=-3;points=[];labelBackgroundColor=none;rounded=0;html=1;whiteSpace=wrap;" parent="1" vertex="1">
            <mxGeometry x="120" y="-10" width="1040" height="860" as="geometry" />
          </mxCell>
        </UserObject>
        <UserObject label="" tags="Background" id="RRVFnwyOMEM094zqBqRR-8">
          <mxCell style="vsdxID=9;fillColor=none;gradientColor=none;strokeColor=none;spacingTop=-3;spacingBottom=-3;spacingLeft=-3;spacingRight=-3;points=[];labelBackgroundColor=none;rounded=0;html=1;whiteSpace=wrap;" parent="1" vertex="1">
            <mxGeometry x="247" width="903" height="1000" as="geometry" />
          </mxCell>
        </UserObject>
        <mxCell id="RRVFnwyOMEM094zqBqRR-9" style="vsdxID=10;fillColor=#f5f4f2;gradientColor=none;shape=stencil(vVPLDoIwEPyaHiHQagxnxP9opEBjbclSBf7e4oLyigdMuG1np8zOliEsrgpeCkKDyoK5iVqmtiDsTCiVuhAgrasISwiLMwMiB/PQKZ5L3jG76m6e3RcavBd0N2jQ4imK/NMbuCCXw9U1YeD6hxDp0A4IQ2DB6Alh0As0Hm9k5YGx3EqjJ+KKQy48p+VliueTVlULUS7gfjol9ciJm/0YrYpvNPOZfb6cHczMtYfZNlpZ7ma3Z1n8En+9yfpW9rDxMyeu+AYsk0phPsf9eSAdhGFmyQs=);strokeColor=none;spacingTop=-3;spacingBottom=-3;spacingLeft=-3;spacingRight=-3;points=[];labelBackgroundColor=none;rounded=0;html=1;whiteSpace=wrap;" parent="RRVFnwyOMEM094zqBqRR-8" vertex="1">
          <mxGeometry width="903" height="859.8452278589855" as="geometry" />
        </mxCell>
        <mxCell id="RRVFnwyOMEM094zqBqRR-10" value="&lt;div style=&quot;font-size: 1px&quot;&gt;&lt;p style=&quot;align:left;margin-left:0;margin-right:0;margin-top:0px;margin-bottom:0px;text-indent:0;valign:middle;direction:ltr;&quot;&gt;&lt;font style=&quot;font-size:16.93px;font-family:Oracle Sans;color:#312d2a;direction:ltr;letter-spacing:0px;line-height:120%;opacity:1&quot;&gt;&lt;b&gt;OCI Region - Frankfurt&lt;br/&gt;&lt;/b&gt;&lt;/font&gt;&lt;/p&gt;&lt;/div&gt;" style="verticalAlign=middle;align=left;vsdxID=11;fillColor=none;gradientColor=none;shape=stencil(nZBLDoAgDERP0z3SIyjew0SURgSD+Lu9kMZoXLhwN9O+tukAlrNpJg1SzDH4QW/URgNYgZTkjA4UkwJUgGXng+6DX1zLfmoymdXo17xh5zmRJ6Q42BWCfc2oJfdAr+Yv+AP9Cb7OJ3H/2JG1HNGz/84klThPVCc=);strokeColor=none;spacingTop=-3;spacingBottom=-3;spacingLeft=-3;spacingRight=-3;points=[];labelBackgroundColor=none;rounded=0;html=1;whiteSpace=wrap;" parent="RRVFnwyOMEM094zqBqRR-8" vertex="1">
          <mxGeometry x="361.5951859956237" y="4.857882643271104" width="367.52297592997814" height="13.879664695060299" as="geometry" />
        </mxCell>
        <mxCell id="RRVFnwyOMEM094zqBqRR-11" style="vsdxID=12;fillColor=none;gradientColor=none;shape=stencil(vVPLDoIwEPyaHiHQagxnxP9opEBjbclSBf7e4oLyigdMuG1np8zOliEsrgpeCkKDyoK5iVqmtiDsTCiVuhAgrasISwiLMwMiB/PQKZ5L3jG76m6e3RcavBd0N2jQ4imK/NMbuCCXw9U1YeD6hxDp0A4IQ2DB6Alh0As0Hm9k5YGx3EqjJ+KKQy48p+VliueTVlULUS7gfjol9ciJm/0YrYpvNPOZfb6cHczMtYfZNlpZ7ma3Z1n8En+9yfpW9rDxMyeu+AYsk0phPsf9eSAdhGFmyQs=);strokeColor=#9e9892;spacingTop=-3;spacingBottom=-3;spacingLeft=-3;spacingRight=-3;points=[];labelBackgroundColor=none;rounded=0;html=1;whiteSpace=wrap;" parent="RRVFnwyOMEM094zqBqRR-8" vertex="1">
          <mxGeometry width="903" height="859.8452278589855" as="geometry" />
        </mxCell>
        <UserObject label="" tags="Background" id="RRVFnwyOMEM094zqBqRR-63">
          <mxCell style="vsdxID=64;fillColor=none;gradientColor=none;strokeColor=none;spacingTop=-3;spacingBottom=-3;spacingLeft=-3;spacingRight=-3;points=[];labelBackgroundColor=none;rounded=0;html=1;whiteSpace=wrap;" parent="1" vertex="1">
            <mxGeometry x="357" y="57" width="259" height="793" as="geometry" />
          </mxCell>
        </UserObject>
        <mxCell id="RRVFnwyOMEM094zqBqRR-64" style="vsdxID=65;fillColor=#FFFFFF;gradientColor=none;shape=stencil(vVNhD4IgEP01fLQRbJWfzf4HS1QWgTsp7d8HQaay1mab3467d7x7Bw/RrK1ZwxHBrQF94Z0oTI3oEREiVM1BGBshmiOalRp4BfqmCn9umEO66Krv7obe92HXQfDDn9J0szu8MicPZnC2VQhgsqHE4yE04CETQQJiiwNFn7BetAlow4zQakIvGVQ8sWRJKVk1KbUd502UDuNJoUZa0v17+jn5UjXD8NF+VpAzJx+mW6om3s9qTxN9i//e5ctiVhDywy82+DitFFJ6o47rc2falHc1zZ8=);strokeColor=none;spacingTop=-3;spacingBottom=-3;spacingLeft=-3;spacingRight=-3;points=[];labelBackgroundColor=none;rounded=0;html=1;whiteSpace=wrap;" parent="RRVFnwyOMEM094zqBqRR-63" vertex="1">
          <mxGeometry width="159" height="793" as="geometry" />
        </mxCell>
        <mxCell id="RRVFnwyOMEM094zqBqRR-65" value="&lt;div style=&quot;font-size: 1px&quot;&gt;&lt;p style=&quot;align:left;margin-left:0;margin-right:0;margin-top:0px;margin-bottom:0px;text-indent:0;valign:middle;direction:ltr;&quot;&gt;&lt;font style=&quot;font-size:16.93px;font-family:Oracle Sans;color:#312d2a;direction:ltr;letter-spacing:0px;line-height:120%;opacity:1&quot;&gt;&lt;b&gt;Fault Domain 1&lt;br/&gt;&lt;/b&gt;&lt;/font&gt;&lt;/p&gt;&lt;/div&gt;" style="verticalAlign=middle;align=left;vsdxID=66;fillColor=none;gradientColor=none;shape=stencil(nZBLDoAgDERP0z3SIyjew0SURgSD+Lu9kMZoXLhwN9O+tukAlrNpJg1SzDH4QW/URgNYgZTkjA4UkwJUgGXng+6DX1zLfmoymdXo17xh5zmRJ6Q42BWCfc2oJfdAr+Yv+AP9Cb7OJ3H/2JG1HNGz/84klThPVCc=);strokeColor=none;spacingTop=-3;spacingBottom=-3;spacingLeft=-3;spacingRight=-3;points=[];labelBackgroundColor=none;rounded=0;html=1;whiteSpace=wrap;" parent="RRVFnwyOMEM094zqBqRR-63" vertex="1">
          <mxGeometry x="21" y="4.848034934497817" width="237" height="13.851528384279476" as="geometry" />
        </mxCell>
        <mxCell id="RRVFnwyOMEM094zqBqRR-66" style="vsdxID=67;fillColor=none;gradientColor=none;shape=stencil(vVNhD4IgEP01fLQRbJWfzf4HS1QWgTsp7d8HQaay1mab3467d7x7Bw/RrK1ZwxHBrQF94Z0oTI3oEREiVM1BGBshmiOalRp4BfqmCn9umEO66Krv7obe92HXQfDDn9J0szu8MicPZnC2VQhgsqHE4yE04CETQQJiiwNFn7BetAlow4zQakIvGVQ8sWRJKVk1KbUd502UDuNJoUZa0v17+jn5UjXD8NF+VpAzJx+mW6om3s9qTxN9i//e5ctiVhDywy82+DitFFJ6o47rc2falHc1zZ8=);strokeColor=#9e9892;spacingTop=-3;spacingBottom=-3;spacingLeft=-3;spacingRight=-3;points=[];labelBackgroundColor=none;rounded=0;html=1;whiteSpace=wrap;" parent="RRVFnwyOMEM094zqBqRR-63" vertex="1">
          <mxGeometry width="159" height="793" as="geometry" />
        </mxCell>
        <UserObject label="" tags="Background" id="RRVFnwyOMEM094zqBqRR-67">
          <mxCell style="vsdxID=68;fillColor=none;gradientColor=none;strokeColor=none;spacingTop=-3;spacingBottom=-3;spacingLeft=-3;spacingRight=-3;points=[];labelBackgroundColor=none;rounded=0;html=1;whiteSpace=wrap;" parent="1" vertex="1">
            <mxGeometry x="528" y="57" width="257" height="793" as="geometry" />
          </mxCell>
        </UserObject>
        <mxCell id="RRVFnwyOMEM094zqBqRR-68" style="vsdxID=69;fillColor=#FFFFFF;gradientColor=none;shape=stencil(vVNhD4IgEP01fLQRbJWfzf4HS1QWgTsp7d8HQaay1mab3467d7x7Bw/RrK1ZwxHBrQF94Z0oTI3oEREiVM1BGBshmiOalRp4BfqmCn9umEO66Krv7obe92HXQfDDn9J0szu8MicPZnC2VQhgsqHE4yE04CETQQJiiwNFn7BetAlow4zQakIvGVQ8sWRJKVk1KbUd502UDuNJoUZa0v17+jn5UjXD8NF+VpAzJx+mW6om3s9qTxN9i//e5ctiVhDywy82+DitFFJ6o47rc2falHc1zZ8=);strokeColor=none;spacingTop=-3;spacingBottom=-3;spacingLeft=-3;spacingRight=-3;points=[];labelBackgroundColor=none;rounded=0;html=1;whiteSpace=wrap;" parent="RRVFnwyOMEM094zqBqRR-67" vertex="1">
          <mxGeometry width="159" height="793" as="geometry" />
        </mxCell>
        <mxCell id="RRVFnwyOMEM094zqBqRR-69" value="&lt;div style=&quot;font-size: 1px&quot;&gt;&lt;p style=&quot;align:left;margin-left:0;margin-right:0;margin-top:0px;margin-bottom:0px;text-indent:0;valign:middle;direction:ltr;&quot;&gt;&lt;font style=&quot;font-size:16.93px;font-family:Oracle Sans;color:#312d2a;direction:ltr;letter-spacing:0px;line-height:120%;opacity:1&quot;&gt;&lt;b&gt;Fault Domain 2&lt;br/&gt;&lt;/b&gt;&lt;/font&gt;&lt;/p&gt;&lt;/div&gt;" style="verticalAlign=middle;align=left;vsdxID=70;fillColor=none;gradientColor=none;shape=stencil(nZBLDoAgDERP0z3SIyjew0SURgSD+Lu9kMZoXLhwN9O+tukAlrNpJg1SzDH4QW/URgNYgZTkjA4UkwJUgGXng+6DX1zLfmoymdXo17xh5zmRJ6Q42BWCfc2oJfdAr+Yv+AP9Cb7OJ3H/2JG1HNGz/84klThPVCc=);strokeColor=none;spacingTop=-3;spacingBottom=-3;spacingLeft=-3;spacingRight=-3;points=[];labelBackgroundColor=none;rounded=0;html=1;whiteSpace=wrap;" parent="RRVFnwyOMEM094zqBqRR-67" vertex="1">
          <mxGeometry x="20" y="4.848034934497817" width="237" height="13.851528384279476" as="geometry" />
        </mxCell>
        <mxCell id="RRVFnwyOMEM094zqBqRR-70" style="vsdxID=71;fillColor=none;gradientColor=none;shape=stencil(vVNhD4IgEP01fLQRbJWfzf4HS1QWgTsp7d8HQaay1mab3467d7x7Bw/RrK1ZwxHBrQF94Z0oTI3oEREiVM1BGBshmiOalRp4BfqmCn9umEO66Krv7obe92HXQfDDn9J0szu8MicPZnC2VQhgsqHE4yE04CETQQJiiwNFn7BetAlow4zQakIvGVQ8sWRJKVk1KbUd502UDuNJoUZa0v17+jn5UjXD8NF+VpAzJx+mW6om3s9qTxN9i//e5ctiVhDywy82+DitFFJ6o47rc2falHc1zZ8=);strokeColor=#9e9892;spacingTop=-3;spacingBottom=-3;spacingLeft=-3;spacingRight=-3;points=[];labelBackgroundColor=none;rounded=0;html=1;whiteSpace=wrap;" parent="RRVFnwyOMEM094zqBqRR-67" vertex="1">
          <mxGeometry width="159" height="793" as="geometry" />
        </mxCell>
        <UserObject label="" tags="Background" id="RRVFnwyOMEM094zqBqRR-71">
          <mxCell style="vsdxID=72;fillColor=none;gradientColor=none;strokeColor=none;spacingTop=-3;spacingBottom=-3;spacingLeft=-3;spacingRight=-3;points=[];labelBackgroundColor=none;rounded=0;html=1;whiteSpace=wrap;" parent="1" vertex="1">
            <mxGeometry x="700" y="57" width="257" height="793" as="geometry" />
          </mxCell>
        </UserObject>
        <mxCell id="RRVFnwyOMEM094zqBqRR-72" style="vsdxID=73;fillColor=#FFFFFF;gradientColor=none;shape=stencil(vVNhD4IgEP01fLQRbJWfzf4HS1QWgTsp7d8HQaay1mab3467d7x7Bw/RrK1ZwxHBrQF94Z0oTI3oEREiVM1BGBshmiOalRp4BfqmCn9umEO66Krv7obe92HXQfDDn9J0szu8MicPZnC2VQhgsqHE4yE04CETQQJiiwNFn7BetAlow4zQakIvGVQ8sWRJKVk1KbUd502UDuNJoUZa0v17+jn5UjXD8NF+VpAzJx+mW6om3s9qTxN9i//e5ctiVhDywy82+DitFFJ6o47rc2falHc1zZ8=);strokeColor=none;spacingTop=-3;spacingBottom=-3;spacingLeft=-3;spacingRight=-3;points=[];labelBackgroundColor=none;rounded=0;html=1;whiteSpace=wrap;" parent="RRVFnwyOMEM094zqBqRR-71" vertex="1">
          <mxGeometry width="159" height="793" as="geometry" />
        </mxCell>
        <mxCell id="RRVFnwyOMEM094zqBqRR-73" value="&lt;div style=&quot;font-size: 1px&quot;&gt;&lt;p style=&quot;align:left;margin-left:0;margin-right:0;margin-top:0px;margin-bottom:0px;text-indent:0;valign:middle;direction:ltr;&quot;&gt;&lt;font style=&quot;font-size:16.93px;font-family:Oracle Sans;color:#312d2a;direction:ltr;letter-spacing:0px;line-height:120%;opacity:1&quot;&gt;&lt;b&gt;Fault Domain 3&lt;br/&gt;&lt;/b&gt;&lt;/font&gt;&lt;/p&gt;&lt;/div&gt;" style="verticalAlign=middle;align=left;vsdxID=74;fillColor=none;gradientColor=none;shape=stencil(nZBLDoAgDERP0z3SIyjew0SURgSD+Lu9kMZoXLhwN9O+tukAlrNpJg1SzDH4QW/URgNYgZTkjA4UkwJUgGXng+6DX1zLfmoymdXo17xh5zmRJ6Q42BWCfc2oJfdAr+Yv+AP9Cb7OJ3H/2JG1HNGz/84klThPVCc=);strokeColor=none;spacingTop=-3;spacingBottom=-3;spacingLeft=-3;spacingRight=-3;points=[];labelBackgroundColor=none;rounded=0;html=1;whiteSpace=wrap;" parent="RRVFnwyOMEM094zqBqRR-71" vertex="1">
          <mxGeometry x="20" y="4.848034934497817" width="237" height="13.851528384279476" as="geometry" />
        </mxCell>
        <mxCell id="RRVFnwyOMEM094zqBqRR-74" style="vsdxID=75;fillColor=none;gradientColor=none;shape=stencil(vVNhD4IgEP01fLQRbJWfzf4HS1QWgTsp7d8HQaay1mab3467d7x7Bw/RrK1ZwxHBrQF94Z0oTI3oEREiVM1BGBshmiOalRp4BfqmCn9umEO66Krv7obe92HXQfDDn9J0szu8MicPZnC2VQhgsqHE4yE04CETQQJiiwNFn7BetAlow4zQakIvGVQ8sWRJKVk1KbUd502UDuNJoUZa0v17+jn5UjXD8NF+VpAzJx+mW6om3s9qTxN9i//e5ctiVhDywy82+DitFFJ6o47rc2falHc1zZ8=);strokeColor=#9e9892;spacingTop=-3;spacingBottom=-3;spacingLeft=-3;spacingRight=-3;points=[];labelBackgroundColor=none;rounded=0;html=1;whiteSpace=wrap;" parent="RRVFnwyOMEM094zqBqRR-71" vertex="1">
          <mxGeometry width="159" height="793" as="geometry" />
        </mxCell>
        <UserObject label="" tags="Background" id="RRVFnwyOMEM094zqBqRR-83">
          <mxCell style="vsdxID=84;fillColor=none;gradientColor=none;strokeColor=none;spacingTop=-3;spacingBottom=-3;spacingLeft=-3;spacingRight=-3;points=[];labelBackgroundColor=none;rounded=0;html=1;whiteSpace=wrap;" parent="1" vertex="1">
            <mxGeometry x="301" y="81" width="791" height="974" as="geometry" />
          </mxCell>
        </UserObject>
        <mxCell id="RRVFnwyOMEM094zqBqRR-84" style="vsdxID=85;fillColor=none;gradientColor=none;shape=stencil(nZBLDoAgDERP0z3SIyjew0SURgSD+Lu9kMZoXLhwN9O+tukAlrNpJg1SzDH4QW/URgNYgZTkjA4UkwJUgGXng+6DX1zLfmoymdXo17xh5zmRJ6Q42BWCfc2oJfdAr+Yv+AP9Cb7OJ3H/2JG1HNGz/84klThPVCc=);dashed=1;dashPattern=4.00 2.00;strokeColor=#aa643b;strokeWidth=2;spacingTop=-3;spacingBottom=-3;spacingLeft=-3;spacingRight=-3;points=[];labelBackgroundColor=none;rounded=0;html=1;whiteSpace=wrap;" parent="RRVFnwyOMEM094zqBqRR-83" vertex="1">
          <mxGeometry y="13.16" width="641" height="726.84" as="geometry" />
        </mxCell>
        <mxCell id="RRVFnwyOMEM094zqBqRR-85" style="vsdxID=86;fillColor=none;gradientColor=none;strokeColor=none;spacingTop=-3;spacingBottom=-3;spacingLeft=-3;spacingRight=-3;points=[];labelBackgroundColor=none;rounded=0;html=1;whiteSpace=wrap;" parent="RRVFnwyOMEM094zqBqRR-83" vertex="1">
          <mxGeometry x="589" width="42" height="32.90497737556561" as="geometry" />
        </mxCell>
        <mxCell id="RRVFnwyOMEM094zqBqRR-86" style="vsdxID=87;fillColor=#FFFFFF;gradientColor=none;shape=stencil(lZjZchQxDEW/Zl5VtuX1meU/KAhkipBQk7DM36Nm2pZ9ne6Gt6GRc2wtV7JP/Ob5/sP3u5Mzzy+Xp693v86fXu5P/Pbk3Pnx/u5yfpFfJ3534jefny53Xy5PPx4/3f79/cNiufz69vRz+Qu/b+uSI7cscuZ6+1AKZfv3y/ub/ccfl9sCezOImUpcl1hcY3671SpQ5tVq/VQyxbBa8WrFxBW/fiqRgt/lmwZrfE/ejfxQyGTgW/Jp5IdM3o78nMmWnv9wfuz85S0lPzhsWoAbliUOHWYo5HHD3pCzsGFHedwviwsz+MtTjHt4TmQRLz4Gf3GY8YkKxIuZDPhLoroGeosv8XInzJcE+eIkEmHkW2NGuotkkV6qQzbojinlic4R6JZCPGG2ej/ybamuVn6qDtng20QJvR8opJFvIzmsFm6wxg9qVfmS07vRt54ceD+Xlo+Nz7rL9VOOLWyNz5Qh+7In3vW/8A1Ua7aaV65ZJTh/Kloiev4C/k+JwpH/4fgpkGfAi6Q5wLOmaE0/M+Md+R2xkA231F8FJ5JJu/sNxOCvoGnf+QvErTdiDX0Z93uMdxPbgFBJ7UKhBknoES1JD7IeRKL3wIESkKU1gESp+yvYzkGaStS3DW+dmRjYPhEc2tSm1NheDg2nFgVPwOaD3mAAbFrXVLKDUPMrykSgi9wEZfPQBULNWqnqcQenZkeGR7afqkIU3+9mWdQuVmVaKnBkZ+2zVaQlqwqcey5JsXK7mSYqZpGuG2oVFqqwKF+skD8n+sLfV8RCxQNf8m3uSAXivvgI+BKhCCXObbR4VZJkGmg9pMladHsbllzykCsimAmrM7TdXbWrocN6K5WpA363xra41+xo/NSmu6bhZKCDSX1ZiJc/CJd3UwO3TQza8BaJIVthdglG51HuLbb0kKcp14zMkAiQ3b7qfC1U/3/njW4qzs6Pdbr3ZMHZfUh4tvrXYPdr7JxGlT/PK31KcjtKHTSu2sNH/lgdSQfjayun/QEzdRcNFTMHCZJdGzo6Ockw4GTJdBBytdrgyzRXb1WdnGVs2jwNmMvEDeUhk2mGgLGtt4cNvszJARJVbgkQrzbKX7VaI8DVpmaqpf2+bbB7hjqM6rnzJOMyD5hyeG4ZLfJuG+k9WmvWT7e6PjrdpAZHfyXuarUV9zCpcv+XK99TOcb76RY84aFOik4G6xd3cG1fpn5oe0lqHetEhhAobKnJyJO/HE7i4ujdi4DcZzzouBRlwKlDYCBsS3AmfAa8xNkchcvgPdDNx+dp2pP7fUZ+9wKiryZ5t1hS1g6llZshXVJ3+6j80mqjTff6ZqTX8DyoBKTL4SPT/9rLD33R+nx+eLg9iPX/jy9g8un2esbv/gA=);strokeColor=none;spacingTop=-3;spacingBottom=-3;spacingLeft=-3;spacingRight=-3;points=[];labelBackgroundColor=none;rounded=0;html=1;whiteSpace=wrap;" parent="RRVFnwyOMEM094zqBqRR-85" vertex="1">
          <mxGeometry width="41" height="32.08235294117647" as="geometry" />
        </mxCell>
        <mxCell id="RRVFnwyOMEM094zqBqRR-87" style="vsdxID=88;fillColor=#FFFFFF;gradientColor=none;shape=stencil(nVrLchw3DPwaXVl8P86O/R+uWI5VUSSXLCfevw+YXQJkY4dTlZs85mwTBNBogPMQPvz49vn744O3P97fXv98/Ofpy/u3h/Dbg/dPL98e357e6a+H8PEhfPj6+vb4x9vrz5cv139//9xX9r/+ev27/8Kv63uxmdz6W95erk+8CeW/B5+u63//+XZ9wV3/PzlT8+0Nx6/U65Nf/rYomDZ+1o9FrdwWhduiZOrt0eX2KBrbtuDFlLSCJ+MdgDcT/AqeTfUreLYmhhW8mpJ34NmZFFdwZ01ZwbM3Lq7gjkx3gE6r2oruknHbg6d3PMIXNoLxnSkB8MnHWVkPJ++dyWmGf356meKk0DHXJU6CN8Xv9luyKW7db3DG5XW/pZpY1/36xsEz9lvJWwk2zF4+wK/eRMAnF9+MZPwaTQL4Op4wehbHB15Ut5Fa6VcKoDfjIVqaVdYHO+KA8RtFywpPB5ncDr6F4R05fM+Jy/BRpWmIBmKlUZoiPB1I3cJnkwPA04EgfDYtr/DR8r4Zn+KorvjRD+bY4K/wMRnrAT6ZBjwRyyAggY8avpqt7+nwM7KUIorJqYO36EkFcGs88ARRq9+6niIvQuSlyNTBcZ9NBJ6iVQXzLo5qIPjRbF1fyXin4CtwNCVnTRo+ArwKfFqUF+uBpigwR9zdnvjx5IimJgIaj8LILtkvZSXstyBLOC6DY7e0nbotKWQgHhbthzPA85EGyBPaT4VYoVUJOJIeua3xtADraU2qmnd8YKlaTNbOimB/bWabpnRkCc6+Od7RfPbAUpRhw88DvvsRSJpSd3/85B9WP8IcA4xLVGRbGb8ImwQOtAipSqv81v5iTYCSTu8kcH+uXDUnfAepmjPXjYsw59b7OTLhMHziojkpmgih38D1JDocnj2plR02ibQKFaIXwxU6VVWfiN08BD6tAsOJ3Gw8ZgkqMuzQgxdwu/RKwESZdjKKZ0MxMdk0amdV0u/srKjcVvSTCGwGT0p5dm8CehAekyjx23I2qbYpSh3Y7rWveiyD8O1KHCOFsiTt8KkryGg+FFPqLjKo3paVjvJCmjNFbB1P4tlhnOryQEK84NmLEB/4LkvRE4bMW4qgtqDB4XfuRfxkEiZK4ohl/MQFfq4QZ/DAkL30QJ6SYWg+0XEGhqJDapCovUBuKYqO32OBJNGKsTc5duAHpmN2vxfKEdJOGzlBO/bj8A/0h9pw5uCY5A+WtO4JLX+wR3WTPA+46ghfms1ZfkFJob6VW2/BR2JtxkK4dvG5zVU6MMgWUrUe0JPk83hiVbJE1XN12b3nSQPFlOS8A2wvTenQ/Glwv0SKqMip49iSpFf1IU42MTgaPndFg6INHHrvtrYcQSIdG+3IfCCHjgzRG0IwvEi2TZ3mDrsKnw9skcpTuBVQML0ZBnAKXWDn/utbAeeigvei5yd6alAd+iQA2blK5kwzhq3TpzSSJl+xk+f5Cx+9kzMaWNFYMF+NWFZ2otjJKzupIY7KEJHtF2HYDH15kLS5SIGLwE59FdB5n2Ft/UXvDDK4TISl4CuOsKyqJmR9A4Kog1SPRZyFJM2qM41OSYlkwPQoCmCaXG7b4piQnDwXdoYW7S9T0wCkPE9sma7WkS2o3dMR79lI2J4YViAHLJjljQXOdSr7SDp75NxxGseyOII0Kqp7ISaswHvOcdfF6NMqieW4Tf75HZnHeq3KPRovkpLxk5LFwi13vUqnw5nEzLNPfvH7TJYODoxwMQap2YUaRYbi6N6fzQS7RsWLg2xQyAbV69Ii1EVax/dE3s9j1aCFzEo4vJe6L3UCVVnU41B7Mo0NPFWchrF4beFEnEvsBuifnKSSqIO87WCskmSdOsFyuyITCUZonqgBxvwMo2AeImecwmaeZInZCZQw6bwMpOdlUjuUKFeEQ1Hk4cyTaD9xuIPkJBmMbVNVoiiloTGOYt0qSZay7tq8GiylooI9KZcnnv7c71rS6Cm5a9m/0ENk5ZLixjDtyMCqoop6KaylLst8bxqmFWUhXsWdDk6ddCuM30THC5tkCK7qRB4GWbXCU1fc9l15UFeBVaoRw5MogC6rVpaik/kOzG/uREc5mVJOU4kAtccV1WW2xGnM+E26kunKZd/tUAH3gF+5V+ZSEuSqeOBLPz+NhDj6Aq/a15J+R4cjocZ6kGuv1SOpZiD6Are0Al9HfTni82SSst5qFY3VpF9LQfCR7nEQfadj695Zau9j8BOHN0i+ZlXHR+Isw+nXCsm/sgURWRvWH7xw59peucvyLGya9hZIl26Wvrq+M+bfRmsmAYozvKxrQWQshq8GgjVn+bZAoqXtx+x3g7VAuOBYwlm7Qpeg7uLoZ/a1vyQZzAk0jq1L0XlS2U7Gb6oINx5oHl/w4Mci7e79UsRMCXybM91FqgsWd3YXmkRdyNgexU+f/uP9Vlbjw74KvxjhKfwxfgPJ3QsQ8HQf1eL4VGZvk/0OePr8fjHwPdU0Ps14/k4ia+BPxVz8j/GnZMLKFP14Vl1xIkTm6+aDF5SFmcveRdgmQG53hloNTFAG7t2055Pru+bV/VmSgPslody0yIxQhXta4E27P4multUdWnIaH0Kb+nuc81Z1LxDL2RcWTeaJMgnACswkxuAiCaSbs4DtTj7EkjdGPdYzrHl/U0E+t5xq+76NbuDyENSF/ewYmfg1BNcu753ktpbMwSQTRwuEMgemNPH4/d2dkPdnd3FTIkkPn2DMPefk1MQDn9z5toRWhf33Ck5Vci8VeapnKCS8voosSSkvD98rrOyUgwwwbuvtyY3EnRv2Pv0B/s3qGzRS7jiimhZNfdNWpk6vSN8SkwJXw16nim8O6uOWNk7jWHXhN2BFlZ75m0qetmKgZqsmzXw7dKQ4q5LIAWdNvbaA4HMyk5VWP0CUuOHAI+ygPv3TXzY41fqD3Lsz513msGdD3v+/mP6Qz4W/Pj0/X782nv8fPy+mR9dPk8PHfwE=);strokeColor=none;spacingTop=-3;spacingBottom=-3;spacingLeft=-3;spacingRight=-3;points=[];labelBackgroundColor=none;rounded=0;html=1;whiteSpace=wrap;" parent="RRVFnwyOMEM094zqBqRR-85" vertex="1">
          <mxGeometry width="42" height="32.90497737556561" as="geometry" />
        </mxCell>
        <mxCell id="RRVFnwyOMEM094zqBqRR-88" style="vsdxID=89;fillColor=#aa643b;gradientColor=none;shape=stencil(lVzbkhy3Df2afWXxfnl27P9wxXKkimK5ZDmR/j5g7RBAHwzZu2+rEXvQJICDgwvnJf3018df//zwEv1f375++feH/3367dvHl/SPlxg//fHxw9dP3+ivl/TzS/rp9y9fP/zr65e///jt9d9//jpXzr/+8+W/8xu+vz7Xq/NlPhX9j9dPYnP19ZNfXh/4599fX58Ij0eyi+3xSMBn/Pf4WBXd+t7HJ7E7nx6L0mORd70+ViVe1epJfBsuBhA/XB5X8a25lq7yk3elXeW3yi/5+CQFN6IW//nTH+q4anDxelrexXF63Rpd7NfXDX19yXpbWtThbUNxvVzflla1fn3dkFxuN+JbBvHB+WHkh6t41oJI927kq/TqWjgJL8M1sJTsarvKLt0FEB7dAEWV6kKCrbt+lJ1dKFfZ3lU490LaBtn+KjgPV0GwP4nNzSUUe5WZi9mverElNr13vzmY/apjXC4w0CmVPpYHdJdA9J2eU3MB9KzsZ8kmX0MbV5aYeFV+r43PZ9JVvPYekT86yBdHlM37dhVvPPyKCFE52AZC8H1JlRF8MrEQft8wXGrX9yWc86CtQPYW4IX7enAjnw4noqk045d07B4RvLkCBxb82qzIb26kk3yyjQHixeYYkmSR7H4hKcMC2w/jN/nSEY+TSyA8Mfh9Z/zx9So7pbUn2bmDfZOB+aObeAMN09xA7R78kx4CIPYuwKZzXACylwwxKGfXUeFymEt4YxNYwlU0W8L7igvbE88ADoXCfr4KJ02Cc5bo8lU2OTBsvKSFFltT66BtigsFkGnCUAThBNIgnfwBz32uOlIlemagfH5G5Gdj60XOg+UXV+DoaS9XTwNoCoKLD76TbpB8gg5YSssMcPzCjQPWemFiUguH+IXpI3CR1hfy7KHJA5QTR4zBHBgDqNDNjNCY5bsW38zL8PYK6yi/IVub4pEuDVaO0lcAcjmCa+ftV/HBx0cjMUVRx19g+6MwNWT5SpVLPsXpo7tMUIsgvwtrXvCYTGQaxMARKYphTrSqnSNjcx3Mj54ZAJGE8cHKr+CvBOsRcgvayw2RyQai6cz4ZIVJGPlV4veST1pC/Wd3RsrOUYbFRwm5QuI6mN/wRjwFjgDe1zEwX+GC2Dpj8OaBJwQf4WJYJkOZQ4R4qre10D2wCt96XjWtiCviCXRAeja5ldbpkl4Nj7m1ljqs+GES4Rb4QJh3esgyCJeNrYyVwO7y4CJmINIz+CrlwQPPvjtgFJRSW6Q4OmpXylrC5X24BpAwrZxoBn5KmOxR72HpZ1+CGGB3hMCY3fVicGqCOcov4s0qTNzKryCfLBq3nxfcinxv5UfBPBUmjySWjr9AnJgBGML0VCvEiRnMsQbShH2IObaL412BgtRa1+43ROTJgWUAVk1xRGERUg5Nl9aBqZLVW4kY6b1nIz8CEewSRVh+lvAj1om8pnDc2MgfFqkKczGWP4SbKhbcACino0FgK8T0jkg5bIZOJByJKCEDEptswIIWIVLmeuMvQ1VRVgJCKkMe7jH5SQ6TLl6yRDPH3VEqfmIF2cFY+z3a11tBlrzidt+pLBja7bubWiVRjIjim+ETRF5QvNV6or0fUVrbkxQaAgRIbZuSamP688TqKbs6O90wQWISPHS6ZlBq1hnA6Z44fVwqeg5S94Xtdz9wLZ23KIU8Jh/hWHlp3vJrIZPMWLrl18XkF8RYOlR+Jl86F6MJ85BgSkFEMSY0CNJ+B1ck8hUhbhD3O1dAajQG2TsHSVWNThg3q6xS1XDgDZ3zwj1hDOCPFH4tYcRyAIXtgtsvXJjhsDmWb+3E11WckrAtfQqlfozaUgzjqO0lVEoz47j5JkV+4QweQlCzm6dVEVJ74p4NN19XtXknvjFB0psHzoaFENw3aQJxgD6qx40TW7JKj8g9gpAa4W+4cb1KkCnckbVqjb6D1ucugPtMyEWy1k0UIAc+Gz2dsofYT3AS8OCz4T4ampLYEIIOgt4VVt+AkldYnYnrtaAuDcdd3jxWXUVOOBhYnY0NOGE6TqxaJUEaZdqh7nc4Wcr1hQkbju+bhXr+EGho8L65IQ7UxjFY9acKZC+yape1B9MTnM+AQRI/7RCF5ktiBb6YniTuHjqoUdqIm+M1sOkFbYIoDl53CB5HawPrdYnEIXygdYF2783x3Q9cDT407l6vB+rymR2pVY9IhhUg/wvddHAm8GGZdjjw6M6N8l2ZTm1RFDJAIzEYRGlqTmCxuGTKlGQQ/YiosUh3VEIZbj82s32KW1h+IBKL2W9dvrCDG2/gplWTzBGFzyi+cSRguEk2+x6r/bSTb7dPKsuQVcx2FCQ1U/tAY1J1lkSdSWyqpqs/DdZIL8jhpNHP0m1SQ0nDuZSQijG+WS/CbnMynf3JdFF+FOhWHPpcI/Zm+5OdYwtRZYsSTrHbPU0U5fOqnfFnhyXqarqIs4VpUwiPtu9NN48O6ax9AhWEnslTAHkUPon2caJEr1Jk6nL6V2x9A1QCtibpFD3UF25KNcF6lzwjO2S6Kzl7sD3iLp0acXh/tO8JrrZmgEk7gWsCcCXHqBCddSdbtSWO9h3VlJHwK2QHariEqzXySko+iCeydOZyMZoUddIldK8gQypLfDWVujBMxzj3FW729l3Bv4hjYQtoqh8rlV4yOdUCvIon6hWO3GwaLBZKg0Pjs7svAUtlw7aL/ap87TIFUySdW8fqgGHRdKYFgLWst9ElwjMnNvvOUqxgVJf8eVsiVGukRngT0E1aTrlCBZVnIztVUyWz00vpLnnpZj4wyeQDV0adBZsETEpjXcJVz+H0Hh0xN7usnt3y81Aa1F5DMM1sostY8x7c3PkuGqxIUhfY7ERHk3VXhxmWmhHkOZRHSVVkF5khSWwKR4JGmRsWPm0Xf2ZuOGUkJFIV9gMKP/ODksx4bmar5GwpG/guPCyihi7NIGA/94PtxjtXPNXAZ4FTD9APLbbWPk3nqPAy7KBtMkNOs8mN3djCDTglP0FWHdo5py/NxA0KPwWz1Mr29UNCGY76kHbMWHS8Gd2Yaoftx2SqXNIoEvlJSvKqqIDFdl61s/ku5eBgv1lqGpiUTPS1HodDmOnG6smVcSY9SslcggVmpHOsFjCckKPh7r07Sw/yxqL8gZsPps9DbMOI9yaAybzVFmdNX2FOX+HczLATsHbOLEOHjZyonapfNyHhfauhw5LEWVmDPe6/vgapMQsUn1sicitAEY9qq0sYKeargOoIA7CWQcZ0bsmUIqFNrAlrGeTdGCymzrG6FWS4NYnOD9rTTzxMvd2MVM5et+3qecTZZgY6o+yUX3iYIaWYILBDOTnLNCkTrJvGQxLMkxIGOmeLEubFX4AL0CLLLc/HpR4RZoId4PYkm0rmtox2B0mnDt72bv95wwNXD51B96oOstR6NzOG/GT6AJgPz14JP2mmB1ea6cZMizrH6Wr8jSAAJ5eKvaRRoynflGRowrzJc8yxyONwFKIm3P5Mu1D80rQAdeM7Diw93UwEZKTEysqEFCe7c5QdZQAq8SnWuxsquPNpCxCkCNZWT1BrHoAjq1l66UScq9Y6/AlpqtnIxyCtVKbkm6SAxzIP+4cgTSrE4VY6WRyHyNVQ85xtXlBustxczP7pazDFnlaFlZVkqvZ5iJYSrtpZfjTXXvQ3S2ZSEQozDsNMGo2Fpboi5E58txWGLgcrgR5nVYuXYCEoE8Hxy3Li3WztHU6++wFIzRUabCI5UDHzgOEKTywICyXZmym6Jyx7Mhq04GBI/uRKN+UEUxqV+KT7vGhABVOMOd6FBtQgq4fLFFUY4PPYayqZkj5L5B+QksxF+LbRlJX0KlXUupOOt42G7RMUPj5V1Vq5N4vPZtTIsK67Jmjk7su+YBMwgS0yByZYgNfCGte4D5Hx3c5gHri6m76wxF+RD8SVjrVeH5jc+9xpUjcmBUOxE5AUFkZehRdo5yqLWEf71V+siBpOVVRjQcVeE0zykWJq57kV8mPsBFRveHtSQCl8BcOVt1MSCWbMQV1JAuzrJ5R5xHNbNmBjjug0zrZFe6uTyD/mRbHh5cJ2d8UvSiM32O9VKZgVjk0j6+0twr0pqCN3nOkoeLpPbhohGSrR9LBjsjfjpNShbhohFzr74rud9w0P3M2G0ifpXIgY0lIK+Ix0X5q5/DOTR/ylgGKGGjKMZgLd6HiLmfyjHDVIvujB4qqdpQymD11lekJd/cEholmnPY9yRtOHLmo8SqCgY4W/mJuCetWGzj0R30Fbc1QfJ3lVL1WSCewS0yq8KTf7hAd1kTa5bsL2eL4y0qSzoW8A4PhnM2Mb9h5ut2MDxt9t1QZuosYV2vdVG+zfNAsQT6o2TaaHD1OLxh3vphbNA+Dw8ksizM/OU5kVowVFMsxGWrM30RsGt9bN7mSuZid98O0LfTEBvOfJTGqK9gJXxBGidNesUMNqasYCdz8n8nH3wUwwzUuKECwTtwv3NxNwhgeRYwQhTGrvcPYj4s25dHsV6Mnei7liPad18OgtrRrKqaXgm4+qn1eFMYkLJs4MwxQo3cErIdncXJs9+yNNGfZnWfSvDEQ+1oFFCHsRKZgJ/FmWuNM7Bg3vgKJNg8JbYMFgyrNbaOFmtqQnYcHBfvOSb3+IgV4yYTF4mBGLfqP5JxP4s2qCv5xUzW/EZPMzEPaHkxDvAE/v4JH+kJ+o+v3T58+vv3Cl/x9/0oo+ev05rPTz/wE=);strokeColor=none;spacingTop=-3;spacingBottom=-3;spacingLeft=-3;spacingRight=-3;points=[];labelBackgroundColor=none;rounded=0;html=1;whiteSpace=wrap;" parent="RRVFnwyOMEM094zqBqRR-85" vertex="1">
          <mxGeometry x="1" width="40" height="31.25972850678733" as="geometry" />
        </mxCell>
        <mxCell id="RRVFnwyOMEM094zqBqRR-89" value="&lt;div style=&quot;font-size: 1px&quot;&gt;&lt;p style=&quot;align:left;margin-left:0;margin-right:0;margin-top:0px;margin-bottom:0px;text-indent:0;valign:middle;direction:ltr;&quot;&gt;&lt;font style=&quot;font-size:16.93px;font-family:Oracle Sans;color:#ae562c;direction:ltr;letter-spacing:0px;line-height:120%;opacity:1&quot;&gt;&lt;b&gt;VCN&lt;br/&gt;&lt;/b&gt;&lt;/font&gt;&lt;/p&gt;&lt;/div&gt;" style="verticalAlign=middle;align=left;vsdxID=90;fillColor=none;gradientColor=none;shape=stencil(nZBLDoAgDERP0z3SIyjew0SURgSD+Lu9kMZoXLhwN9O+tukAlrNpJg1SzDH4QW/URgNYgZTkjA4UkwJUgGXng+6DX1zLfmoymdXo17xh5zmRJ6Q42BWCfc2oJfdAr+Yv+AP9Cb7OJ3H/2JG1HNGz/84klThPVCc=);strokeColor=none;spacingTop=-3;spacingBottom=-3;spacingLeft=-3;spacingRight=-3;points=[];labelBackgroundColor=none;rounded=0;html=1;whiteSpace=wrap;" parent="RRVFnwyOMEM094zqBqRR-83" vertex="1">
          <mxGeometry x="8" y="19.742986425339367" width="50" height="16.452488687782804" as="geometry" />
        </mxCell>
        <UserObject label="" tags="Background" id="RRVFnwyOMEM094zqBqRR-112">
          <mxCell style="vsdxID=113;fillColor=none;gradientColor=none;strokeColor=none;spacingTop=-3;spacingBottom=-3;spacingLeft=-3;spacingRight=-3;points=[];labelBackgroundColor=none;rounded=0;html=1;whiteSpace=wrap;" parent="RRVFnwyOMEM094zqBqRR-83" vertex="1">
            <mxGeometry x="42" y="36.19999999999999" width="749" height="870.6966666666667" as="geometry" />
          </mxCell>
        </UserObject>
        <mxCell id="RRVFnwyOMEM094zqBqRR-113" value="&lt;div style=&quot;font-size: 1px&quot;&gt;&lt;p style=&quot;align:left;margin-left:0;margin-right:0;margin-top:0px;margin-bottom:0px;text-indent:0;valign:middle;direction:ltr;&quot;&gt;&lt;font style=&quot;font-size:16.93px;font-family:Oracle Sans;color:#ae562c;direction:ltr;letter-spacing:0px;line-height:120%;opacity:1&quot;&gt;&lt;b&gt;Private Subnet&lt;br/&gt;&lt;/b&gt;&lt;/font&gt;&lt;/p&gt;&lt;/div&gt;" style="verticalAlign=middle;align=left;vsdxID=114;fillColor=none;gradientColor=none;shape=stencil(nZBLDoAgDERP0z3SIyjew0SURgSD+Lu9kMZoXLhwN9O+tukAlrNpJg1SzDH4QW/URgNYgZTkjA4UkwJUgGXng+6DX1zLfmoymdXo17xh5zmRJ6Q42BWCfc2oJfdAr+Yv+AP9Cb7OJ3H/2JG1HNGz/84klThPVCc=);strokeColor=none;spacingTop=-3;spacingBottom=-3;spacingLeft=-3;spacingRight=-3;points=[];labelBackgroundColor=none;rounded=0;html=1;whiteSpace=wrap;" parent="RRVFnwyOMEM094zqBqRR-112" vertex="1">
          <mxGeometry x="7" y="29" width="237" height="20" as="geometry" />
        </mxCell>
        <mxCell id="RRVFnwyOMEM094zqBqRR-114" style="vsdxID=115;fillColor=none;gradientColor=none;strokeColor=none;spacingTop=-3;spacingBottom=-3;spacingLeft=-3;spacingRight=-3;points=[];labelBackgroundColor=none;rounded=0;html=1;whiteSpace=wrap;" parent="RRVFnwyOMEM094zqBqRR-112" vertex="1">
          <mxGeometry x="528" width="42" height="42" as="geometry" />
        </mxCell>
        <mxCell id="RRVFnwyOMEM094zqBqRR-115" style="vsdxID=116;fillColor=none;gradientColor=none;strokeColor=none;spacingTop=-3;spacingBottom=-3;spacingLeft=-3;spacingRight=-3;points=[];labelBackgroundColor=none;rounded=0;html=1;whiteSpace=wrap;" parent="RRVFnwyOMEM094zqBqRR-114" vertex="1">
          <mxGeometry width="42" height="42" as="geometry" />
        </mxCell>
        <mxCell id="RRVFnwyOMEM094zqBqRR-116" style="vsdxID=117;fillColor=#FFFFFF;gradientColor=none;shape=stencil(pZPbbsIwDIafJrdWbOfQXDN4DwRljda1KJQN3n6tXLY2UivQ7mzn+/M7ByveXKr9uVSkL11qP8rveOwqxW+KKDZVmWLXR4q3ijenNpXvqb02R8nP+4Ecos/2a9jhJjo9KEjfJUMt+U7QOjaLKBOQX4YNQUH/EyAB47LAI1ieCVZ6fxzsyb1znAswNMUP1yS3iLkAfxVOTqtvlDNjwVjQD4alFBywHamxZAk8rnkHBgxzdxvA4dy9cOBo7u8KCJm/J7A49/cG0Kw8w0Qx9hPA22e/0UvwC98zQ/vgbwJOsa5lgKbr+cT0JZk23v4A);strokeColor=none;spacingTop=-3;spacingBottom=-3;spacingLeft=-3;spacingRight=-3;points=[];labelBackgroundColor=none;rounded=0;html=1;whiteSpace=wrap;" parent="RRVFnwyOMEM094zqBqRR-115" vertex="1">
          <mxGeometry width="41" height="41" as="geometry" />
        </mxCell>
        <mxCell id="RRVFnwyOMEM094zqBqRR-117" style="vsdxID=118;fillColor=#FFFFFF;gradientColor=none;shape=stencil(pZbbcsIgEIafJrc7wHK8tvY9nBprptY4UVv79iVDTgTdlHqH+P387LJsKHB13m9OZSHY+dLUH+V3tb3sC3wphKiO+7KpLn5U4LrA1a5uyvemvh634fdp05Lt6LP+ale4BZ1h4FSrEuwnzAjQYeI18IfqOOGdAS0iniM4mSNAC2bKv12bsCOeKvgg6TzYTaRUNyXlEMsNO0qCcB3VTSkBXJP+HLiL/ZX3j+2tir21AeNib8NBm9jb+OQ+TpWZGA+8JXKbHl62wKdRuccCAWif4hHBErycnM8/BQv1l1vgy/zSBWLU4jEJ0hKhIiDGoXIwlICD47FAABHqHV4CzzJAvyPMKQeaZ0/AfutEGcTwQhXHMGfEiSYRknRaLDSeVkAevhBnKjASlKCao9VjU+umtAOBs+Y8WbhvkAzYrEE6DbKn+uaMwJHy7xMwuEs1LNK7j4xIPx84Z/D+VynO1Ij/qekkOHkPnQVlYp6+6Ca5h3QnyexRJOwH41tiVx0O4Sky/X/+9vBT4d2C618=);strokeColor=none;spacingTop=-3;spacingBottom=-3;spacingLeft=-3;spacingRight=-3;points=[];labelBackgroundColor=none;rounded=0;html=1;whiteSpace=wrap;" parent="RRVFnwyOMEM094zqBqRR-115" vertex="1">
          <mxGeometry width="42" height="42" as="geometry" />
        </mxCell>
        <mxCell id="RRVFnwyOMEM094zqBqRR-118" style="vsdxID=119;fillColor=none;gradientColor=none;strokeColor=none;spacingTop=-3;spacingBottom=-3;spacingLeft=-3;spacingRight=-3;points=[];labelBackgroundColor=none;rounded=0;html=1;whiteSpace=wrap;" parent="RRVFnwyOMEM094zqBqRR-114" vertex="1">
          <mxGeometry x="1" y="1" width="40" height="40" as="geometry" />
        </mxCell>
        <mxCell id="RRVFnwyOMEM094zqBqRR-119" style="vsdxID=120;fillColor=#aa643b;gradientColor=none;shape=stencil(pZbdcoMgEIWfxtsd2QWU6zR9j0xjqlOrGWPa9O2LBVPxB0O8Q/yOc3Y5IBHtLvnhnEUYX9qm/si+i2ObR/QSIRZVnjVFq0cR7SPaneome2/qa3U0z+dDR3ajz/qr+8LN6JQAxjsVxj9mRiKk6d/MqxGURTUQEAMU2wQkgeSyQApQiV/wdm1MEcxKOCiyEjtFHLj9yg3vFPaUnSIEJS1FliIQfUfoXgLnQRWGCrR/XOZFAqg28fEyHD8HstiD9i+fgvX6M7GMqxRQugK91L50KN0OdNOhF1lyNx1KAkvddGgKR+kY7pc+MP78P7DD3C3JQbDRYgtPP1BCQpt4HcfYsx8nfkJ5v59V3O3OjH19XqiQenX/Q/wE4sF2tgtW8iMT8ORzpj+BvOJAntNo4ieU9/tZxdd+eCt2pod1sMBfwMwBEcivGHpAoAf/N4RTUZbmgjF8P75R6ClzG6H9Lw==);strokeColor=none;spacingTop=-3;spacingBottom=-3;spacingLeft=-3;spacingRight=-3;points=[];labelBackgroundColor=none;rounded=0;html=1;whiteSpace=wrap;" parent="RRVFnwyOMEM094zqBqRR-118" vertex="1">
          <mxGeometry y="13" width="29" height="26" as="geometry" />
        </mxCell>
        <mxCell id="RRVFnwyOMEM094zqBqRR-120" style="vsdxID=121;fillColor=#aa643b;gradientColor=none;shape=stencil(nZBLCoAwDERPk31tjuDnHoLVBmsrtf5ub0sQRdzobiZ5ycAA5pOuRwVSTMG7Xq3UBA1YgJRktfIUogIsAfPWedV5N9uG/VgnMqnBLenDxneZEOlGip09u4pRQ/aG/gTPhFf0Gf8J/otGcdXRkjHc5n3/rC+OuHosDw==);strokeColor=none;spacingTop=-3;spacingBottom=-3;spacingLeft=-3;spacingRight=-3;points=[];labelBackgroundColor=none;rounded=0;html=1;whiteSpace=wrap;" parent="RRVFnwyOMEM094zqBqRR-118" vertex="1">
          <mxGeometry x="24" y="36" width="1" height="1" as="geometry" />
        </mxCell>
        <mxCell id="RRVFnwyOMEM094zqBqRR-121" style="vsdxID=122;fillColor=#aa643b;gradientColor=none;shape=stencil(lVPLDoMgEPwarhtYVPRs7X+YiJXUikHt4+8rJT7aplZuu+zM7GYyEJ52Vd5KgrTrjT7Lmyr6ivADQVRNJY3qx4rwjPC01EaejB6awvVtbpG2uuirVbg7HnJAYVlIH+6FUfrqjw5eq2YFDxmw6A0uEBj7TRAJUA/9aTirRyDCDfV5+UQIYoiD/fpIIUGf6728QQHJhjff3m+oe929LN7pi5frnpn5Cx+LJZ6lqmuX7vX8M87jk/sKPHsC);strokeColor=none;spacingTop=-3;spacingBottom=-3;spacingLeft=-3;spacingRight=-3;points=[];labelBackgroundColor=none;rounded=0;html=1;whiteSpace=wrap;" parent="RRVFnwyOMEM094zqBqRR-118" vertex="1">
          <mxGeometry x="19" y="33" width="4" height="4" as="geometry" />
        </mxCell>
        <mxCell id="RRVFnwyOMEM094zqBqRR-122" style="vsdxID=123;fillColor=#aa643b;gradientColor=none;shape=stencil(nZBLCoAwDERPk31tjuDnHoLVBmsrtf5ub0sQRdzobiZ5ycAA5pOuRwVSTMG7Xq3UBA1YgJRktfIUogIsAfPWedV5N9uG/VgnMqnBLenDxneZEOlGip09u4pRQ/aG/gTPhFf0Gf8J/otGcdXRkjHc5n3/rC+OuHosDw==);strokeColor=none;spacingTop=-3;spacingBottom=-3;spacingLeft=-3;spacingRight=-3;points=[];labelBackgroundColor=none;rounded=0;html=1;whiteSpace=wrap;" parent="RRVFnwyOMEM094zqBqRR-118" vertex="1">
          <mxGeometry x="16" y="36" width="1" height="1" as="geometry" />
        </mxCell>
        <mxCell id="RRVFnwyOMEM094zqBqRR-123" style="vsdxID=124;fillColor=#aa643b;gradientColor=none;shape=stencil(lVPLDoIwEPyaXptlFwTOqP9BQpFGpKTg6+9tbQygAdvbPmZmt5Mto2Joyl4whGHU6izushobRnuGKLtGaDmaiNGBUVErLU5aXbvK5X1pkTa6qJtVeDgeWAbC02XpjqfJu3J04FZ2MzACz5MFIQJYh8cZz2ipjzyK1gl2PPnrf5qe25vhkC8IdsHYX98+H0O2D/IGU55vePPr/YZ60N7TYE9fglz/AzbBdJq1bFt32fP+9ymbkvsGdHgB);strokeColor=none;spacingTop=-3;spacingBottom=-3;spacingLeft=-3;spacingRight=-3;points=[];labelBackgroundColor=none;rounded=0;html=1;whiteSpace=wrap;" parent="RRVFnwyOMEM094zqBqRR-118" vertex="1">
          <mxGeometry x="11" y="33" width="4" height="4" as="geometry" />
        </mxCell>
        <mxCell id="RRVFnwyOMEM094zqBqRR-124" style="vsdxID=125;fillColor=#aa643b;gradientColor=none;shape=stencil(nZBLCoAwDERPk31tjuDnHoLVBmsrtf5ub0sQRdzobiZ5ycAA5pOuRwVSTMG7Xq3UBA1YgJRktfIUogIsAfPWedV5N9uG/VgnMqnBLenDxneZEOlGip09u4pRQ/aG/gTPhFf0Gf8J/otGcdXRkjHc5n3/rC+OuHosDw==);strokeColor=none;spacingTop=-3;spacingBottom=-3;spacingLeft=-3;spacingRight=-3;points=[];labelBackgroundColor=none;rounded=0;html=1;whiteSpace=wrap;" parent="RRVFnwyOMEM094zqBqRR-118" vertex="1">
          <mxGeometry x="16" y="27" width="1" height="1" as="geometry" />
        </mxCell>
        <mxCell id="RRVFnwyOMEM094zqBqRR-125" style="vsdxID=126;fillColor=#aa643b;gradientColor=none;shape=stencil(lVPLDoMgEPwarmTdtVXP1v6HiVhJrRjUPv6+UmLQJrZw28fM7LBZGOVDU/aCIQyjVlfxkNXYMDoxRNk1QstxjhgVjPJaaXHRauoqm/elQZropu5G4Wl5YBgIL5slR57En8rZglvZrcAIPDtsCBHAPjxOeUpbfeSQ7RPMePLXX5qe7t3wheAMeumb52OI+6DdYMKzKGT3P9SDfLvBnnsJ2vof8By406xl29rLXve/T3ku2W9AxRs=);strokeColor=none;spacingTop=-3;spacingBottom=-3;spacingLeft=-3;spacingRight=-3;points=[];labelBackgroundColor=none;rounded=0;html=1;whiteSpace=wrap;" parent="RRVFnwyOMEM094zqBqRR-118" vertex="1">
          <mxGeometry x="11" y="24" width="4" height="4" as="geometry" />
        </mxCell>
        <mxCell id="RRVFnwyOMEM094zqBqRR-126" style="vsdxID=127;fillColor=#aa643b;gradientColor=none;shape=stencil(nZFRDsIgEERPs78Gdj88QK33aCwVIkJDqba3F7IxIprG+LfDviGzGaBm0t2oAMUUg7+ou+mjBjoAonFaBRPTBNQCNYMP6hz87HrWY5fJPF39Lf+wsE9kB4qVlRSsj4xa4wr0ufwL3u8klfRpDhxD1rysDGLBGsEPhGqEyvO+JnzP9zO4efUmmoZXC4Oxlkss93Vr6Ykbp/YB);strokeColor=none;spacingTop=-3;spacingBottom=-3;spacingLeft=-3;spacingRight=-3;points=[];labelBackgroundColor=none;rounded=0;html=1;whiteSpace=wrap;" parent="RRVFnwyOMEM094zqBqRR-118" vertex="1">
          <mxGeometry x="16" y="19" width="1" height="1" as="geometry" />
        </mxCell>
        <mxCell id="RRVFnwyOMEM094zqBqRR-127" style="vsdxID=128;fillColor=#aa643b;gradientColor=none;shape=stencil(lVPLDoMgEPwargSWKOVs7X+YiJXUikH7+vuyJUZto5XbPmZmh81CRNbXRacJsH5w9qIfphxqIo4EwLS1dmbwERE5EVllnT47e2vLkHcFIjG62jsqPAOPIQPYK2RSUZZ+KqcAbkw7A4OgkCwInLF1eMIpT5f6QJlaJ+B4uV9/bO50Pw0fCWhQ7tfH52/p/7iP2g1IqnjM7jfUo3z7wYeovURt/Q/YB9NpVqZpwmXP+9+n7EvhG4j8DQ==);strokeColor=none;spacingTop=-3;spacingBottom=-3;spacingLeft=-3;spacingRight=-3;points=[];labelBackgroundColor=none;rounded=0;html=1;whiteSpace=wrap;" parent="RRVFnwyOMEM094zqBqRR-118" vertex="1">
          <mxGeometry x="10" y="15" width="4" height="4" as="geometry" />
        </mxCell>
        <mxCell id="RRVFnwyOMEM094zqBqRR-128" style="vsdxID=129;fillColor=#aa643b;gradientColor=none;shape=stencil(nZXRdsIgDIafprc5kECBa+fewzPr7Jmznqqbe/u1g7aEnqLuDvALv0n+lIJW5/3mVBUozpe2+ai+6+1lX9BLgVgf91VbX7pVQeuCVrumrd7b5nrc+v1p05P96rP56m+4+TjRR6D48TtZgvw7ePXsoT4usloCmRh+u7b+ZslxOfLGXy5uGAhQOkDhpBSAJkAUjgBtgMKJEaB1TlkiSMnVrQCpuDoq6PexvEOwkssrB0Rc3zkoy+Uy6S4H4mUVIoNLkMjw2f1pfqacFOT8n4dkrAVSPL+4CkMyBAafra9Iehu3DVMG5/2nlKEFT/FSTfwjdp33IdOF/89ByvL5cgpK3t27cxOHLM9O3LehuwiaeIW7GpQmca8Cm3UXIZjEXdaNYmN/3URN7rLI9eNJHObZglU5/Wjgh/QdaMflIwjTumY+HXcMFgWMWUqbtdhY3vC5AOOW+bkb7gg8YJ+nA7rF9Brs6sPBPybx7+nr0R35l4fWvw==);strokeColor=none;spacingTop=-3;spacingBottom=-3;spacingLeft=-3;spacingRight=-3;points=[];labelBackgroundColor=none;rounded=0;html=1;whiteSpace=wrap;" parent="RRVFnwyOMEM094zqBqRR-118" vertex="1">
          <mxGeometry x="17" width="22" height="29" as="geometry" />
        </mxCell>
        <mxCell id="RRVFnwyOMEM094zqBqRR-129" style="vsdxID=130;fillColor=#aa643b;gradientColor=none;shape=stencil(nZBLCoAwDERPk31tjuDnHoLVBmsrtf5ub0sQRdzobiZ5ycAA5pOuRwVSTMG7Xq3UBA1YgJRktfIUogIsAfPWedV5N9uG/VgnMqnBLenDxneZEOlGip09u4pRQ/aG/gTPhFf0Gf8J/otGcdXRkjHc5n3/rC+OuHosDw==);strokeColor=none;spacingTop=-3;spacingBottom=-3;spacingLeft=-3;spacingRight=-3;points=[];labelBackgroundColor=none;rounded=0;html=1;whiteSpace=wrap;" parent="RRVFnwyOMEM094zqBqRR-118" vertex="1">
          <mxGeometry x="22" y="16" width="5" height="1" as="geometry" />
        </mxCell>
        <mxCell id="RRVFnwyOMEM094zqBqRR-130" style="vsdxID=131;fillColor=#aa643b;gradientColor=none;shape=stencil(nZBLCoAwDERPk31tjuDnHoLVBmsrtf5ub0sQRdzobiZ5ycAA5pOuRwVSTMG7Xq3UBA1YgJRktfIUogIsAfPWedV5N9uG/VgnMqnBLenDxneZEOlGip09u4pRQ/aG/gTPhFf0Gf8J/otGcdXRkjHc5n3/rC+OuHosDw==);strokeColor=none;spacingTop=-3;spacingBottom=-3;spacingLeft=-3;spacingRight=-3;points=[];labelBackgroundColor=none;rounded=0;html=1;whiteSpace=wrap;" parent="RRVFnwyOMEM094zqBqRR-118" vertex="1">
          <mxGeometry x="22" y="9" width="5" height="1" as="geometry" />
        </mxCell>
        <mxCell id="RRVFnwyOMEM094zqBqRR-131" style="vsdxID=132;fillColor=#aa643b;gradientColor=none;shape=stencil(lZHdDsIgDIWfhlsCFMK4nvM9lowJcY6Fzb+3FyTqMEGzu9P2O03Tg6CeTTtpxMi8eHfUV9stBsEOMWZHo71dgkLQIKh75/XBu/PYpXpqIxnVyV3ihlvyVRxzGV2M3FOHPKt9ggc7rmAIsMpgobCQZQOVmEFmgAqzqmwg+XaJudhyDiU/rn8N37DClJfxTZ/5AwfxCaC3w5DyW8+/AwutFDY0Dw==);strokeColor=none;spacingTop=-3;spacingBottom=-3;spacingLeft=-3;spacingRight=-3;points=[];labelBackgroundColor=none;rounded=0;html=1;whiteSpace=wrap;" parent="RRVFnwyOMEM094zqBqRR-118" vertex="1">
          <mxGeometry x="29" y="8" width="5" height="4" as="geometry" />
        </mxCell>
        <mxCell id="RRVFnwyOMEM094zqBqRR-132" style="vsdxID=133;fillColor=#aa643b;gradientColor=none;shape=stencil(UzV2Ls5ILEhVNTIoLinKz04tz0wpyVA1dlE1MsrMy0gtyiwBslSNXVWNndPyi1LTi/JL81Ig/IJEkEoQKze/DGRCBUSfAUiHkUElhGdoAOG7QZTmZOYhKbU00zM0IV45TJIsxXiUkqkQr/V4lQIZiNBLy8zJgQQ+sjx6aAOFIDFl7AoA);strokeColor=none;spacingTop=-3;spacingBottom=-3;spacingLeft=-3;spacingRight=-3;points=[];labelBackgroundColor=none;rounded=0;html=1;whiteSpace=wrap;" parent="RRVFnwyOMEM094zqBqRR-118" vertex="1">
          <mxGeometry x="22" y="13" width="5" height="1" as="geometry" />
        </mxCell>
        <mxCell id="RRVFnwyOMEM094zqBqRR-133" style="vsdxID=134;fillColor=none;gradientColor=none;shape=stencil(nZBLDoAgDERP0z3SIyjew0SURgSD+Lu9kMZoXLhwN9O+tukAlrNpJg1SzDH4QW/URgNYgZTkjA4UkwJUgGXng+6DX1zLfmoymdXo17xh5zmRJ6Q42BWCfc2oJfdAr+Yv+AP9Cb7OJ3H/2JG1HNGz/84klThPVCc=);dashed=1;strokeColor=#aa643b;spacingTop=-3;spacingBottom=-3;spacingLeft=-3;spacingRight=-3;points=[];labelBackgroundColor=none;rounded=0;html=1;whiteSpace=wrap;" parent="RRVFnwyOMEM094zqBqRR-112" vertex="1">
          <mxGeometry y="21" width="579" height="567" as="geometry" />
        </mxCell>
        <mxCell id="tyDtzAG-61Nw77nEtEGS-67" value="&lt;div style=&quot;font-size: 1px&quot;&gt;&lt;p style=&quot;align:center;margin-left:0;margin-right:0;margin-top:0px;margin-bottom:0px;text-indent:0;valign:middle;direction:ltr;&quot;&gt;&lt;font style=&quot;font-size:16.93px;font-family:Oracle Sans;color:#000000;direction:ltr;letter-spacing:0px;line-height:120%;opacity:1&quot;&gt;&lt;br&gt;&lt;/font&gt;&lt;/p&gt;&lt;/div&gt;" style="verticalAlign=middle;align=center;vsdxID=26;fillColor=none;gradientColor=none;shape=stencil(nZBLDoAgDERP0z3SIyjew0SURgSD+Lu9kMZoXLhwN9O+tukAlrNpJg1SzDH4QW/URgNYgZTkjA4UkwJUgGXng+6DX1zLfmoymdXo17xh5zmRJ6Q42BWCfc2oJfdAr+Yv+AP9Cb7OJ3H/2JG1HNGz/84klThPVCc=);strokeColor=none;spacingTop=-3;spacingBottom=-3;spacingLeft=-3;spacingRight=-3;points=[];labelBackgroundColor=none;rounded=0;html=1;whiteSpace=wrap;" parent="RRVFnwyOMEM094zqBqRR-112" vertex="1">
          <mxGeometry x="645" y="572.8" width="104" height="40" as="geometry" />
        </mxCell>
        <UserObject label="" tags="Background" id="RRVFnwyOMEM094zqBqRR-420">
          <mxCell style="vsdxID=421;fillColor=none;gradientColor=none;strokeColor=none;spacingTop=-3;spacingBottom=-3;spacingLeft=-3;spacingRight=-3;points=[];labelBackgroundColor=none;rounded=0;html=1;whiteSpace=wrap;" parent="RRVFnwyOMEM094zqBqRR-112" vertex="1">
            <mxGeometry x="602" y="274.9" width="300" height="165" as="geometry" />
          </mxCell>
        </UserObject>
        <mxCell id="RRVFnwyOMEM094zqBqRR-421" style="vsdxID=422;fillColor=#f5f4f2;gradientColor=none;fillOpacity=60;shape=stencil(vVPLDoMgEPwajhqEptaztf9BKiopFbPQav++WEjro6aJTbwtu7PMzsIgmuqKNRwRrA2oC29FbipEj4gQUVcchLERohmiaaGAl6Bude7ODeuRfXRV9/6GzvXhvoPghzslcRjvX5mTAzM42yp4cBTiyOHBN5CQ7FxmBvGICHuKLmCd0AEow4xQ9YheMih5YMmCQrJyVNIt580s7ceToh5oSQ5hknwlX60GL+1nAzlT8vd0a9XM97PZ08y+xX/vsrCYDYT88IsNPk4rhJTOqMP61Jk25VxNsyc=);strokeColor=none;spacingTop=-3;spacingBottom=-3;spacingLeft=-3;spacingRight=-3;points=[];labelBackgroundColor=none;rounded=0;html=1;whiteSpace=wrap;" parent="RRVFnwyOMEM094zqBqRR-420" vertex="1">
          <mxGeometry width="300" height="165" as="geometry" />
        </mxCell>
        <mxCell id="RRVFnwyOMEM094zqBqRR-422" style="vsdxID=423;fillColor=none;gradientColor=none;shape=stencil(vVPLDoMgEPwajhqEptaztf9BKiopFbPQav++WEjro6aJTbwtu7PMzsIgmuqKNRwRrA2oC29FbipEj4gQUVcchLERohmiaaGAl6Bude7ODeuRfXRV9/6GzvXhvoPghzslcRjvX5mTAzM42yp4cBTiyOHBN5CQ7FxmBvGICHuKLmCd0AEow4xQ9YheMih5YMmCQrJyVNIt580s7ceToh5oSQ5hknwlX60GL+1nAzlT8vd0a9XM97PZ08y+xX/vsrCYDYT88IsNPk4rhJTOqMP61Jk25VxNsyc=);strokeColor=#9e9892;spacingTop=-3;spacingBottom=-3;spacingLeft=-3;spacingRight=-3;points=[];labelBackgroundColor=none;rounded=0;html=1;whiteSpace=wrap;" parent="RRVFnwyOMEM094zqBqRR-420" vertex="1">
          <mxGeometry width="300" height="165" as="geometry" />
        </mxCell>
        <mxCell id="RRVFnwyOMEM094zqBqRR-498" style="vsdxID=499;fillColor=none;gradientColor=none;strokeColor=none;spacingTop=-3;spacingBottom=-3;spacingLeft=-3;spacingRight=-3;points=[];labelBackgroundColor=none;rounded=0;html=1;whiteSpace=wrap;" parent="RRVFnwyOMEM094zqBqRR-420" vertex="1">
          <mxGeometry x="57.534246575342465" y="10" width="221.91780821917806" height="138" as="geometry" />
        </mxCell>
        <mxCell id="RRVFnwyOMEM094zqBqRR-499" style="vsdxID=500;fillColor=none;gradientColor=none;strokeColor=none;spacingTop=-3;spacingBottom=-3;spacingLeft=-3;spacingRight=-3;points=[];labelBackgroundColor=none;rounded=0;html=1;whiteSpace=wrap;" parent="RRVFnwyOMEM094zqBqRR-498" vertex="1">
          <mxGeometry x="30.410958904109588" width="51.78082191780822" height="63" as="geometry" />
        </mxCell>
        <mxCell id="RRVFnwyOMEM094zqBqRR-500" style="vsdxID=501;fillColor=none;gradientColor=none;strokeColor=none;spacingTop=-3;spacingBottom=-3;spacingLeft=-3;spacingRight=-3;points=[];labelBackgroundColor=none;rounded=0;html=1;whiteSpace=wrap;" parent="RRVFnwyOMEM094zqBqRR-499" vertex="1">
          <mxGeometry width="51.78082191780822" height="63" as="geometry" />
        </mxCell>
        <mxCell id="RRVFnwyOMEM094zqBqRR-501" style="vsdxID=502;fillColor=#FFFFFF;gradientColor=none;shape=stencil(lZPRDoIwDEW/Zq9LWUHCs+J/EAVZRCATFP/eYYdsAzW+td2922mzMtxey6zNmYBrp5pzfpfHrmS4Y0LIusyV7HTEMGW4LRqVn1TT10fK22xUjtGluY03DOSLOEajScCDCknC482rsif9oVdkCEggeIjGEfgWGASVwChMmsQchVGgqzBpEvLQfrWStUUJDuKb+QMhuHgz8ERnteDyTnDWVBzcVTiNvnFnCN/o9Cyi2CUEFy8Ab3xWB+hLfOJVxFnuI3+AnA1L6kEsG/HJB1zOxkNfBf39Hf/V62D++4WsKlod+9zfFV2iPcP0CQ==);strokeColor=none;spacingTop=-3;spacingBottom=-3;spacingLeft=-3;spacingRight=-3;points=[];labelBackgroundColor=none;rounded=0;html=1;whiteSpace=wrap;" parent="RRVFnwyOMEM094zqBqRR-500" vertex="1">
          <mxGeometry width="50.958904109589035" height="62" as="geometry" />
        </mxCell>
        <mxCell id="RRVFnwyOMEM094zqBqRR-502" style="vsdxID=503;fillColor=#FFFFFF;gradientColor=none;shape=stencil(lZXRdoIwDIafprc9aUMpvXbuPTwTB2dMPIgbvv1gLbQNCHpX4h/88iehDHfX4nDJmYRr29Rf+W95bAuGb0zK8lzkTdn2J4Z7hrtT3eSfTX07H+3z5TAoh9N3/TO8obN5BjmqIUvC3UYkx+w/8G71H7fGJgiXoXhiXIYgKdBJJ9IcR5ELJVy6SIdzkQulPMHwz6vyHMIGCRN+JlZpgxRfgFEEN6jJV5ClhDfwCqlqEbgvR8S8VE95e5c0wdU8lTGu9/vuC9Aypg1Enl/px7BBwnIzKGuQIGY9lrN6ZvAdzlyi7MtjsDmzr+q3dgJeaDGsW5ap2DKI/QJqFh1CiJ1aXxiIyDaXBRidPJHQyZv4XUQAsI1ujpJHzVHxThP5wkYL4qFnoFDBNk+lINU8tx5e/9x2GMN1Sr+TUzdHrpQbEaMSOxc+Outuro1uf/AXwamsKnuPhL/Ti6MP2UsH938=);strokeColor=none;spacingTop=-3;spacingBottom=-3;spacingLeft=-3;spacingRight=-3;points=[];labelBackgroundColor=none;rounded=0;html=1;whiteSpace=wrap;" parent="RRVFnwyOMEM094zqBqRR-500" vertex="1">
          <mxGeometry width="51.78082191780822" height="63" as="geometry" />
        </mxCell>
        <mxCell id="RRVFnwyOMEM094zqBqRR-503" style="vsdxID=504;fillColor=none;gradientColor=none;strokeColor=none;spacingTop=-3;spacingBottom=-3;spacingLeft=-3;spacingRight=-3;points=[];labelBackgroundColor=none;rounded=0;html=1;whiteSpace=wrap;" parent="RRVFnwyOMEM094zqBqRR-499" vertex="1">
          <mxGeometry x="0.821917808219178" y="1" width="49.31506849315068" height="60" as="geometry" />
        </mxCell>
        <mxCell id="RRVFnwyOMEM094zqBqRR-504" style="vsdxID=505;fillColor=#2d5967;gradientColor=none;shape=stencil(lZXLcoMwDEW/xlvGSDzqdZr+R6YhhSmFDCEt+ftCDViSE+Lu/LgyR9I1Vri7lIdzoUBf+q79LH6qY18qfFUAVVMWXdWPI4V7hbtT2xUfXXttjnZ+PkzKafTVfk8nDDbOpFEaT1Ggb3ZF/83erLiuGiJOIkgea9+vnT05tpswS2Oq1QOw6Q2YeEC+i+uH08dYmjGZbAtKcyjzwqmAU8Vacy5SAeSSu2RjdfOM0Qm5xFt4Fj4HIIkWxDUDlAJ0DBvFc/r7pfYIzXLcCgkc0eQuad7sAX3T4VPXPbGo8HMWaS728vcyIiEx85BLKfVSGqPmQm2l5VRhF8rTS1iMjJGsDgQWUZ5IWo5KFGE2IQFhPiEB80oiIddMHLaoqH/dcJPSv29SH9B8gkF6LdqfcFCqCPpnBfj03wHjwP3mT1Vd21eC7stnYVyyTwrufwE=);strokeColor=none;spacingTop=-3;spacingBottom=-3;spacingLeft=-3;spacingRight=-3;points=[];labelBackgroundColor=none;rounded=0;html=1;whiteSpace=wrap;" parent="RRVFnwyOMEM094zqBqRR-503" vertex="1">
          <mxGeometry width="49.31506849315068" height="60" as="geometry" />
        </mxCell>
        <mxCell id="RRVFnwyOMEM094zqBqRR-505" style="vsdxID=506;fillColor=#2d5967;gradientColor=none;shape=stencil(pZLLDsIgEEW/hi3hURtc1/ofTUqFiNBQ6uPvhUyMraY01t1c5tyZCbmIV4NqeokYGYJ3Z3nTbVCIHxBj2irpdYgV4jXiVee8PHk32hZ03yQyVRd3TRPu4CPJwcgDFCWgj4AabSfoq7kJzqAbwez6LDr/gQILNqdLLMrl0fsdpuI/g+CYFsuGr4t+5VcOWudj8Q5Mp42BvE37nwGLTxBOXj8B);strokeColor=none;spacingTop=-3;spacingBottom=-3;spacingLeft=-3;spacingRight=-3;points=[];labelBackgroundColor=none;rounded=0;html=1;whiteSpace=wrap;" parent="RRVFnwyOMEM094zqBqRR-503" vertex="1">
          <mxGeometry x="4.931506849315069" y="40" width="38.630136986301366" height="13" as="geometry" />
        </mxCell>
        <mxCell id="RRVFnwyOMEM094zqBqRR-506" style="vsdxID=507;fillColor=#2d5967;gradientColor=none;shape=stencil(lVLREoIgEPwaXh28q/wAs/9wEpPJxEEt/fskaIBrbOrtWHbdW1yG+dCUvWDAh1Grq3jIamwYHhmA7Bqh5bhODAuGea20uGg1dZU996Vhmumm7uYLs9XtecLBqIAvFkk5f51Pln6etOWn9jrLkgM6QRor+AwEWMCLHAUpBekiG8Ze4QCAZBf7hrs5iMe2YVwMGRum3uPtSqKSoMFOGBN+jUlCBi/3YbHQ5/6SkvzVVnb/lGAdfIFq2ba2f+E9LdwK2bJi8QQ=);strokeColor=none;spacingTop=-3;spacingBottom=-3;spacingLeft=-3;spacingRight=-3;points=[];labelBackgroundColor=none;rounded=0;html=1;whiteSpace=wrap;" parent="RRVFnwyOMEM094zqBqRR-503" vertex="1">
          <mxGeometry x="36.16438356164383" y="45" width="2.4657534246575343" height="3" as="geometry" />
        </mxCell>
        <mxCell id="RRVFnwyOMEM094zqBqRR-507" style="vsdxID=508;fillColor=#2d5967;gradientColor=none;shape=stencil(pZLdDsIgDIWfhlsC1Bm8nvM9lowJEWFhmz9vL6QxbhpZnHc99DttQw6Bstd1p4hg/RD8SV1NM2gCeyKEcVoFM8SKQEWgbH1Qx+BH16Du6kSm6uwvacINfSw5BLuj4gz1AVFr3AR9NlfBGXQlmF2fRec/sKFSzOktlcX30buCcvmfQQLlGcPHRb/yCwct87F4BaY11mLepv33gMUnDCdUDw==);strokeColor=none;spacingTop=-3;spacingBottom=-3;spacingLeft=-3;spacingRight=-3;points=[];labelBackgroundColor=none;rounded=0;html=1;whiteSpace=wrap;" parent="RRVFnwyOMEM094zqBqRR-503" vertex="1">
          <mxGeometry x="4.931506849315069" y="6" width="38.630136986301366" height="13" as="geometry" />
        </mxCell>
        <mxCell id="RRVFnwyOMEM094zqBqRR-508" style="vsdxID=509;fillColor=#2d5967;gradientColor=none;shape=stencil(lVJBDoIwEHxNr2TZVXkA4j+MFGlEIAUUfm/rYmhLJHrbTmeYnTKC0q48t1IgdL1ubvKp8r4UdBSIqi6lVr2ZBGWC0qLR8qqboc753J4t00735mG/MLJuDxGgVSFMjMQA7/OJ6ZdBMz/m6ySJDjQLYl8BIwbAhCvRSCGHPpts2S70GUCMKPFt3dVmCHxTNy25jC+uxmTn2wZJg5zuUuQzfkoZZHSfDVcbhY+9ETL4p5Wq/6mAGZb6FKqquH3ufVg3A3FVKXsB);strokeColor=none;spacingTop=-3;spacingBottom=-3;spacingLeft=-3;spacingRight=-3;points=[];labelBackgroundColor=none;rounded=0;html=1;whiteSpace=wrap;" parent="RRVFnwyOMEM094zqBqRR-503" vertex="1">
          <mxGeometry x="36.16438356164383" y="11" width="2.4657534246575343" height="3" as="geometry" />
        </mxCell>
        <mxCell id="RRVFnwyOMEM094zqBqRR-509" style="vsdxID=510;fillColor=#2d5967;gradientColor=none;shape=stencil(pZLdDsIgDIWfhlvCyqZ4Ped7LBkTIo6F4d/bC2mMm2Yszrse+p22IYfwclB1LwmwwTt7kjfdeEX4ngDoTkmnfagIrwgvW+vk0dlL16Du60jG6myvccIdfSw6gD1QZQz1AVGjuxH6aq6CE+hKMLk+iU5/IKcCpvSGimJ+9K6gmfjPIHIK23nD10W/8gsHLfOheAem1cZg3sb9z4CFJwwnr54=);strokeColor=none;spacingTop=-3;spacingBottom=-3;spacingLeft=-3;spacingRight=-3;points=[];labelBackgroundColor=none;rounded=0;html=1;whiteSpace=wrap;" parent="RRVFnwyOMEM094zqBqRR-503" vertex="1">
          <mxGeometry x="4.931506849315069" y="23" width="38.630136986301366" height="13" as="geometry" />
        </mxCell>
        <mxCell id="RRVFnwyOMEM094zqBqRR-510" style="vsdxID=511;fillColor=#2d5967;gradientColor=none;shape=stencil(lVJBDoIwEHxNr2TZVXkA4j+MFGlESgoo/F5qMbRLMHrbTmeYnTKC0rY8N1IgtJ3RN/lUeVcKOgpEVZfSqG6aBGWC0kIbeTW6r3N3bs6Waae7ftgvDE63hwjQqhBGh8QA7/PJ0S+9cfzYXSdJdKBZEIcKGJABI65EA3EO8U02nBfFDCBGu9DYX26GILT185LP2DBdPD6uLCtL6u1EIeHXmCyk/3Qrj5E/+JeY7L9Wqv6nBtOwVKhQVeUa6N/zyk2QqytlLw==);strokeColor=none;spacingTop=-3;spacingBottom=-3;spacingLeft=-3;spacingRight=-3;points=[];labelBackgroundColor=none;rounded=0;html=1;whiteSpace=wrap;" parent="RRVFnwyOMEM094zqBqRR-503" vertex="1">
          <mxGeometry x="36.16438356164383" y="28" width="2.4657534246575343" height="3" as="geometry" />
        </mxCell>
        <mxCell id="RRVFnwyOMEM094zqBqRR-511" style="vsdxID=512;fillColor=none;gradientColor=none;strokeColor=none;spacingTop=-3;spacingBottom=-3;spacingLeft=-3;spacingRight=-3;points=[];labelBackgroundColor=none;rounded=0;html=1;whiteSpace=wrap;" parent="RRVFnwyOMEM094zqBqRR-498" vertex="1">
          <mxGeometry y="67" width="221.91780821917806" height="71" as="geometry" />
        </mxCell>
        <mxCell id="RRVFnwyOMEM094zqBqRR-512" value="&lt;div style=&quot;font-size: 1px&quot;&gt;&lt;p style=&quot;align:left;margin-left:0;margin-right:0;margin-top:0px;margin-bottom:0px;text-indent:0;valign:middle;direction:ltr;&quot;&gt;&lt;font style=&quot;font-size:16.93px;font-family:Oracle Sans;color:#000000;direction:ltr;letter-spacing:0px;line-height:120%;opacity:1&quot;&gt;High Performance&lt;br/&gt;&lt;/font&gt;&lt;/p&gt;&lt;/div&gt;" style="verticalAlign=middle;align=left;vsdxID=513;fillColor=none;gradientColor=none;shape=stencil(nZBLDoAgDERP0z3SIyjew0SURgSD+Lu9kMZoXLhwN9O+tukAlrNpJg1SzDH4QW/URgNYgZTkjA4UkwJUgGXng+6DX1zLfmoymdXo17xh5zmRJ6Q42BWCfc2oJfdAr+Yv+AP9Cb7OJ3H/2JG1HNGz/84klThPVCc=);strokeColor=none;spacingTop=-3;spacingBottom=-3;spacingLeft=-3;spacingRight=-3;points=[];labelBackgroundColor=none;rounded=0;html=1;whiteSpace=wrap;" parent="RRVFnwyOMEM094zqBqRR-511" vertex="1">
          <mxGeometry width="221.91780821917806" height="20" as="geometry" />
        </mxCell>
        <mxCell id="RRVFnwyOMEM094zqBqRR-513" value="&lt;div style=&quot;font-size: 1px&quot;&gt;&lt;p style=&quot;align:left;margin-left:0;margin-right:0;margin-top:0px;margin-bottom:0px;text-indent:0;valign:middle;direction:ltr;&quot;&gt;&lt;font style=&quot;font-size:16.93px;font-family:Oracle Sans;color:#000000;direction:ltr;letter-spacing:0px;line-height:120%;opacity:1&quot;&gt;Compute (HPC)&lt;br/&gt;&lt;/font&gt;&lt;/p&gt;&lt;/div&gt;" style="verticalAlign=middle;align=left;vsdxID=514;fillColor=none;gradientColor=none;shape=stencil(nZBLDoAgDERP0z3SIyjew0SURgSD+Lu9kMZoXLhwN9O+tukAlrNpJg1SzDH4QW/URgNYgZTkjA4UkwJUgGXng+6DX1zLfmoymdXo17xh5zmRJ6Q42BWCfc2oJfdAr+Yv+AP9Cb7OJ3H/2JG1HNGz/84klThPVCc=);strokeColor=none;spacingTop=-3;spacingBottom=-3;spacingLeft=-3;spacingRight=-3;points=[];labelBackgroundColor=none;rounded=0;html=1;whiteSpace=wrap;" parent="RRVFnwyOMEM094zqBqRR-511" vertex="1">
          <mxGeometry x="8.21917808219178" y="16" width="180.82191780821915" height="20" as="geometry" />
        </mxCell>
        <mxCell id="RRVFnwyOMEM094zqBqRR-514" value="&lt;div style=&quot;font-size: 1px&quot;&gt;&lt;p style=&quot;align:left;margin-left:0;margin-right:0;margin-top:0px;margin-bottom:0px;text-indent:0;valign:middle;direction:ltr;&quot;&gt;&lt;font style=&quot;font-size:16.93px;font-family:Oracle Sans;color:#000000;direction:ltr;letter-spacing:0px;line-height:120%;opacity:1&quot;&gt;BM4.8&lt;br/&gt;&lt;/font&gt;&lt;/p&gt;&lt;/div&gt;" style="verticalAlign=middle;align=left;vsdxID=515;fillColor=none;gradientColor=none;shape=stencil(nZBLDoAgDERP0z3SIyjew0SURgSD+Lu9kMZoXLhwN9O+tukAlrNpJg1SzDH4QW/URgNYgZTkjA4UkwJUgGXng+6DX1zLfmoymdXo17xh5zmRJ6Q42BWCfc2oJfdAr+Yv+AP9Cb7OJ3H/2JG1HNGz/84klThPVCc=);strokeColor=none;spacingTop=-3;spacingBottom=-3;spacingLeft=-3;spacingRight=-3;points=[];labelBackgroundColor=none;rounded=0;html=1;whiteSpace=wrap;" parent="RRVFnwyOMEM094zqBqRR-511" vertex="1">
          <mxGeometry x="36.16438356164383" y="33" width="69.04109589041096" height="20" as="geometry" />
        </mxCell>
        <mxCell id="RRVFnwyOMEM094zqBqRR-515" value="&lt;div style=&quot;font-size: 1px&quot;&gt;&lt;p style=&quot;align:left;margin-left:0;margin-right:0;margin-top:0px;margin-bottom:0px;text-indent:0;valign:middle;direction:ltr;&quot;&gt;&lt;font style=&quot;font-size:16.93px;font-family:Oracle Sans;color:#000000;direction:ltr;letter-spacing:0px;line-height:120%;opacity:1&quot;&gt;NVidia GPU &lt;br/&gt;&lt;/font&gt;&lt;/p&gt;&lt;/div&gt;" style="verticalAlign=middle;align=left;vsdxID=516;fillColor=none;gradientColor=none;shape=stencil(nZBLDoAgDERP0z3SIyjew0SURgSD+Lu9kMZoXLhwN9O+tukAlrNpJg1SzDH4QW/URgNYgZTkjA4UkwJUgGXng+6DX1zLfmoymdXo17xh5zmRJ6Q42BWCfc2oJfdAr+Yv+AP9Cb7OJ3H/2JG1HNGz/84klThPVCc=);strokeColor=none;spacingTop=-3;spacingBottom=-3;spacingLeft=-3;spacingRight=-3;points=[];labelBackgroundColor=none;rounded=0;html=1;whiteSpace=wrap;" parent="RRVFnwyOMEM094zqBqRR-511" vertex="1">
          <mxGeometry x="20.54794520547945" y="50" width="152.87671232876713" height="20" as="geometry" />
        </mxCell>
        <UserObject label="" tags="Background" id="RRVFnwyOMEM094zqBqRR-497">
          <mxCell style="vsdxID=498;fillColor=none;gradientColor=none;strokeColor=none;spacingTop=-3;spacingBottom=-3;spacingLeft=-3;spacingRight=-3;points=[];labelBackgroundColor=none;rounded=0;html=1;whiteSpace=wrap;" parent="RRVFnwyOMEM094zqBqRR-420" vertex="1">
            <mxGeometry x="57.534246575342465" y="11" width="235.89041095890408" height="153" as="geometry" />
          </mxCell>
        </UserObject>
        <mxCell id="RRVFnwyOMEM094zqBqRR-516" value="&lt;div style=&quot;font-size: 1px&quot;&gt;&lt;p style=&quot;align:left;margin-left:0;margin-right:0;margin-top:0px;margin-bottom:0px;text-indent:0;valign:middle;direction:ltr;&quot;&gt;&lt;font style=&quot;font-size:16.93px;font-family:Oracle Sans;color:#000000;direction:ltr;letter-spacing:0px;line-height:120%;opacity:1&quot;&gt;(A100, A10, P100)&lt;br/&gt;&lt;/font&gt;&lt;/p&gt;&lt;/div&gt;" style="verticalAlign=middle;align=left;vsdxID=517;fillColor=none;gradientColor=none;shape=stencil(nZBLDoAgDERP0z3SIyjew0SURgSD+Lu9kMZoXLhwN9O+tukAlrNpJg1SzDH4QW/URgNYgZTkjA4UkwJUgGXng+6DX1zLfmoymdXo17xh5zmRJ6Q42BWCfc2oJfdAr+Yv+AP9Cb7OJ3H/2JG1HNGz/84klThPVCc=);strokeColor=none;spacingTop=-3;spacingBottom=-3;spacingLeft=-3;spacingRight=-3;points=[];labelBackgroundColor=none;rounded=0;html=1;whiteSpace=wrap;" parent="RRVFnwyOMEM094zqBqRR-497" vertex="1">
          <mxGeometry y="133" width="235.89041095890408" height="20" as="geometry" />
        </mxCell>
        <mxCell id="RRVFnwyOMEM094zqBqRR-388" value="&lt;div style=&quot;font-size: 1px&quot;&gt;&lt;p style=&quot;align:left;margin-left:0;margin-right:0;margin-top:0px;margin-bottom:0px;text-indent:0;valign:middle;direction:ltr;&quot;&gt;&lt;font style=&quot;font-size:16.93px;font-family:Oracle Sans;color:#312d2a;direction:ltr;letter-spacing:0px;line-height:120%;opacity:1&quot;&gt;&lt;b&gt;       Oracle Kubernetes Engine (OKE)&lt;br/&gt;&lt;/b&gt;&lt;/font&gt;&lt;/p&gt;&lt;/div&gt;" style="verticalAlign=middle;align=left;vsdxID=389;fillColor=none;gradientColor=none;shape=stencil(nZBLDoAgDERP0z3SIyjew0SURgSD+Lu9kMZoXLhwN9O+tukAlrNpJg1SzDH4QW/URgNYgZTkjA4UkwJUgGXng+6DX1zLfmoymdXo17xh5zmRJ6Q42BWCfc2oJfdAr+Yv+AP9Cb7OJ3H/2JG1HNGz/84klThPVCc=);strokeColor=none;spacingTop=-3;spacingBottom=-3;spacingLeft=-3;spacingRight=-3;points=[];labelBackgroundColor=none;rounded=0;html=1;whiteSpace=wrap;" parent="RRVFnwyOMEM094zqBqRR-112" vertex="1">
          <mxGeometry x="24" y="175.8367088607595" width="626" height="62.025316455696206" as="geometry" />
        </mxCell>
        <mxCell id="RRVFnwyOMEM094zqBqRR-389" style="vsdxID=390;fillColor=#f5f4f2;gradientColor=none;shape=stencil(nZBLDoAgDERP0z3SIyjew0SURgSD+Lu9kMZoXLhwN9O+tukAlrNpJg1SzDH4QW/URgNYgZTkjA4UkwJUgGXng+6DX1zLfmoymdXo17xh5zmRJ6Q42BWCfc2oJfdAr+Yv+AP9Cb7OJ3H/2JG1HNGz/84klThPVCc=);strokeColor=none;spacingTop=-3;spacingBottom=-3;spacingLeft=-3;spacingRight=-3;points=[];labelBackgroundColor=none;rounded=0;html=1;whiteSpace=wrap;" parent="RRVFnwyOMEM094zqBqRR-112" vertex="1">
          <mxGeometry x="328" y="151.02658227848102" width="46" height="6.2025316455696204" as="geometry" />
        </mxCell>
        <mxCell id="tyDtzAG-61Nw77nEtEGS-48" value="&lt;div style=&quot;font-size: 1px&quot;&gt;&lt;p style=&quot;align:center;margin-left:0;margin-right:0;margin-top:0px;margin-bottom:0px;text-indent:0;valign:middle;direction:ltr;&quot;&gt;&lt;font style=&quot;font-size:16.93px;font-family:Oracle Sans;color:#000000;direction:ltr;letter-spacing:0px;line-height:120%;opacity:1&quot;&gt;&lt;br&gt;&lt;/font&gt;&lt;/p&gt;&lt;/div&gt;" style="verticalAlign=middle;align=center;vsdxID=159;fillColor=none;gradientColor=none;shape=stencil(nZBLDoAgDERP0z3SIyjew0SURgSD+Lu9kMZoXLhwN9O+tukAlrNpJg1SzDH4QW/URgNYgZTkjA4UkwJUgGXng+6DX1zLfmoymdXo17xh5zmRJ6Q42BWCfc2oJfdAr+Yv+AP9Cb7OJ3H/2JG1HNGz/84klThPVCc=);strokeColor=none;spacingTop=-3;spacingBottom=-3;spacingLeft=-3;spacingRight=-3;points=[];labelBackgroundColor=none;rounded=0;html=1;whiteSpace=wrap;" parent="RRVFnwyOMEM094zqBqRR-112" vertex="1">
          <mxGeometry x="622" y="413.08354430379734" width="99" height="111.64556962025316" as="geometry" />
        </mxCell>
        <mxCell id="RRVFnwyOMEM094zqBqRR-383" style="vsdxID=384;fillColor=#FFFFFF;gradientColor=none;shape=stencil(nZBLDoAgDERP0z3SIyjew0SURgSD+Lu9kMZoXLhwN9O+tukAlrNpJg1SzDH4QW/URgNYgZTkjA4UkwJUgGXng+6DX1zLfmoymdXo17xh5zmRJ6Q42BWCfc2oJfdAr+Yv+AP9Cb7OJ3H/2JG1HNGz/84klThPVCc=);strokeColor=none;spacingTop=-3;spacingBottom=-3;spacingLeft=-3;spacingRight=-3;points=[];labelBackgroundColor=none;rounded=0;html=1;whiteSpace=wrap;" parent="RRVFnwyOMEM094zqBqRR-112" vertex="1">
          <mxGeometry x="24" y="225.89999999999995" width="543" height="334.36893203883494" as="geometry" />
        </mxCell>
        <mxCell id="RRVFnwyOMEM094zqBqRR-384" value="&lt;div style=&quot;font-size: 1px&quot;&gt;&lt;p style=&quot;align:left;margin-left:0;margin-right:0;margin-top:0px;margin-bottom:0px;text-indent:0;valign:middle;direction:ltr;&quot;&gt;&lt;font style=&quot;font-size:16.93px;font-family:Oracle Sans;color:#312d2a;direction:ltr;letter-spacing:0px;line-height:120%;opacity:1&quot;&gt;&lt;br&gt;&lt;/font&gt;&lt;/p&gt;&lt;/div&gt;" style="verticalAlign=middle;align=left;vsdxID=385;fillColor=none;gradientColor=none;shape=stencil(nZBLDoAgDERP0z3SIyjew0SURgSD+Lu9kMZoXLhwN9O+tukAlrNpJg1SzDH4QW/URgNYgZTkjA4UkwJUgGXng+6DX1zLfmoymdXo17xh5zmRJ6Q42BWCfc2oJfdAr+Yv+AP9Cb7OJ3H/2JG1HNGz/84klThPVCc=);strokeColor=none;spacingTop=-3;spacingBottom=-3;spacingLeft=-3;spacingRight=-3;points=[];labelBackgroundColor=none;rounded=0;html=1;whiteSpace=wrap;" parent="RRVFnwyOMEM094zqBqRR-112" vertex="1">
          <mxGeometry x="31.985294117647072" y="231.6087378640776" width="289.75210084033614" height="16.310679611650485" as="geometry" />
        </mxCell>
        <mxCell id="RRVFnwyOMEM094zqBqRR-385" style="vsdxID=386;fillColor=none;gradientColor=none;shape=stencil(nZBLDoAgDERP0z3SIyjew0SURgSD+Lu9kMZoXLhwN9O+tukAlrNpJg1SzDH4QW/URgNYgZTkjA4UkwJUgGXng+6DX1zLfmoymdXo17xh5zmRJ6Q42BWCfc2oJfdAr+Yv+AP9Cb7OJ3H/2JG1HNGz/84klThPVCc=);dashed=1;dashPattern=2.00 2.00;strokeColor=#9e9892;spacingTop=-3;spacingBottom=-3;spacingLeft=-3;spacingRight=-3;points=[];labelBackgroundColor=none;rounded=0;html=1;whiteSpace=wrap;" parent="RRVFnwyOMEM094zqBqRR-112" vertex="1">
          <mxGeometry x="24" y="225.89999999999995" width="540" height="340" as="geometry" />
        </mxCell>
        <mxCell id="RRVFnwyOMEM094zqBqRR-444" style="vsdxID=445;fillColor=none;gradientColor=none;strokeColor=none;spacingTop=-3;spacingBottom=-3;spacingLeft=-3;spacingRight=-3;points=[];labelBackgroundColor=none;rounded=0;html=1;whiteSpace=wrap;" parent="RRVFnwyOMEM094zqBqRR-112" vertex="1">
          <mxGeometry x="70" y="230.08" width="63" height="45" as="geometry" />
        </mxCell>
        <mxCell id="RRVFnwyOMEM094zqBqRR-445" style="vsdxID=446;fillColor=#FFFFFF;gradientColor=none;shape=stencil(pZXbDsIgDIafhtsGqG5w7eE9lmw64tyWbZ7e3k1iVIgV5l2Br03zt6UMV32ZtQWTvB+65lBcTD6UDNdMSlOXRWeG0WK4YbjaNV2x75pTndtzm03kZB2b8xThav10ComcvCS/2Rv+OG0tXJn6DVYapA6GE9BiPixAq++8QPgLJ1IRHNJgRSSgCmX5PBABQ9ElSEKET1YkoIIDq1G/NBTWi6eAIXACwYEFj6kESftFpnGv3aJorYATivjNH+1A5uOPLYn7X8IPKSOq5MJ0+T2a7iwX/9G1XuL0RLg4PWwuTU6xC0cVZz48Gq+1sDNVZbfK+7u7RsYru4Jwcwc=);strokeColor=none;spacingTop=-3;spacingBottom=-3;spacingLeft=-3;spacingRight=-3;points=[];labelBackgroundColor=none;rounded=0;html=1;whiteSpace=wrap;" parent="RRVFnwyOMEM094zqBqRR-444" vertex="1">
          <mxGeometry width="63" height="45" as="geometry" />
        </mxCell>
        <mxCell id="RRVFnwyOMEM094zqBqRR-446" style="vsdxID=447;fillColor=#2c5967;gradientColor=none;shape=stencil(pZJBDsIgEEVPM1sDjC66rvUeTUoLEaGhaPX2QidGbSIR3f0Pb2aY8AHrSbWjBMGm4N1RzroLCnAPQmirpNchKsAGsO6dl4N3Z9uRH9tEJnVyl9ThSnWcsVQj2I18tVvsgVijbY5ln9ktbir+B80z9PodJWzBepmuP4KPCV9uVQAXfdsbG8UzG702hqL1er/OUjyiHGJzBw==);strokeColor=none;spacingTop=-3;spacingBottom=-3;spacingLeft=-3;spacingRight=-3;points=[];labelBackgroundColor=none;rounded=0;html=1;whiteSpace=wrap;" parent="RRVFnwyOMEM094zqBqRR-444" vertex="1">
          <mxGeometry x="48" y="9" width="6" height="27" as="geometry" />
        </mxCell>
        <mxCell id="RRVFnwyOMEM094zqBqRR-447" style="vsdxID=448;fillColor=#2c5967;gradientColor=none;shape=stencil(nZLRDsIgDEW/pq+mo/qw5zn/Y8mYEBEWhk7/XrAx6hKJ7O1eOG1puEDNpLpRgsApeHeSs+6DAtqDENoq6XWICqgFagbn5dG7i+3Zj10ikzq7a+pw47oKMdUIvLOvd097YNZom2PxN7ulTb0erjLw8hUlbMFyma4rwdeEP7cqgIs+7YuN4p2MQRvDwfq8XyYpHnEKqX0A);strokeColor=none;spacingTop=-3;spacingBottom=-3;spacingLeft=-3;spacingRight=-3;points=[];labelBackgroundColor=none;rounded=0;html=1;whiteSpace=wrap;" parent="RRVFnwyOMEM094zqBqRR-444" vertex="1">
          <mxGeometry x="38" y="9" width="6" height="27" as="geometry" />
        </mxCell>
        <mxCell id="RRVFnwyOMEM094zqBqRR-448" style="vsdxID=449;fillColor=#2c5967;gradientColor=none;shape=stencil(UzV2Ls5ILEhVNTIoLinKz04tz0wpyVA1dlE1MsrMy0gtyiwBslSNXVWNndPyi1LTi/JL81Ig/IJEkEoQKze/DGRCBUSfoYEBSI+RQSWEbwnhukHU5mTmIak1MdKzMKVAtSEe1ejuIEUtHqVkKoTZQKRTSVCML8TwqwUyEJGYlpmTA0kDyPLokQ4UgiQYY1cA);strokeColor=none;spacingTop=-3;spacingBottom=-3;spacingLeft=-3;spacingRight=-3;points=[];labelBackgroundColor=none;rounded=0;html=1;whiteSpace=wrap;" parent="RRVFnwyOMEM094zqBqRR-444" vertex="1">
          <mxGeometry x="28" y="9" width="6" height="27" as="geometry" />
        </mxCell>
        <mxCell id="RRVFnwyOMEM094zqBqRR-449" style="vsdxID=450;fillColor=#2c5967;gradientColor=none;shape=stencil(nZLLDoQgDEW/pluDdDauffyHiTg0g2CQef39QBqjcUFGd/eW00doAetF97MCKZbg3UO9aQgasAEpyWrlKUQF2ALWo/Pq7t3TDuznPpFJTe6VKnw4rxQi5UjxZV+x7Zg1ZHfsDYvqOlxm4OMUZ9gMehFcO/w56gk492F5NopthSMZwxewfz+uPIb4XLD9AQ==);strokeColor=none;spacingTop=-3;spacingBottom=-3;spacingLeft=-3;spacingRight=-3;points=[];labelBackgroundColor=none;rounded=0;html=1;whiteSpace=wrap;" parent="RRVFnwyOMEM094zqBqRR-444" vertex="1">
          <mxGeometry x="19" y="9" width="6" height="27" as="geometry" />
        </mxCell>
        <mxCell id="RRVFnwyOMEM094zqBqRR-450" style="vsdxID=451;fillColor=#2c5967;gradientColor=none;shape=stencil(pZJBDsIgEEVPM1sDjC66rvUeTUoLEaGhaPX2QidGbSIR3f0Pb2aY8AHrSbWjBMGm4N1RzroLCnAPQmirpNchKsAGsO6dl4N3Z9uRH9tEJnVyl9ThSnWcsVQj2I18tVvsgVijbY5ln9ktbir+B80z9PodJWzBepmuP4KPCV9uVQAXfdsbG8UzG702hqL1er/OUjyiHGJzBw==);strokeColor=none;spacingTop=-3;spacingBottom=-3;spacingLeft=-3;spacingRight=-3;points=[];labelBackgroundColor=none;rounded=0;html=1;whiteSpace=wrap;" parent="RRVFnwyOMEM094zqBqRR-444" vertex="1">
          <mxGeometry x="9" y="9" width="6" height="27" as="geometry" />
        </mxCell>
        <mxCell id="RRVFnwyOMEM094zqBqRR-451" style="vsdxID=452;fillColor=#2c5967;gradientColor=none;shape=stencil(pZVNDoMgEIVPw5YgSNS1tfcwESupVaP27/aFkqYW0kF0Nw7f4OMNOojlU1MOAlEyzWN/FndZzQ1iB0Sp7BoxyllFiBWI5XU/itPYX7vKPA+lJnV06W96h4epyyJMua6i5GkyFEf0nTgavpXdgk9xsgsn/1myDYQF/LJRjONsLZxyzKO1cJbgNF0tgwCncywLoz1C3H4HF4B6PoubYI8UG/c0yJECN9/G4Xtl08ApXQeDYFiHn7e+d+VZiIkOr17IAT3xPtyjxsY9LXV2xzF00x1rwnCPmN3OO7wKvr/1WratmQrLdXsMqJQZIax4AQ==);strokeColor=none;spacingTop=-3;spacingBottom=-3;spacingLeft=-3;spacingRight=-3;points=[];labelBackgroundColor=none;rounded=0;html=1;whiteSpace=wrap;" parent="RRVFnwyOMEM094zqBqRR-444" vertex="1">
          <mxGeometry x="1" y="1" width="60" height="42" as="geometry" />
        </mxCell>
        <mxCell id="RRVFnwyOMEM094zqBqRR-452" style="vsdxID=453;fillColor=none;gradientColor=none;strokeColor=none;spacingTop=-3;spacingBottom=-3;spacingLeft=-3;spacingRight=-3;points=[];labelBackgroundColor=none;rounded=0;html=1;whiteSpace=wrap;" parent="RRVFnwyOMEM094zqBqRR-112" vertex="1">
          <mxGeometry x="56" y="279.08000000000004" width="254" height="37" as="geometry" />
        </mxCell>
        <mxCell id="RRVFnwyOMEM094zqBqRR-453" value="&lt;div style=&quot;font-size: 1px&quot;&gt;&lt;p style=&quot;align:left;margin-left:0;margin-right:0;margin-top:0px;margin-bottom:0px;text-indent:0;valign:middle;direction:ltr;&quot;&gt;&lt;font style=&quot;font-size:16.93px;font-family:Oracle Sans;color:#000000;direction:ltr;letter-spacing:0px;line-height:120%;opacity:1&quot;&gt;text-generation&lt;br&gt;&lt;/font&gt;&lt;/p&gt;&lt;/div&gt;" style="verticalAlign=middle;align=left;vsdxID=454;fillColor=none;gradientColor=none;shape=stencil(nZBLDoAgDERP0z3SIyjew0SURgSD+Lu9kMZoXLhwN9O+tukAlrNpJg1SzDH4QW/URgNYgZTkjA4UkwJUgGXng+6DX1zLfmoymdXo17xh5zmRJ6Q42BWCfc2oJfdAr+Yv+AP9Cb7OJ3H/2JG1HNGz/84klThPVCc=);strokeColor=none;spacingTop=-3;spacingBottom=-3;spacingLeft=-3;spacingRight=-3;points=[];labelBackgroundColor=none;rounded=0;html=1;whiteSpace=wrap;" parent="RRVFnwyOMEM094zqBqRR-452" vertex="1">
          <mxGeometry width="120" height="20" as="geometry" />
        </mxCell>
        <mxCell id="RRVFnwyOMEM094zqBqRR-454" value="&lt;div style=&quot;font-size: 1px&quot;&gt;&lt;p style=&quot;align:left;margin-left:0;margin-right:0;margin-top:0px;margin-bottom:0px;text-indent:0;valign:middle;direction:ltr;&quot;&gt;&lt;font style=&quot;font-size:16.93px;font-family:Oracle Sans;color:#000000;direction:ltr;letter-spacing:0px;line-height:120%;opacity:1&quot;&gt;(pod)&lt;br/&gt;&lt;/font&gt;&lt;/p&gt;&lt;/div&gt;" style="verticalAlign=middle;align=left;vsdxID=455;fillColor=none;gradientColor=none;shape=stencil(nZBLDoAgDERP0z3SIyjew0SURgSD+Lu9kMZoXLhwN9O+tukAlrNpJg1SzDH4QW/URgNYgZTkjA4UkwJUgGXng+6DX1zLfmoymdXo17xh5zmRJ6Q42BWCfc2oJfdAr+Yv+AP9Cb7OJ3H/2JG1HNGz/84klThPVCc=);strokeColor=none;spacingTop=-3;spacingBottom=-3;spacingLeft=-3;spacingRight=-3;points=[];labelBackgroundColor=none;rounded=0;html=1;whiteSpace=wrap;" parent="RRVFnwyOMEM094zqBqRR-452" vertex="1">
          <mxGeometry x="38" y="16" width="84" height="20" as="geometry" />
        </mxCell>
        <mxCell id="d890zcpU8hJ1R3_jmAcA-15" style="vsdxID=453;fillColor=none;gradientColor=none;strokeColor=none;spacingTop=-3;spacingBottom=-3;spacingLeft=-3;spacingRight=-3;points=[];labelBackgroundColor=none;rounded=0;html=1;whiteSpace=wrap;" vertex="1" parent="RRVFnwyOMEM094zqBqRR-112">
          <mxGeometry x="213" y="279.08000000000004" width="290" height="37" as="geometry" />
        </mxCell>
        <mxCell id="d890zcpU8hJ1R3_jmAcA-16" value="&lt;div style=&quot;font-size: 1px&quot;&gt;&lt;p style=&quot;align:left;margin-left:0;margin-right:0;margin-top:0px;margin-bottom:0px;text-indent:0;valign:middle;direction:ltr;&quot;&gt;&lt;font style=&quot;font-size:16.93px;font-family:Oracle Sans;color:#000000;direction:ltr;letter-spacing:0px;line-height:120%;opacity:1&quot;&gt;music-generation&lt;br&gt;&lt;/font&gt;&lt;/p&gt;&lt;/div&gt;" style="verticalAlign=middle;align=left;vsdxID=454;fillColor=none;gradientColor=none;shape=stencil(nZBLDoAgDERP0z3SIyjew0SURgSD+Lu9kMZoXLhwN9O+tukAlrNpJg1SzDH4QW/URgNYgZTkjA4UkwJUgGXng+6DX1zLfmoymdXo17xh5zmRJ6Q42BWCfc2oJfdAr+Yv+AP9Cb7OJ3H/2JG1HNGz/84klThPVCc=);strokeColor=none;spacingTop=-3;spacingBottom=-3;spacingLeft=-3;spacingRight=-3;points=[];labelBackgroundColor=none;rounded=0;html=1;whiteSpace=wrap;" vertex="1" parent="d890zcpU8hJ1R3_jmAcA-15">
          <mxGeometry width="137.00787401574803" height="20" as="geometry" />
        </mxCell>
        <mxCell id="d890zcpU8hJ1R3_jmAcA-17" value="&lt;div style=&quot;font-size: 1px&quot;&gt;&lt;p style=&quot;align:left;margin-left:0;margin-right:0;margin-top:0px;margin-bottom:0px;text-indent:0;valign:middle;direction:ltr;&quot;&gt;&lt;font style=&quot;font-size:16.93px;font-family:Oracle Sans;color:#000000;direction:ltr;letter-spacing:0px;line-height:120%;opacity:1&quot;&gt;(pod)&lt;br/&gt;&lt;/font&gt;&lt;/p&gt;&lt;/div&gt;" style="verticalAlign=middle;align=left;vsdxID=455;fillColor=none;gradientColor=none;shape=stencil(nZBLDoAgDERP0z3SIyjew0SURgSD+Lu9kMZoXLhwN9O+tukAlrNpJg1SzDH4QW/URgNYgZTkjA4UkwJUgGXng+6DX1zLfmoymdXo17xh5zmRJ6Q42BWCfc2oJfdAr+Yv+AP9Cb7OJ3H/2JG1HNGz/84klThPVCc=);strokeColor=none;spacingTop=-3;spacingBottom=-3;spacingLeft=-3;spacingRight=-3;points=[];labelBackgroundColor=none;rounded=0;html=1;whiteSpace=wrap;" vertex="1" parent="d890zcpU8hJ1R3_jmAcA-15">
          <mxGeometry x="43.38582677165354" y="16" width="95.90551181102362" height="20" as="geometry" />
        </mxCell>
        <mxCell id="d890zcpU8hJ1R3_jmAcA-27" value="&lt;div style=&quot;font-size: 1px&quot;&gt;&lt;p style=&quot;align:left;margin-left:0;margin-right:0;margin-top:0px;margin-bottom:0px;text-indent:0;valign:middle;direction:ltr;&quot;&gt;&lt;font style=&quot;font-size:16.93px;font-family:Oracle Sans;color:#000000;direction:ltr;letter-spacing:0px;line-height:120%;opacity:1&quot;&gt;video-generation&lt;br&gt;&lt;/font&gt;&lt;/p&gt;&lt;/div&gt;" style="verticalAlign=middle;align=left;vsdxID=454;fillColor=none;gradientColor=none;shape=stencil(nZBLDoAgDERP0z3SIyjew0SURgSD+Lu9kMZoXLhwN9O+tukAlrNpJg1SzDH4QW/URgNYgZTkjA4UkwJUgGXng+6DX1zLfmoymdXo17xh5zmRJ6Q42BWCfc2oJfdAr+Yv+AP9Cb7OJ3H/2JG1HNGz/84klThPVCc=);strokeColor=none;spacingTop=-3;spacingBottom=-3;spacingLeft=-3;spacingRight=-3;points=[];labelBackgroundColor=none;rounded=0;html=1;whiteSpace=wrap;" vertex="1" parent="RRVFnwyOMEM094zqBqRR-112">
          <mxGeometry x="383" y="279.08000000000004" width="137.00787401574803" height="20" as="geometry" />
        </mxCell>
        <mxCell id="d890zcpU8hJ1R3_jmAcA-28" value="&lt;div style=&quot;font-size: 1px&quot;&gt;&lt;p style=&quot;align:left;margin-left:0;margin-right:0;margin-top:0px;margin-bottom:0px;text-indent:0;valign:middle;direction:ltr;&quot;&gt;&lt;font style=&quot;font-size:16.93px;font-family:Oracle Sans;color:#000000;direction:ltr;letter-spacing:0px;line-height:120%;opacity:1&quot;&gt;(pod)&lt;br/&gt;&lt;/font&gt;&lt;/p&gt;&lt;/div&gt;" style="verticalAlign=middle;align=left;vsdxID=455;fillColor=none;gradientColor=none;shape=stencil(nZBLDoAgDERP0z3SIyjew0SURgSD+Lu9kMZoXLhwN9O+tukAlrNpJg1SzDH4QW/URgNYgZTkjA4UkwJUgGXng+6DX1zLfmoymdXo17xh5zmRJ6Q42BWCfc2oJfdAr+Yv+AP9Cb7OJ3H/2JG1HNGz/84klThPVCc=);strokeColor=none;spacingTop=-3;spacingBottom=-3;spacingLeft=-3;spacingRight=-3;points=[];labelBackgroundColor=none;rounded=0;html=1;whiteSpace=wrap;" vertex="1" parent="RRVFnwyOMEM094zqBqRR-112">
          <mxGeometry x="426.38582677165346" y="295.08000000000004" width="95.90551181102362" height="20" as="geometry" />
        </mxCell>
        <mxCell id="d890zcpU8hJ1R3_jmAcA-18" style="vsdxID=445;fillColor=none;gradientColor=none;strokeColor=none;spacingTop=-3;spacingBottom=-3;spacingLeft=-3;spacingRight=-3;points=[];labelBackgroundColor=none;rounded=0;html=1;whiteSpace=wrap;" vertex="1" parent="RRVFnwyOMEM094zqBqRR-112">
          <mxGeometry x="403" y="230.08" width="63" height="45" as="geometry" />
        </mxCell>
        <mxCell id="d890zcpU8hJ1R3_jmAcA-19" style="vsdxID=446;fillColor=#FFFFFF;gradientColor=none;shape=stencil(pZXbDsIgDIafhtsGqG5w7eE9lmw64tyWbZ7e3k1iVIgV5l2Br03zt6UMV32ZtQWTvB+65lBcTD6UDNdMSlOXRWeG0WK4YbjaNV2x75pTndtzm03kZB2b8xThav10ComcvCS/2Rv+OG0tXJn6DVYapA6GE9BiPixAq++8QPgLJ1IRHNJgRSSgCmX5PBABQ9ElSEKET1YkoIIDq1G/NBTWi6eAIXACwYEFj6kESftFpnGv3aJorYATivjNH+1A5uOPLYn7X8IPKSOq5MJ0+T2a7iwX/9G1XuL0RLg4PWwuTU6xC0cVZz48Gq+1sDNVZbfK+7u7RsYru4Jwcwc=);strokeColor=none;spacingTop=-3;spacingBottom=-3;spacingLeft=-3;spacingRight=-3;points=[];labelBackgroundColor=none;rounded=0;html=1;whiteSpace=wrap;" vertex="1" parent="d890zcpU8hJ1R3_jmAcA-18">
          <mxGeometry width="63" height="45" as="geometry" />
        </mxCell>
        <mxCell id="d890zcpU8hJ1R3_jmAcA-20" style="vsdxID=447;fillColor=#2c5967;gradientColor=none;shape=stencil(pZJBDsIgEEVPM1sDjC66rvUeTUoLEaGhaPX2QidGbSIR3f0Pb2aY8AHrSbWjBMGm4N1RzroLCnAPQmirpNchKsAGsO6dl4N3Z9uRH9tEJnVyl9ThSnWcsVQj2I18tVvsgVijbY5ln9ktbir+B80z9PodJWzBepmuP4KPCV9uVQAXfdsbG8UzG702hqL1er/OUjyiHGJzBw==);strokeColor=none;spacingTop=-3;spacingBottom=-3;spacingLeft=-3;spacingRight=-3;points=[];labelBackgroundColor=none;rounded=0;html=1;whiteSpace=wrap;" vertex="1" parent="d890zcpU8hJ1R3_jmAcA-18">
          <mxGeometry x="48" y="9" width="6" height="27" as="geometry" />
        </mxCell>
        <mxCell id="d890zcpU8hJ1R3_jmAcA-21" style="vsdxID=448;fillColor=#2c5967;gradientColor=none;shape=stencil(nZLRDsIgDEW/pq+mo/qw5zn/Y8mYEBEWhk7/XrAx6hKJ7O1eOG1puEDNpLpRgsApeHeSs+6DAtqDENoq6XWICqgFagbn5dG7i+3Zj10ikzq7a+pw47oKMdUIvLOvd097YNZom2PxN7ulTb0erjLw8hUlbMFyma4rwdeEP7cqgIs+7YuN4p2MQRvDwfq8XyYpHnEKqX0A);strokeColor=none;spacingTop=-3;spacingBottom=-3;spacingLeft=-3;spacingRight=-3;points=[];labelBackgroundColor=none;rounded=0;html=1;whiteSpace=wrap;" vertex="1" parent="d890zcpU8hJ1R3_jmAcA-18">
          <mxGeometry x="38" y="9" width="6" height="27" as="geometry" />
        </mxCell>
        <mxCell id="d890zcpU8hJ1R3_jmAcA-22" style="vsdxID=449;fillColor=#2c5967;gradientColor=none;shape=stencil(UzV2Ls5ILEhVNTIoLinKz04tz0wpyVA1dlE1MsrMy0gtyiwBslSNXVWNndPyi1LTi/JL81Ig/IJEkEoQKze/DGRCBUSfoYEBSI+RQSWEbwnhukHU5mTmIak1MdKzMKVAtSEe1ejuIEUtHqVkKoTZQKRTSVCML8TwqwUyEJGYlpmTA0kDyPLokQ4UgiQYY1cA);strokeColor=none;spacingTop=-3;spacingBottom=-3;spacingLeft=-3;spacingRight=-3;points=[];labelBackgroundColor=none;rounded=0;html=1;whiteSpace=wrap;" vertex="1" parent="d890zcpU8hJ1R3_jmAcA-18">
          <mxGeometry x="28" y="9" width="6" height="27" as="geometry" />
        </mxCell>
        <mxCell id="d890zcpU8hJ1R3_jmAcA-23" style="vsdxID=450;fillColor=#2c5967;gradientColor=none;shape=stencil(nZLLDoQgDEW/pluDdDauffyHiTg0g2CQef39QBqjcUFGd/eW00doAetF97MCKZbg3UO9aQgasAEpyWrlKUQF2ALWo/Pq7t3TDuznPpFJTe6VKnw4rxQi5UjxZV+x7Zg1ZHfsDYvqOlxm4OMUZ9gMehFcO/w56gk492F5NopthSMZwxewfz+uPIb4XLD9AQ==);strokeColor=none;spacingTop=-3;spacingBottom=-3;spacingLeft=-3;spacingRight=-3;points=[];labelBackgroundColor=none;rounded=0;html=1;whiteSpace=wrap;" vertex="1" parent="d890zcpU8hJ1R3_jmAcA-18">
          <mxGeometry x="19" y="9" width="6" height="27" as="geometry" />
        </mxCell>
        <mxCell id="d890zcpU8hJ1R3_jmAcA-24" style="vsdxID=451;fillColor=#2c5967;gradientColor=none;shape=stencil(pZJBDsIgEEVPM1sDjC66rvUeTUoLEaGhaPX2QidGbSIR3f0Pb2aY8AHrSbWjBMGm4N1RzroLCnAPQmirpNchKsAGsO6dl4N3Z9uRH9tEJnVyl9ThSnWcsVQj2I18tVvsgVijbY5ln9ktbir+B80z9PodJWzBepmuP4KPCV9uVQAXfdsbG8UzG702hqL1er/OUjyiHGJzBw==);strokeColor=none;spacingTop=-3;spacingBottom=-3;spacingLeft=-3;spacingRight=-3;points=[];labelBackgroundColor=none;rounded=0;html=1;whiteSpace=wrap;" vertex="1" parent="d890zcpU8hJ1R3_jmAcA-18">
          <mxGeometry x="9" y="9" width="6" height="27" as="geometry" />
        </mxCell>
        <mxCell id="d890zcpU8hJ1R3_jmAcA-25" style="vsdxID=452;fillColor=#2c5967;gradientColor=none;shape=stencil(pZVNDoMgEIVPw5YgSNS1tfcwESupVaP27/aFkqYW0kF0Nw7f4OMNOojlU1MOAlEyzWN/FndZzQ1iB0Sp7BoxyllFiBWI5XU/itPYX7vKPA+lJnV06W96h4epyyJMua6i5GkyFEf0nTgavpXdgk9xsgsn/1myDYQF/LJRjONsLZxyzKO1cJbgNF0tgwCncywLoz1C3H4HF4B6PoubYI8UG/c0yJECN9/G4Xtl08ApXQeDYFiHn7e+d+VZiIkOr17IAT3xPtyjxsY9LXV2xzF00x1rwnCPmN3OO7wKvr/1WratmQrLdXsMqJQZIax4AQ==);strokeColor=none;spacingTop=-3;spacingBottom=-3;spacingLeft=-3;spacingRight=-3;points=[];labelBackgroundColor=none;rounded=0;html=1;whiteSpace=wrap;" vertex="1" parent="d890zcpU8hJ1R3_jmAcA-18">
          <mxGeometry x="1" y="1" width="60" height="42" as="geometry" />
        </mxCell>
        <mxCell id="d890zcpU8hJ1R3_jmAcA-7" style="vsdxID=445;fillColor=none;gradientColor=none;strokeColor=none;spacingTop=-3;spacingBottom=-3;spacingLeft=-3;spacingRight=-3;points=[];labelBackgroundColor=none;rounded=0;html=1;whiteSpace=wrap;" vertex="1" parent="RRVFnwyOMEM094zqBqRR-112">
          <mxGeometry x="247" y="230.08" width="63" height="45" as="geometry" />
        </mxCell>
        <mxCell id="d890zcpU8hJ1R3_jmAcA-8" style="vsdxID=446;fillColor=#FFFFFF;gradientColor=none;shape=stencil(pZXbDsIgDIafhtsGqG5w7eE9lmw64tyWbZ7e3k1iVIgV5l2Br03zt6UMV32ZtQWTvB+65lBcTD6UDNdMSlOXRWeG0WK4YbjaNV2x75pTndtzm03kZB2b8xThav10ComcvCS/2Rv+OG0tXJn6DVYapA6GE9BiPixAq++8QPgLJ1IRHNJgRSSgCmX5PBABQ9ElSEKET1YkoIIDq1G/NBTWi6eAIXACwYEFj6kESftFpnGv3aJorYATivjNH+1A5uOPLYn7X8IPKSOq5MJ0+T2a7iwX/9G1XuL0RLg4PWwuTU6xC0cVZz48Gq+1sDNVZbfK+7u7RsYru4Jwcwc=);strokeColor=none;spacingTop=-3;spacingBottom=-3;spacingLeft=-3;spacingRight=-3;points=[];labelBackgroundColor=none;rounded=0;html=1;whiteSpace=wrap;" vertex="1" parent="d890zcpU8hJ1R3_jmAcA-7">
          <mxGeometry width="63" height="45" as="geometry" />
        </mxCell>
        <mxCell id="d890zcpU8hJ1R3_jmAcA-9" style="vsdxID=447;fillColor=#2c5967;gradientColor=none;shape=stencil(pZJBDsIgEEVPM1sDjC66rvUeTUoLEaGhaPX2QidGbSIR3f0Pb2aY8AHrSbWjBMGm4N1RzroLCnAPQmirpNchKsAGsO6dl4N3Z9uRH9tEJnVyl9ThSnWcsVQj2I18tVvsgVijbY5ln9ktbir+B80z9PodJWzBepmuP4KPCV9uVQAXfdsbG8UzG702hqL1er/OUjyiHGJzBw==);strokeColor=none;spacingTop=-3;spacingBottom=-3;spacingLeft=-3;spacingRight=-3;points=[];labelBackgroundColor=none;rounded=0;html=1;whiteSpace=wrap;" vertex="1" parent="d890zcpU8hJ1R3_jmAcA-7">
          <mxGeometry x="48" y="9" width="6" height="27" as="geometry" />
        </mxCell>
        <mxCell id="d890zcpU8hJ1R3_jmAcA-10" style="vsdxID=448;fillColor=#2c5967;gradientColor=none;shape=stencil(nZLRDsIgDEW/pq+mo/qw5zn/Y8mYEBEWhk7/XrAx6hKJ7O1eOG1puEDNpLpRgsApeHeSs+6DAtqDENoq6XWICqgFagbn5dG7i+3Zj10ikzq7a+pw47oKMdUIvLOvd097YNZom2PxN7ulTb0erjLw8hUlbMFyma4rwdeEP7cqgIs+7YuN4p2MQRvDwfq8XyYpHnEKqX0A);strokeColor=none;spacingTop=-3;spacingBottom=-3;spacingLeft=-3;spacingRight=-3;points=[];labelBackgroundColor=none;rounded=0;html=1;whiteSpace=wrap;" vertex="1" parent="d890zcpU8hJ1R3_jmAcA-7">
          <mxGeometry x="38" y="9" width="6" height="27" as="geometry" />
        </mxCell>
        <mxCell id="d890zcpU8hJ1R3_jmAcA-11" style="vsdxID=449;fillColor=#2c5967;gradientColor=none;shape=stencil(UzV2Ls5ILEhVNTIoLinKz04tz0wpyVA1dlE1MsrMy0gtyiwBslSNXVWNndPyi1LTi/JL81Ig/IJEkEoQKze/DGRCBUSfoYEBSI+RQSWEbwnhukHU5mTmIak1MdKzMKVAtSEe1ejuIEUtHqVkKoTZQKRTSVCML8TwqwUyEJGYlpmTA0kDyPLokQ4UgiQYY1cA);strokeColor=none;spacingTop=-3;spacingBottom=-3;spacingLeft=-3;spacingRight=-3;points=[];labelBackgroundColor=none;rounded=0;html=1;whiteSpace=wrap;" vertex="1" parent="d890zcpU8hJ1R3_jmAcA-7">
          <mxGeometry x="28" y="9" width="6" height="27" as="geometry" />
        </mxCell>
        <mxCell id="d890zcpU8hJ1R3_jmAcA-12" style="vsdxID=450;fillColor=#2c5967;gradientColor=none;shape=stencil(nZLLDoQgDEW/pluDdDauffyHiTg0g2CQef39QBqjcUFGd/eW00doAetF97MCKZbg3UO9aQgasAEpyWrlKUQF2ALWo/Pq7t3TDuznPpFJTe6VKnw4rxQi5UjxZV+x7Zg1ZHfsDYvqOlxm4OMUZ9gMehFcO/w56gk492F5NopthSMZwxewfz+uPIb4XLD9AQ==);strokeColor=none;spacingTop=-3;spacingBottom=-3;spacingLeft=-3;spacingRight=-3;points=[];labelBackgroundColor=none;rounded=0;html=1;whiteSpace=wrap;" vertex="1" parent="d890zcpU8hJ1R3_jmAcA-7">
          <mxGeometry x="19" y="9" width="6" height="27" as="geometry" />
        </mxCell>
        <mxCell id="d890zcpU8hJ1R3_jmAcA-13" style="vsdxID=451;fillColor=#2c5967;gradientColor=none;shape=stencil(pZJBDsIgEEVPM1sDjC66rvUeTUoLEaGhaPX2QidGbSIR3f0Pb2aY8AHrSbWjBMGm4N1RzroLCnAPQmirpNchKsAGsO6dl4N3Z9uRH9tEJnVyl9ThSnWcsVQj2I18tVvsgVijbY5ln9ktbir+B80z9PodJWzBepmuP4KPCV9uVQAXfdsbG8UzG702hqL1er/OUjyiHGJzBw==);strokeColor=none;spacingTop=-3;spacingBottom=-3;spacingLeft=-3;spacingRight=-3;points=[];labelBackgroundColor=none;rounded=0;html=1;whiteSpace=wrap;" vertex="1" parent="d890zcpU8hJ1R3_jmAcA-7">
          <mxGeometry x="9" y="9" width="6" height="27" as="geometry" />
        </mxCell>
        <mxCell id="d890zcpU8hJ1R3_jmAcA-14" style="vsdxID=452;fillColor=#2c5967;gradientColor=none;shape=stencil(pZVNDoMgEIVPw5YgSNS1tfcwESupVaP27/aFkqYW0kF0Nw7f4OMNOojlU1MOAlEyzWN/FndZzQ1iB0Sp7BoxyllFiBWI5XU/itPYX7vKPA+lJnV06W96h4epyyJMua6i5GkyFEf0nTgavpXdgk9xsgsn/1myDYQF/LJRjONsLZxyzKO1cJbgNF0tgwCncywLoz1C3H4HF4B6PoubYI8UG/c0yJECN9/G4Xtl08ApXQeDYFiHn7e+d+VZiIkOr17IAT3xPtyjxsY9LXV2xzF00x1rwnCPmN3OO7wKvr/1WratmQrLdXsMqJQZIax4AQ==);strokeColor=none;spacingTop=-3;spacingBottom=-3;spacingLeft=-3;spacingRight=-3;points=[];labelBackgroundColor=none;rounded=0;html=1;whiteSpace=wrap;" vertex="1" parent="d890zcpU8hJ1R3_jmAcA-7">
          <mxGeometry x="1" y="1" width="60" height="42" as="geometry" />
        </mxCell>
        <mxCell id="d890zcpU8hJ1R3_jmAcA-78" style="vsdxID=445;fillColor=none;gradientColor=none;strokeColor=none;spacingTop=-3;spacingBottom=-3;spacingLeft=-3;spacingRight=-3;points=[];labelBackgroundColor=none;rounded=0;html=1;whiteSpace=wrap;" vertex="1" parent="RRVFnwyOMEM094zqBqRR-112">
          <mxGeometry x="130" y="350.08000000000004" width="63" height="45" as="geometry" />
        </mxCell>
        <mxCell id="d890zcpU8hJ1R3_jmAcA-79" style="vsdxID=446;fillColor=#FFFFFF;gradientColor=none;shape=stencil(pZXbDsIgDIafhtsGqG5w7eE9lmw64tyWbZ7e3k1iVIgV5l2Br03zt6UMV32ZtQWTvB+65lBcTD6UDNdMSlOXRWeG0WK4YbjaNV2x75pTndtzm03kZB2b8xThav10ComcvCS/2Rv+OG0tXJn6DVYapA6GE9BiPixAq++8QPgLJ1IRHNJgRSSgCmX5PBABQ9ElSEKET1YkoIIDq1G/NBTWi6eAIXACwYEFj6kESftFpnGv3aJorYATivjNH+1A5uOPLYn7X8IPKSOq5MJ0+T2a7iwX/9G1XuL0RLg4PWwuTU6xC0cVZz48Gq+1sDNVZbfK+7u7RsYru4Jwcwc=);strokeColor=none;spacingTop=-3;spacingBottom=-3;spacingLeft=-3;spacingRight=-3;points=[];labelBackgroundColor=none;rounded=0;html=1;whiteSpace=wrap;" vertex="1" parent="d890zcpU8hJ1R3_jmAcA-78">
          <mxGeometry width="63" height="45" as="geometry" />
        </mxCell>
        <mxCell id="d890zcpU8hJ1R3_jmAcA-80" style="vsdxID=447;fillColor=#2c5967;gradientColor=none;shape=stencil(pZJBDsIgEEVPM1sDjC66rvUeTUoLEaGhaPX2QidGbSIR3f0Pb2aY8AHrSbWjBMGm4N1RzroLCnAPQmirpNchKsAGsO6dl4N3Z9uRH9tEJnVyl9ThSnWcsVQj2I18tVvsgVijbY5ln9ktbir+B80z9PodJWzBepmuP4KPCV9uVQAXfdsbG8UzG702hqL1er/OUjyiHGJzBw==);strokeColor=none;spacingTop=-3;spacingBottom=-3;spacingLeft=-3;spacingRight=-3;points=[];labelBackgroundColor=none;rounded=0;html=1;whiteSpace=wrap;" vertex="1" parent="d890zcpU8hJ1R3_jmAcA-78">
          <mxGeometry x="48" y="9" width="6" height="27" as="geometry" />
        </mxCell>
        <mxCell id="d890zcpU8hJ1R3_jmAcA-81" style="vsdxID=448;fillColor=#2c5967;gradientColor=none;shape=stencil(nZLRDsIgDEW/pq+mo/qw5zn/Y8mYEBEWhk7/XrAx6hKJ7O1eOG1puEDNpLpRgsApeHeSs+6DAtqDENoq6XWICqgFagbn5dG7i+3Zj10ikzq7a+pw47oKMdUIvLOvd097YNZom2PxN7ulTb0erjLw8hUlbMFyma4rwdeEP7cqgIs+7YuN4p2MQRvDwfq8XyYpHnEKqX0A);strokeColor=none;spacingTop=-3;spacingBottom=-3;spacingLeft=-3;spacingRight=-3;points=[];labelBackgroundColor=none;rounded=0;html=1;whiteSpace=wrap;" vertex="1" parent="d890zcpU8hJ1R3_jmAcA-78">
          <mxGeometry x="38" y="9" width="6" height="27" as="geometry" />
        </mxCell>
        <mxCell id="d890zcpU8hJ1R3_jmAcA-82" style="vsdxID=449;fillColor=#2c5967;gradientColor=none;shape=stencil(UzV2Ls5ILEhVNTIoLinKz04tz0wpyVA1dlE1MsrMy0gtyiwBslSNXVWNndPyi1LTi/JL81Ig/IJEkEoQKze/DGRCBUSfoYEBSI+RQSWEbwnhukHU5mTmIak1MdKzMKVAtSEe1ejuIEUtHqVkKoTZQKRTSVCML8TwqwUyEJGYlpmTA0kDyPLokQ4UgiQYY1cA);strokeColor=none;spacingTop=-3;spacingBottom=-3;spacingLeft=-3;spacingRight=-3;points=[];labelBackgroundColor=none;rounded=0;html=1;whiteSpace=wrap;" vertex="1" parent="d890zcpU8hJ1R3_jmAcA-78">
          <mxGeometry x="28" y="9" width="6" height="27" as="geometry" />
        </mxCell>
        <mxCell id="d890zcpU8hJ1R3_jmAcA-83" style="vsdxID=450;fillColor=#2c5967;gradientColor=none;shape=stencil(nZLLDoQgDEW/pluDdDauffyHiTg0g2CQef39QBqjcUFGd/eW00doAetF97MCKZbg3UO9aQgasAEpyWrlKUQF2ALWo/Pq7t3TDuznPpFJTe6VKnw4rxQi5UjxZV+x7Zg1ZHfsDYvqOlxm4OMUZ9gMehFcO/w56gk492F5NopthSMZwxewfz+uPIb4XLD9AQ==);strokeColor=none;spacingTop=-3;spacingBottom=-3;spacingLeft=-3;spacingRight=-3;points=[];labelBackgroundColor=none;rounded=0;html=1;whiteSpace=wrap;" vertex="1" parent="d890zcpU8hJ1R3_jmAcA-78">
          <mxGeometry x="19" y="9" width="6" height="27" as="geometry" />
        </mxCell>
        <mxCell id="d890zcpU8hJ1R3_jmAcA-84" style="vsdxID=451;fillColor=#2c5967;gradientColor=none;shape=stencil(pZJBDsIgEEVPM1sDjC66rvUeTUoLEaGhaPX2QidGbSIR3f0Pb2aY8AHrSbWjBMGm4N1RzroLCnAPQmirpNchKsAGsO6dl4N3Z9uRH9tEJnVyl9ThSnWcsVQj2I18tVvsgVijbY5ln9ktbir+B80z9PodJWzBepmuP4KPCV9uVQAXfdsbG8UzG702hqL1er/OUjyiHGJzBw==);strokeColor=none;spacingTop=-3;spacingBottom=-3;spacingLeft=-3;spacingRight=-3;points=[];labelBackgroundColor=none;rounded=0;html=1;whiteSpace=wrap;" vertex="1" parent="d890zcpU8hJ1R3_jmAcA-78">
          <mxGeometry x="9" y="9" width="6" height="27" as="geometry" />
        </mxCell>
        <mxCell id="d890zcpU8hJ1R3_jmAcA-85" style="vsdxID=452;fillColor=#2c5967;gradientColor=none;shape=stencil(pZVNDoMgEIVPw5YgSNS1tfcwESupVaP27/aFkqYW0kF0Nw7f4OMNOojlU1MOAlEyzWN/FndZzQ1iB0Sp7BoxyllFiBWI5XU/itPYX7vKPA+lJnV06W96h4epyyJMua6i5GkyFEf0nTgavpXdgk9xsgsn/1myDYQF/LJRjONsLZxyzKO1cJbgNF0tgwCncywLoz1C3H4HF4B6PoubYI8UG/c0yJECN9/G4Xtl08ApXQeDYFiHn7e+d+VZiIkOr17IAT3xPtyjxsY9LXV2xzF00x1rwnCPmN3OO7wKvr/1WratmQrLdXsMqJQZIax4AQ==);strokeColor=none;spacingTop=-3;spacingBottom=-3;spacingLeft=-3;spacingRight=-3;points=[];labelBackgroundColor=none;rounded=0;html=1;whiteSpace=wrap;" vertex="1" parent="d890zcpU8hJ1R3_jmAcA-78">
          <mxGeometry x="1" y="1" width="60" height="42" as="geometry" />
        </mxCell>
        <mxCell id="d890zcpU8hJ1R3_jmAcA-86" style="vsdxID=453;fillColor=none;gradientColor=none;strokeColor=none;spacingTop=-3;spacingBottom=-3;spacingLeft=-3;spacingRight=-3;points=[];labelBackgroundColor=none;rounded=0;html=1;whiteSpace=wrap;" vertex="1" parent="RRVFnwyOMEM094zqBqRR-112">
          <mxGeometry x="116" y="399.08000000000004" width="254" height="37" as="geometry" />
        </mxCell>
        <mxCell id="d890zcpU8hJ1R3_jmAcA-87" value="&lt;div style=&quot;font-size: 1px&quot;&gt;&lt;p style=&quot;align:left;margin-left:0;margin-right:0;margin-top:0px;margin-bottom:0px;text-indent:0;valign:middle;direction:ltr;&quot;&gt;&lt;font style=&quot;font-size:16.93px;font-family:Oracle Sans;color:#000000;direction:ltr;letter-spacing:0px;line-height:120%;opacity:1&quot;&gt;object-generation&lt;br&gt;&lt;/font&gt;&lt;/p&gt;&lt;/div&gt;" style="verticalAlign=middle;align=left;vsdxID=454;fillColor=none;gradientColor=none;shape=stencil(nZBLDoAgDERP0z3SIyjew0SURgSD+Lu9kMZoXLhwN9O+tukAlrNpJg1SzDH4QW/URgNYgZTkjA4UkwJUgGXng+6DX1zLfmoymdXo17xh5zmRJ6Q42BWCfc2oJfdAr+Yv+AP9Cb7OJ3H/2JG1HNGz/84klThPVCc=);strokeColor=none;spacingTop=-3;spacingBottom=-3;spacingLeft=-3;spacingRight=-3;points=[];labelBackgroundColor=none;rounded=0;html=1;whiteSpace=wrap;" vertex="1" parent="d890zcpU8hJ1R3_jmAcA-86">
          <mxGeometry width="160" height="20" as="geometry" />
        </mxCell>
        <mxCell id="d890zcpU8hJ1R3_jmAcA-88" value="&lt;div style=&quot;font-size: 1px&quot;&gt;&lt;p style=&quot;align:left;margin-left:0;margin-right:0;margin-top:0px;margin-bottom:0px;text-indent:0;valign:middle;direction:ltr;&quot;&gt;&lt;font style=&quot;font-size:16.93px;font-family:Oracle Sans;color:#000000;direction:ltr;letter-spacing:0px;line-height:120%;opacity:1&quot;&gt;(pod)&lt;br/&gt;&lt;/font&gt;&lt;/p&gt;&lt;/div&gt;" style="verticalAlign=middle;align=left;vsdxID=455;fillColor=none;gradientColor=none;shape=stencil(nZBLDoAgDERP0z3SIyjew0SURgSD+Lu9kMZoXLhwN9O+tukAlrNpJg1SzDH4QW/URgNYgZTkjA4UkwJUgGXng+6DX1zLfmoymdXo17xh5zmRJ6Q42BWCfc2oJfdAr+Yv+AP9Cb7OJ3H/2JG1HNGz/84klThPVCc=);strokeColor=none;spacingTop=-3;spacingBottom=-3;spacingLeft=-3;spacingRight=-3;points=[];labelBackgroundColor=none;rounded=0;html=1;whiteSpace=wrap;" vertex="1" parent="d890zcpU8hJ1R3_jmAcA-86">
          <mxGeometry x="38" y="16" width="84" height="20" as="geometry" />
        </mxCell>
        <mxCell id="d890zcpU8hJ1R3_jmAcA-90" value="&lt;div style=&quot;font-size: 1px&quot;&gt;&lt;p style=&quot;align:left;margin-left:0;margin-right:0;margin-top:0px;margin-bottom:0px;text-indent:0;valign:middle;direction:ltr;&quot;&gt;&lt;font style=&quot;font-size:16.93px;font-family:Oracle Sans;color:#000000;direction:ltr;letter-spacing:0px;line-height:120%;opacity:1&quot;&gt;image-generation&lt;br&gt;&lt;/font&gt;&lt;/p&gt;&lt;/div&gt;" style="verticalAlign=middle;align=left;vsdxID=454;fillColor=none;gradientColor=none;shape=stencil(nZBLDoAgDERP0z3SIyjew0SURgSD+Lu9kMZoXLhwN9O+tukAlrNpJg1SzDH4QW/URgNYgZTkjA4UkwJUgGXng+6DX1zLfmoymdXo17xh5zmRJ6Q42BWCfc2oJfdAr+Yv+AP9Cb7OJ3H/2JG1HNGz/84klThPVCc=);strokeColor=none;spacingTop=-3;spacingBottom=-3;spacingLeft=-3;spacingRight=-3;points=[];labelBackgroundColor=none;rounded=0;html=1;whiteSpace=wrap;" vertex="1" parent="RRVFnwyOMEM094zqBqRR-112">
          <mxGeometry x="273" y="399.08000000000004" width="137.00787401574803" height="20" as="geometry" />
        </mxCell>
        <mxCell id="d890zcpU8hJ1R3_jmAcA-91" value="&lt;div style=&quot;font-size: 1px&quot;&gt;&lt;p style=&quot;align:left;margin-left:0;margin-right:0;margin-top:0px;margin-bottom:0px;text-indent:0;valign:middle;direction:ltr;&quot;&gt;&lt;font style=&quot;font-size:16.93px;font-family:Oracle Sans;color:#000000;direction:ltr;letter-spacing:0px;line-height:120%;opacity:1&quot;&gt;(pod)&lt;br/&gt;&lt;/font&gt;&lt;/p&gt;&lt;/div&gt;" style="verticalAlign=middle;align=left;vsdxID=455;fillColor=none;gradientColor=none;shape=stencil(nZBLDoAgDERP0z3SIyjew0SURgSD+Lu9kMZoXLhwN9O+tukAlrNpJg1SzDH4QW/URgNYgZTkjA4UkwJUgGXng+6DX1zLfmoymdXo17xh5zmRJ6Q42BWCfc2oJfdAr+Yv+AP9Cb7OJ3H/2JG1HNGz/84klThPVCc=);strokeColor=none;spacingTop=-3;spacingBottom=-3;spacingLeft=-3;spacingRight=-3;points=[];labelBackgroundColor=none;rounded=0;html=1;whiteSpace=wrap;" vertex="1" parent="RRVFnwyOMEM094zqBqRR-112">
          <mxGeometry x="316.38582677165346" y="415.08000000000004" width="95.90551181102362" height="20" as="geometry" />
        </mxCell>
        <mxCell id="d890zcpU8hJ1R3_jmAcA-103" style="vsdxID=445;fillColor=none;gradientColor=none;strokeColor=none;spacingTop=-3;spacingBottom=-3;spacingLeft=-3;spacingRight=-3;points=[];labelBackgroundColor=none;rounded=0;html=1;whiteSpace=wrap;" vertex="1" parent="RRVFnwyOMEM094zqBqRR-112">
          <mxGeometry x="307" y="350.08000000000004" width="63" height="45" as="geometry" />
        </mxCell>
        <mxCell id="d890zcpU8hJ1R3_jmAcA-104" style="vsdxID=446;fillColor=#FFFFFF;gradientColor=none;shape=stencil(pZXbDsIgDIafhtsGqG5w7eE9lmw64tyWbZ7e3k1iVIgV5l2Br03zt6UMV32ZtQWTvB+65lBcTD6UDNdMSlOXRWeG0WK4YbjaNV2x75pTndtzm03kZB2b8xThav10ComcvCS/2Rv+OG0tXJn6DVYapA6GE9BiPixAq++8QPgLJ1IRHNJgRSSgCmX5PBABQ9ElSEKET1YkoIIDq1G/NBTWi6eAIXACwYEFj6kESftFpnGv3aJorYATivjNH+1A5uOPLYn7X8IPKSOq5MJ0+T2a7iwX/9G1XuL0RLg4PWwuTU6xC0cVZz48Gq+1sDNVZbfK+7u7RsYru4Jwcwc=);strokeColor=none;spacingTop=-3;spacingBottom=-3;spacingLeft=-3;spacingRight=-3;points=[];labelBackgroundColor=none;rounded=0;html=1;whiteSpace=wrap;" vertex="1" parent="d890zcpU8hJ1R3_jmAcA-103">
          <mxGeometry width="63" height="45" as="geometry" />
        </mxCell>
        <mxCell id="d890zcpU8hJ1R3_jmAcA-105" style="vsdxID=447;fillColor=#2c5967;gradientColor=none;shape=stencil(pZJBDsIgEEVPM1sDjC66rvUeTUoLEaGhaPX2QidGbSIR3f0Pb2aY8AHrSbWjBMGm4N1RzroLCnAPQmirpNchKsAGsO6dl4N3Z9uRH9tEJnVyl9ThSnWcsVQj2I18tVvsgVijbY5ln9ktbir+B80z9PodJWzBepmuP4KPCV9uVQAXfdsbG8UzG702hqL1er/OUjyiHGJzBw==);strokeColor=none;spacingTop=-3;spacingBottom=-3;spacingLeft=-3;spacingRight=-3;points=[];labelBackgroundColor=none;rounded=0;html=1;whiteSpace=wrap;" vertex="1" parent="d890zcpU8hJ1R3_jmAcA-103">
          <mxGeometry x="48" y="9" width="6" height="27" as="geometry" />
        </mxCell>
        <mxCell id="d890zcpU8hJ1R3_jmAcA-106" style="vsdxID=448;fillColor=#2c5967;gradientColor=none;shape=stencil(nZLRDsIgDEW/pq+mo/qw5zn/Y8mYEBEWhk7/XrAx6hKJ7O1eOG1puEDNpLpRgsApeHeSs+6DAtqDENoq6XWICqgFagbn5dG7i+3Zj10ikzq7a+pw47oKMdUIvLOvd097YNZom2PxN7ulTb0erjLw8hUlbMFyma4rwdeEP7cqgIs+7YuN4p2MQRvDwfq8XyYpHnEKqX0A);strokeColor=none;spacingTop=-3;spacingBottom=-3;spacingLeft=-3;spacingRight=-3;points=[];labelBackgroundColor=none;rounded=0;html=1;whiteSpace=wrap;" vertex="1" parent="d890zcpU8hJ1R3_jmAcA-103">
          <mxGeometry x="38" y="9" width="6" height="27" as="geometry" />
        </mxCell>
        <mxCell id="d890zcpU8hJ1R3_jmAcA-107" style="vsdxID=449;fillColor=#2c5967;gradientColor=none;shape=stencil(UzV2Ls5ILEhVNTIoLinKz04tz0wpyVA1dlE1MsrMy0gtyiwBslSNXVWNndPyi1LTi/JL81Ig/IJEkEoQKze/DGRCBUSfoYEBSI+RQSWEbwnhukHU5mTmIak1MdKzMKVAtSEe1ejuIEUtHqVkKoTZQKRTSVCML8TwqwUyEJGYlpmTA0kDyPLokQ4UgiQYY1cA);strokeColor=none;spacingTop=-3;spacingBottom=-3;spacingLeft=-3;spacingRight=-3;points=[];labelBackgroundColor=none;rounded=0;html=1;whiteSpace=wrap;" vertex="1" parent="d890zcpU8hJ1R3_jmAcA-103">
          <mxGeometry x="28" y="9" width="6" height="27" as="geometry" />
        </mxCell>
        <mxCell id="d890zcpU8hJ1R3_jmAcA-108" style="vsdxID=450;fillColor=#2c5967;gradientColor=none;shape=stencil(nZLLDoQgDEW/pluDdDauffyHiTg0g2CQef39QBqjcUFGd/eW00doAetF97MCKZbg3UO9aQgasAEpyWrlKUQF2ALWo/Pq7t3TDuznPpFJTe6VKnw4rxQi5UjxZV+x7Zg1ZHfsDYvqOlxm4OMUZ9gMehFcO/w56gk492F5NopthSMZwxewfz+uPIb4XLD9AQ==);strokeColor=none;spacingTop=-3;spacingBottom=-3;spacingLeft=-3;spacingRight=-3;points=[];labelBackgroundColor=none;rounded=0;html=1;whiteSpace=wrap;" vertex="1" parent="d890zcpU8hJ1R3_jmAcA-103">
          <mxGeometry x="19" y="9" width="6" height="27" as="geometry" />
        </mxCell>
        <mxCell id="d890zcpU8hJ1R3_jmAcA-109" style="vsdxID=451;fillColor=#2c5967;gradientColor=none;shape=stencil(pZJBDsIgEEVPM1sDjC66rvUeTUoLEaGhaPX2QidGbSIR3f0Pb2aY8AHrSbWjBMGm4N1RzroLCnAPQmirpNchKsAGsO6dl4N3Z9uRH9tEJnVyl9ThSnWcsVQj2I18tVvsgVijbY5ln9ktbir+B80z9PodJWzBepmuP4KPCV9uVQAXfdsbG8UzG702hqL1er/OUjyiHGJzBw==);strokeColor=none;spacingTop=-3;spacingBottom=-3;spacingLeft=-3;spacingRight=-3;points=[];labelBackgroundColor=none;rounded=0;html=1;whiteSpace=wrap;" vertex="1" parent="d890zcpU8hJ1R3_jmAcA-103">
          <mxGeometry x="9" y="9" width="6" height="27" as="geometry" />
        </mxCell>
        <mxCell id="d890zcpU8hJ1R3_jmAcA-110" style="vsdxID=452;fillColor=#2c5967;gradientColor=none;shape=stencil(pZVNDoMgEIVPw5YgSNS1tfcwESupVaP27/aFkqYW0kF0Nw7f4OMNOojlU1MOAlEyzWN/FndZzQ1iB0Sp7BoxyllFiBWI5XU/itPYX7vKPA+lJnV06W96h4epyyJMua6i5GkyFEf0nTgavpXdgk9xsgsn/1myDYQF/LJRjONsLZxyzKO1cJbgNF0tgwCncywLoz1C3H4HF4B6PoubYI8UG/c0yJECN9/G4Xtl08ApXQeDYFiHn7e+d+VZiIkOr17IAT3xPtyjxsY9LXV2xzF00x1rwnCPmN3OO7wKvr/1WratmQrLdXsMqJQZIax4AQ==);strokeColor=none;spacingTop=-3;spacingBottom=-3;spacingLeft=-3;spacingRight=-3;points=[];labelBackgroundColor=none;rounded=0;html=1;whiteSpace=wrap;" vertex="1" parent="d890zcpU8hJ1R3_jmAcA-103">
          <mxGeometry x="1" y="1" width="60" height="42" as="geometry" />
        </mxCell>
        <mxCell id="d890zcpU8hJ1R3_jmAcA-112" style="vsdxID=445;fillColor=none;gradientColor=none;strokeColor=none;spacingTop=-3;spacingBottom=-3;spacingLeft=-3;spacingRight=-3;points=[];labelBackgroundColor=none;rounded=0;html=1;whiteSpace=wrap;" vertex="1" parent="RRVFnwyOMEM094zqBqRR-112">
          <mxGeometry x="70" y="470.08000000000004" width="63" height="45" as="geometry" />
        </mxCell>
        <mxCell id="d890zcpU8hJ1R3_jmAcA-113" style="vsdxID=446;fillColor=#FFFFFF;gradientColor=none;shape=stencil(pZXbDsIgDIafhtsGqG5w7eE9lmw64tyWbZ7e3k1iVIgV5l2Br03zt6UMV32ZtQWTvB+65lBcTD6UDNdMSlOXRWeG0WK4YbjaNV2x75pTndtzm03kZB2b8xThav10ComcvCS/2Rv+OG0tXJn6DVYapA6GE9BiPixAq++8QPgLJ1IRHNJgRSSgCmX5PBABQ9ElSEKET1YkoIIDq1G/NBTWi6eAIXACwYEFj6kESftFpnGv3aJorYATivjNH+1A5uOPLYn7X8IPKSOq5MJ0+T2a7iwX/9G1XuL0RLg4PWwuTU6xC0cVZz48Gq+1sDNVZbfK+7u7RsYru4Jwcwc=);strokeColor=none;spacingTop=-3;spacingBottom=-3;spacingLeft=-3;spacingRight=-3;points=[];labelBackgroundColor=none;rounded=0;html=1;whiteSpace=wrap;" vertex="1" parent="d890zcpU8hJ1R3_jmAcA-112">
          <mxGeometry width="63" height="45" as="geometry" />
        </mxCell>
        <mxCell id="d890zcpU8hJ1R3_jmAcA-114" style="vsdxID=447;fillColor=#2c5967;gradientColor=none;shape=stencil(pZJBDsIgEEVPM1sDjC66rvUeTUoLEaGhaPX2QidGbSIR3f0Pb2aY8AHrSbWjBMGm4N1RzroLCnAPQmirpNchKsAGsO6dl4N3Z9uRH9tEJnVyl9ThSnWcsVQj2I18tVvsgVijbY5ln9ktbir+B80z9PodJWzBepmuP4KPCV9uVQAXfdsbG8UzG702hqL1er/OUjyiHGJzBw==);strokeColor=none;spacingTop=-3;spacingBottom=-3;spacingLeft=-3;spacingRight=-3;points=[];labelBackgroundColor=none;rounded=0;html=1;whiteSpace=wrap;" vertex="1" parent="d890zcpU8hJ1R3_jmAcA-112">
          <mxGeometry x="48" y="9" width="6" height="27" as="geometry" />
        </mxCell>
        <mxCell id="d890zcpU8hJ1R3_jmAcA-115" style="vsdxID=448;fillColor=#2c5967;gradientColor=none;shape=stencil(nZLRDsIgDEW/pq+mo/qw5zn/Y8mYEBEWhk7/XrAx6hKJ7O1eOG1puEDNpLpRgsApeHeSs+6DAtqDENoq6XWICqgFagbn5dG7i+3Zj10ikzq7a+pw47oKMdUIvLOvd097YNZom2PxN7ulTb0erjLw8hUlbMFyma4rwdeEP7cqgIs+7YuN4p2MQRvDwfq8XyYpHnEKqX0A);strokeColor=none;spacingTop=-3;spacingBottom=-3;spacingLeft=-3;spacingRight=-3;points=[];labelBackgroundColor=none;rounded=0;html=1;whiteSpace=wrap;" vertex="1" parent="d890zcpU8hJ1R3_jmAcA-112">
          <mxGeometry x="38" y="9" width="6" height="27" as="geometry" />
        </mxCell>
        <mxCell id="d890zcpU8hJ1R3_jmAcA-116" style="vsdxID=449;fillColor=#2c5967;gradientColor=none;shape=stencil(UzV2Ls5ILEhVNTIoLinKz04tz0wpyVA1dlE1MsrMy0gtyiwBslSNXVWNndPyi1LTi/JL81Ig/IJEkEoQKze/DGRCBUSfoYEBSI+RQSWEbwnhukHU5mTmIak1MdKzMKVAtSEe1ejuIEUtHqVkKoTZQKRTSVCML8TwqwUyEJGYlpmTA0kDyPLokQ4UgiQYY1cA);strokeColor=none;spacingTop=-3;spacingBottom=-3;spacingLeft=-3;spacingRight=-3;points=[];labelBackgroundColor=none;rounded=0;html=1;whiteSpace=wrap;" vertex="1" parent="d890zcpU8hJ1R3_jmAcA-112">
          <mxGeometry x="28" y="9" width="6" height="27" as="geometry" />
        </mxCell>
        <mxCell id="d890zcpU8hJ1R3_jmAcA-117" style="vsdxID=450;fillColor=#2c5967;gradientColor=none;shape=stencil(nZLLDoQgDEW/pluDdDauffyHiTg0g2CQef39QBqjcUFGd/eW00doAetF97MCKZbg3UO9aQgasAEpyWrlKUQF2ALWo/Pq7t3TDuznPpFJTe6VKnw4rxQi5UjxZV+x7Zg1ZHfsDYvqOlxm4OMUZ9gMehFcO/w56gk492F5NopthSMZwxewfz+uPIb4XLD9AQ==);strokeColor=none;spacingTop=-3;spacingBottom=-3;spacingLeft=-3;spacingRight=-3;points=[];labelBackgroundColor=none;rounded=0;html=1;whiteSpace=wrap;" vertex="1" parent="d890zcpU8hJ1R3_jmAcA-112">
          <mxGeometry x="19" y="9" width="6" height="27" as="geometry" />
        </mxCell>
        <mxCell id="d890zcpU8hJ1R3_jmAcA-118" style="vsdxID=451;fillColor=#2c5967;gradientColor=none;shape=stencil(pZJBDsIgEEVPM1sDjC66rvUeTUoLEaGhaPX2QidGbSIR3f0Pb2aY8AHrSbWjBMGm4N1RzroLCnAPQmirpNchKsAGsO6dl4N3Z9uRH9tEJnVyl9ThSnWcsVQj2I18tVvsgVijbY5ln9ktbir+B80z9PodJWzBepmuP4KPCV9uVQAXfdsbG8UzG702hqL1er/OUjyiHGJzBw==);strokeColor=none;spacingTop=-3;spacingBottom=-3;spacingLeft=-3;spacingRight=-3;points=[];labelBackgroundColor=none;rounded=0;html=1;whiteSpace=wrap;" vertex="1" parent="d890zcpU8hJ1R3_jmAcA-112">
          <mxGeometry x="9" y="9" width="6" height="27" as="geometry" />
        </mxCell>
        <mxCell id="d890zcpU8hJ1R3_jmAcA-119" style="vsdxID=452;fillColor=#2c5967;gradientColor=none;shape=stencil(pZVNDoMgEIVPw5YgSNS1tfcwESupVaP27/aFkqYW0kF0Nw7f4OMNOojlU1MOAlEyzWN/FndZzQ1iB0Sp7BoxyllFiBWI5XU/itPYX7vKPA+lJnV06W96h4epyyJMua6i5GkyFEf0nTgavpXdgk9xsgsn/1myDYQF/LJRjONsLZxyzKO1cJbgNF0tgwCncywLoz1C3H4HF4B6PoubYI8UG/c0yJECN9/G4Xtl08ApXQeDYFiHn7e+d+VZiIkOr17IAT3xPtyjxsY9LXV2xzF00x1rwnCPmN3OO7wKvr/1WratmQrLdXsMqJQZIax4AQ==);strokeColor=none;spacingTop=-3;spacingBottom=-3;spacingLeft=-3;spacingRight=-3;points=[];labelBackgroundColor=none;rounded=0;html=1;whiteSpace=wrap;" vertex="1" parent="d890zcpU8hJ1R3_jmAcA-112">
          <mxGeometry x="1" y="1" width="60" height="42" as="geometry" />
        </mxCell>
        <mxCell id="d890zcpU8hJ1R3_jmAcA-120" style="vsdxID=453;fillColor=none;gradientColor=none;strokeColor=none;spacingTop=-3;spacingBottom=-3;spacingLeft=-3;spacingRight=-3;points=[];labelBackgroundColor=none;rounded=0;html=1;whiteSpace=wrap;" vertex="1" parent="RRVFnwyOMEM094zqBqRR-112">
          <mxGeometry x="56" y="519.08" width="254" height="37" as="geometry" />
        </mxCell>
        <mxCell id="d890zcpU8hJ1R3_jmAcA-121" value="&lt;div style=&quot;font-size: 1px&quot;&gt;&lt;p style=&quot;align:left;margin-left:0;margin-right:0;margin-top:0px;margin-bottom:0px;text-indent:0;valign:middle;direction:ltr;&quot;&gt;&lt;font style=&quot;font-size:16.93px;font-family:Oracle Sans;color:#000000;direction:ltr;letter-spacing:0px;line-height:120%;opacity:1&quot;&gt;doc-qna-hf&lt;br&gt;&lt;/font&gt;&lt;/p&gt;&lt;/div&gt;" style="verticalAlign=middle;align=left;vsdxID=454;fillColor=none;gradientColor=none;shape=stencil(nZBLDoAgDERP0z3SIyjew0SURgSD+Lu9kMZoXLhwN9O+tukAlrNpJg1SzDH4QW/URgNYgZTkjA4UkwJUgGXng+6DX1zLfmoymdXo17xh5zmRJ6Q42BWCfc2oJfdAr+Yv+AP9Cb7OJ3H/2JG1HNGz/84klThPVCc=);strokeColor=none;spacingTop=-3;spacingBottom=-3;spacingLeft=-3;spacingRight=-3;points=[];labelBackgroundColor=none;rounded=0;html=1;whiteSpace=wrap;" vertex="1" parent="d890zcpU8hJ1R3_jmAcA-120">
          <mxGeometry width="160" height="20" as="geometry" />
        </mxCell>
        <mxCell id="d890zcpU8hJ1R3_jmAcA-122" value="&lt;div style=&quot;font-size: 1px&quot;&gt;&lt;p style=&quot;align:left;margin-left:0;margin-right:0;margin-top:0px;margin-bottom:0px;text-indent:0;valign:middle;direction:ltr;&quot;&gt;&lt;font style=&quot;font-size:16.93px;font-family:Oracle Sans;color:#000000;direction:ltr;letter-spacing:0px;line-height:120%;opacity:1&quot;&gt;(pod)&lt;br/&gt;&lt;/font&gt;&lt;/p&gt;&lt;/div&gt;" style="verticalAlign=middle;align=left;vsdxID=455;fillColor=none;gradientColor=none;shape=stencil(nZBLDoAgDERP0z3SIyjew0SURgSD+Lu9kMZoXLhwN9O+tukAlrNpJg1SzDH4QW/URgNYgZTkjA4UkwJUgGXng+6DX1zLfmoymdXo17xh5zmRJ6Q42BWCfc2oJfdAr+Yv+AP9Cb7OJ3H/2JG1HNGz/84klThPVCc=);strokeColor=none;spacingTop=-3;spacingBottom=-3;spacingLeft=-3;spacingRight=-3;points=[];labelBackgroundColor=none;rounded=0;html=1;whiteSpace=wrap;" vertex="1" parent="d890zcpU8hJ1R3_jmAcA-120">
          <mxGeometry x="38" y="16" width="84" height="20" as="geometry" />
        </mxCell>
        <mxCell id="d890zcpU8hJ1R3_jmAcA-123" style="vsdxID=453;fillColor=none;gradientColor=none;strokeColor=none;spacingTop=-3;spacingBottom=-3;spacingLeft=-3;spacingRight=-3;points=[];labelBackgroundColor=none;rounded=0;html=1;whiteSpace=wrap;" vertex="1" parent="RRVFnwyOMEM094zqBqRR-112">
          <mxGeometry x="213" y="519.08" width="290" height="37" as="geometry" />
        </mxCell>
        <mxCell id="d890zcpU8hJ1R3_jmAcA-124" value="&lt;div style=&quot;font-size: 1px&quot;&gt;&lt;p style=&quot;align:left;margin-left:0;margin-right:0;margin-top:0px;margin-bottom:0px;text-indent:0;valign:middle;direction:ltr;&quot;&gt;&lt;font style=&quot;font-size:16.93px;font-family:Oracle Sans;color:#000000;direction:ltr;letter-spacing:0px;line-height:120%;opacity:1&quot;&gt;doc-qna-cohere&lt;br&gt;&lt;/font&gt;&lt;/p&gt;&lt;/div&gt;" style="verticalAlign=middle;align=left;vsdxID=454;fillColor=none;gradientColor=none;shape=stencil(nZBLDoAgDERP0z3SIyjew0SURgSD+Lu9kMZoXLhwN9O+tukAlrNpJg1SzDH4QW/URgNYgZTkjA4UkwJUgGXng+6DX1zLfmoymdXo17xh5zmRJ6Q42BWCfc2oJfdAr+Yv+AP9Cb7OJ3H/2JG1HNGz/84klThPVCc=);strokeColor=none;spacingTop=-3;spacingBottom=-3;spacingLeft=-3;spacingRight=-3;points=[];labelBackgroundColor=none;rounded=0;html=1;whiteSpace=wrap;" vertex="1" parent="d890zcpU8hJ1R3_jmAcA-123">
          <mxGeometry width="137.00787401574803" height="20" as="geometry" />
        </mxCell>
        <mxCell id="d890zcpU8hJ1R3_jmAcA-125" value="&lt;div style=&quot;font-size: 1px&quot;&gt;&lt;p style=&quot;align:left;margin-left:0;margin-right:0;margin-top:0px;margin-bottom:0px;text-indent:0;valign:middle;direction:ltr;&quot;&gt;&lt;font style=&quot;font-size:16.93px;font-family:Oracle Sans;color:#000000;direction:ltr;letter-spacing:0px;line-height:120%;opacity:1&quot;&gt;(pod)&lt;br/&gt;&lt;/font&gt;&lt;/p&gt;&lt;/div&gt;" style="verticalAlign=middle;align=left;vsdxID=455;fillColor=none;gradientColor=none;shape=stencil(nZBLDoAgDERP0z3SIyjew0SURgSD+Lu9kMZoXLhwN9O+tukAlrNpJg1SzDH4QW/URgNYgZTkjA4UkwJUgGXng+6DX1zLfmoymdXo17xh5zmRJ6Q42BWCfc2oJfdAr+Yv+AP9Cb7OJ3H/2JG1HNGz/84klThPVCc=);strokeColor=none;spacingTop=-3;spacingBottom=-3;spacingLeft=-3;spacingRight=-3;points=[];labelBackgroundColor=none;rounded=0;html=1;whiteSpace=wrap;" vertex="1" parent="d890zcpU8hJ1R3_jmAcA-123">
          <mxGeometry x="43.38582677165354" y="16" width="95.90551181102362" height="20" as="geometry" />
        </mxCell>
        <mxCell id="d890zcpU8hJ1R3_jmAcA-126" style="vsdxID=445;fillColor=none;gradientColor=none;strokeColor=none;spacingTop=-3;spacingBottom=-3;spacingLeft=-3;spacingRight=-3;points=[];labelBackgroundColor=none;rounded=0;html=1;whiteSpace=wrap;" vertex="1" parent="RRVFnwyOMEM094zqBqRR-112">
          <mxGeometry x="247" y="470.08000000000004" width="63" height="45" as="geometry" />
        </mxCell>
        <mxCell id="d890zcpU8hJ1R3_jmAcA-127" style="vsdxID=446;fillColor=#FFFFFF;gradientColor=none;shape=stencil(pZXbDsIgDIafhtsGqG5w7eE9lmw64tyWbZ7e3k1iVIgV5l2Br03zt6UMV32ZtQWTvB+65lBcTD6UDNdMSlOXRWeG0WK4YbjaNV2x75pTndtzm03kZB2b8xThav10ComcvCS/2Rv+OG0tXJn6DVYapA6GE9BiPixAq++8QPgLJ1IRHNJgRSSgCmX5PBABQ9ElSEKET1YkoIIDq1G/NBTWi6eAIXACwYEFj6kESftFpnGv3aJorYATivjNH+1A5uOPLYn7X8IPKSOq5MJ0+T2a7iwX/9G1XuL0RLg4PWwuTU6xC0cVZz48Gq+1sDNVZbfK+7u7RsYru4Jwcwc=);strokeColor=none;spacingTop=-3;spacingBottom=-3;spacingLeft=-3;spacingRight=-3;points=[];labelBackgroundColor=none;rounded=0;html=1;whiteSpace=wrap;" vertex="1" parent="d890zcpU8hJ1R3_jmAcA-126">
          <mxGeometry width="63" height="45" as="geometry" />
        </mxCell>
        <mxCell id="d890zcpU8hJ1R3_jmAcA-128" style="vsdxID=447;fillColor=#2c5967;gradientColor=none;shape=stencil(pZJBDsIgEEVPM1sDjC66rvUeTUoLEaGhaPX2QidGbSIR3f0Pb2aY8AHrSbWjBMGm4N1RzroLCnAPQmirpNchKsAGsO6dl4N3Z9uRH9tEJnVyl9ThSnWcsVQj2I18tVvsgVijbY5ln9ktbir+B80z9PodJWzBepmuP4KPCV9uVQAXfdsbG8UzG702hqL1er/OUjyiHGJzBw==);strokeColor=none;spacingTop=-3;spacingBottom=-3;spacingLeft=-3;spacingRight=-3;points=[];labelBackgroundColor=none;rounded=0;html=1;whiteSpace=wrap;" vertex="1" parent="d890zcpU8hJ1R3_jmAcA-126">
          <mxGeometry x="48" y="9" width="6" height="27" as="geometry" />
        </mxCell>
        <mxCell id="d890zcpU8hJ1R3_jmAcA-129" style="vsdxID=448;fillColor=#2c5967;gradientColor=none;shape=stencil(nZLRDsIgDEW/pq+mo/qw5zn/Y8mYEBEWhk7/XrAx6hKJ7O1eOG1puEDNpLpRgsApeHeSs+6DAtqDENoq6XWICqgFagbn5dG7i+3Zj10ikzq7a+pw47oKMdUIvLOvd097YNZom2PxN7ulTb0erjLw8hUlbMFyma4rwdeEP7cqgIs+7YuN4p2MQRvDwfq8XyYpHnEKqX0A);strokeColor=none;spacingTop=-3;spacingBottom=-3;spacingLeft=-3;spacingRight=-3;points=[];labelBackgroundColor=none;rounded=0;html=1;whiteSpace=wrap;" vertex="1" parent="d890zcpU8hJ1R3_jmAcA-126">
          <mxGeometry x="38" y="9" width="6" height="27" as="geometry" />
        </mxCell>
        <mxCell id="d890zcpU8hJ1R3_jmAcA-130" style="vsdxID=449;fillColor=#2c5967;gradientColor=none;shape=stencil(UzV2Ls5ILEhVNTIoLinKz04tz0wpyVA1dlE1MsrMy0gtyiwBslSNXVWNndPyi1LTi/JL81Ig/IJEkEoQKze/DGRCBUSfoYEBSI+RQSWEbwnhukHU5mTmIak1MdKzMKVAtSEe1ejuIEUtHqVkKoTZQKRTSVCML8TwqwUyEJGYlpmTA0kDyPLokQ4UgiQYY1cA);strokeColor=none;spacingTop=-3;spacingBottom=-3;spacingLeft=-3;spacingRight=-3;points=[];labelBackgroundColor=none;rounded=0;html=1;whiteSpace=wrap;" vertex="1" parent="d890zcpU8hJ1R3_jmAcA-126">
          <mxGeometry x="28" y="9" width="6" height="27" as="geometry" />
        </mxCell>
        <mxCell id="d890zcpU8hJ1R3_jmAcA-131" style="vsdxID=450;fillColor=#2c5967;gradientColor=none;shape=stencil(nZLLDoQgDEW/pluDdDauffyHiTg0g2CQef39QBqjcUFGd/eW00doAetF97MCKZbg3UO9aQgasAEpyWrlKUQF2ALWo/Pq7t3TDuznPpFJTe6VKnw4rxQi5UjxZV+x7Zg1ZHfsDYvqOlxm4OMUZ9gMehFcO/w56gk492F5NopthSMZwxewfz+uPIb4XLD9AQ==);strokeColor=none;spacingTop=-3;spacingBottom=-3;spacingLeft=-3;spacingRight=-3;points=[];labelBackgroundColor=none;rounded=0;html=1;whiteSpace=wrap;" vertex="1" parent="d890zcpU8hJ1R3_jmAcA-126">
          <mxGeometry x="19" y="9" width="6" height="27" as="geometry" />
        </mxCell>
        <mxCell id="d890zcpU8hJ1R3_jmAcA-132" style="vsdxID=451;fillColor=#2c5967;gradientColor=none;shape=stencil(pZJBDsIgEEVPM1sDjC66rvUeTUoLEaGhaPX2QidGbSIR3f0Pb2aY8AHrSbWjBMGm4N1RzroLCnAPQmirpNchKsAGsO6dl4N3Z9uRH9tEJnVyl9ThSnWcsVQj2I18tVvsgVijbY5ln9ktbir+B80z9PodJWzBepmuP4KPCV9uVQAXfdsbG8UzG702hqL1er/OUjyiHGJzBw==);strokeColor=none;spacingTop=-3;spacingBottom=-3;spacingLeft=-3;spacingRight=-3;points=[];labelBackgroundColor=none;rounded=0;html=1;whiteSpace=wrap;" vertex="1" parent="d890zcpU8hJ1R3_jmAcA-126">
          <mxGeometry x="9" y="9" width="6" height="27" as="geometry" />
        </mxCell>
        <mxCell id="d890zcpU8hJ1R3_jmAcA-133" style="vsdxID=452;fillColor=#2c5967;gradientColor=none;shape=stencil(pZVNDoMgEIVPw5YgSNS1tfcwESupVaP27/aFkqYW0kF0Nw7f4OMNOojlU1MOAlEyzWN/FndZzQ1iB0Sp7BoxyllFiBWI5XU/itPYX7vKPA+lJnV06W96h4epyyJMua6i5GkyFEf0nTgavpXdgk9xsgsn/1myDYQF/LJRjONsLZxyzKO1cJbgNF0tgwCncywLoz1C3H4HF4B6PoubYI8UG/c0yJECN9/G4Xtl08ApXQeDYFiHn7e+d+VZiIkOr17IAT3xPtyjxsY9LXV2xzF00x1rwnCPmN3OO7wKvr/1WratmQrLdXsMqJQZIax4AQ==);strokeColor=none;spacingTop=-3;spacingBottom=-3;spacingLeft=-3;spacingRight=-3;points=[];labelBackgroundColor=none;rounded=0;html=1;whiteSpace=wrap;" vertex="1" parent="d890zcpU8hJ1R3_jmAcA-126">
          <mxGeometry x="1" y="1" width="60" height="42" as="geometry" />
        </mxCell>
        <UserObject label="" tags="Background" id="RRVFnwyOMEM094zqBqRR-455">
          <mxCell style="vsdxID=456;fillColor=none;gradientColor=none;strokeColor=none;spacingTop=-3;spacingBottom=-3;spacingLeft=-3;spacingRight=-3;points=[];labelBackgroundColor=none;rounded=0;html=1;whiteSpace=wrap;" parent="RRVFnwyOMEM094zqBqRR-112" vertex="1">
            <mxGeometry x="383" y="470.08000000000004" width="152" height="86" as="geometry" />
          </mxCell>
        </UserObject>
        <mxCell id="RRVFnwyOMEM094zqBqRR-456" style="vsdxID=457;fillColor=none;gradientColor=none;strokeColor=none;spacingTop=-3;spacingBottom=-3;spacingLeft=-3;spacingRight=-3;points=[];labelBackgroundColor=none;rounded=0;html=1;whiteSpace=wrap;" parent="RRVFnwyOMEM094zqBqRR-455" vertex="1">
          <mxGeometry x="3" width="63" height="45" as="geometry" />
        </mxCell>
        <mxCell id="RRVFnwyOMEM094zqBqRR-457" style="vsdxID=458;fillColor=#FFFFFF;gradientColor=none;shape=stencil(pZXbDsIgDIafhtsGqG5w7eE9lmw64tyWbZ7e3k1iVIgV5l2Br03zt6UMV32ZtQWTvB+65lBcTD6UDNdMSlOXRWeG0WK4YbjaNV2x75pTndtzm03kZB2b8xThav10ComcvCS/2Rv+OG0tXJn6DVYapA6GE9BiPixAq++8QPgLJ1IRHNJgRSSgCmX5PBABQ9ElSEKET1YkoIIDq1G/NBTWi6eAIXACwYEFj6kESftFpnGv3aJorYATivjNH+1A5uOPLYn7X8IPKSOq5MJ0+T2a7iwX/9G1XuL0RLg4PWwuTU6xC0cVZz48Gq+1sDNVZbfK+7u7RsYru4Jwcwc=);strokeColor=none;spacingTop=-3;spacingBottom=-3;spacingLeft=-3;spacingRight=-3;points=[];labelBackgroundColor=none;rounded=0;html=1;whiteSpace=wrap;" parent="RRVFnwyOMEM094zqBqRR-456" vertex="1">
          <mxGeometry width="63" height="45" as="geometry" />
        </mxCell>
        <mxCell id="RRVFnwyOMEM094zqBqRR-458" style="vsdxID=459;fillColor=#2c5967;gradientColor=none;shape=stencil(pZJBDsIgEEVPM1sDjC66rvUeTUoLEaGhaPX2QidGbSIR3f0Pb2aY8AHrSbWjBMGm4N1RzroLCnAPQmirpNchKsAGsO6dl4N3Z9uRH9tEJnVyl9ThSnWcsVQj2I18tVvsgVijbY5ln9ktbir+B80z9PodJWzBepmuP4KPCV9uVQAXfdsbG8UzG702hqL1er/OUjyiHGJzBw==);strokeColor=none;spacingTop=-3;spacingBottom=-3;spacingLeft=-3;spacingRight=-3;points=[];labelBackgroundColor=none;rounded=0;html=1;whiteSpace=wrap;" parent="RRVFnwyOMEM094zqBqRR-456" vertex="1">
          <mxGeometry x="48" y="9" width="6" height="27" as="geometry" />
        </mxCell>
        <mxCell id="RRVFnwyOMEM094zqBqRR-459" style="vsdxID=460;fillColor=#2c5967;gradientColor=none;shape=stencil(nZLRDsIgDEW/pq+mo/qw5zn/Y8mYEBEWhk7/XrAx6hKJ7O1eOG1puEDNpLpRgsApeHeSs+6DAtqDENoq6XWICqgFagbn5dG7i+3Zj10ikzq7a+pw47oKMdUIvLOvd097YNZom2PxN7ulTb0erjLw8hUlbMFyma4rwdeEP7cqgIs+7YuN4p2MQRvDwfq8XyYpHnEKqX0A);strokeColor=none;spacingTop=-3;spacingBottom=-3;spacingLeft=-3;spacingRight=-3;points=[];labelBackgroundColor=none;rounded=0;html=1;whiteSpace=wrap;" parent="RRVFnwyOMEM094zqBqRR-456" vertex="1">
          <mxGeometry x="38" y="9" width="6" height="27" as="geometry" />
        </mxCell>
        <mxCell id="RRVFnwyOMEM094zqBqRR-460" style="vsdxID=461;fillColor=#2c5967;gradientColor=none;shape=stencil(UzV2Ls5ILEhVNTIoLinKz04tz0wpyVA1dlE1MsrMy0gtyiwBslSNXVWNndPyi1LTi/JL81Ig/IJEkEoQKze/DGRCBUSfoYEBSI+RQSWEbwnhukHU5mTmIak1MdKzMKVAtSEe1ejuIEUtHqVkKoTZQKRTSVCML8TwqwUyEJGYlpmTA0kDyPLokQ4UgiQYY1cA);strokeColor=none;spacingTop=-3;spacingBottom=-3;spacingLeft=-3;spacingRight=-3;points=[];labelBackgroundColor=none;rounded=0;html=1;whiteSpace=wrap;" parent="RRVFnwyOMEM094zqBqRR-456" vertex="1">
          <mxGeometry x="28" y="9" width="6" height="27" as="geometry" />
        </mxCell>
        <mxCell id="RRVFnwyOMEM094zqBqRR-461" style="vsdxID=462;fillColor=#2c5967;gradientColor=none;shape=stencil(nZLLDoQgDEW/pluDdDauffyHiTg0g2CQef39QBqjcUFGd/eW00doAetF97MCKZbg3UO9aQgasAEpyWrlKUQF2ALWo/Pq7t3TDuznPpFJTe6VKnw4rxQi5UjxZV+x7Zg1ZHfsDYvqOlxm4OMUZ9gMehFcO/w56gk492F5NopthSMZwxewfz+uPIb4XLD9AQ==);strokeColor=none;spacingTop=-3;spacingBottom=-3;spacingLeft=-3;spacingRight=-3;points=[];labelBackgroundColor=none;rounded=0;html=1;whiteSpace=wrap;" parent="RRVFnwyOMEM094zqBqRR-456" vertex="1">
          <mxGeometry x="19" y="9" width="6" height="27" as="geometry" />
        </mxCell>
        <mxCell id="RRVFnwyOMEM094zqBqRR-462" style="vsdxID=463;fillColor=#2c5967;gradientColor=none;shape=stencil(pZJBDsIgEEVPM1sDjC66rvUeTUoLEaGhaPX2QidGbSIR3f0Pb2aY8AHrSbWjBMGm4N1RzroLCnAPQmirpNchKsAGsO6dl4N3Z9uRH9tEJnVyl9ThSnWcsVQj2I18tVvsgVijbY5ln9ktbir+B80z9PodJWzBepmuP4KPCV9uVQAXfdsbG8UzG702hqL1er/OUjyiHGJzBw==);strokeColor=none;spacingTop=-3;spacingBottom=-3;spacingLeft=-3;spacingRight=-3;points=[];labelBackgroundColor=none;rounded=0;html=1;whiteSpace=wrap;" parent="RRVFnwyOMEM094zqBqRR-456" vertex="1">
          <mxGeometry x="9" y="9" width="6" height="27" as="geometry" />
        </mxCell>
        <mxCell id="RRVFnwyOMEM094zqBqRR-463" style="vsdxID=464;fillColor=#2c5967;gradientColor=none;shape=stencil(pZVNDoMgEIVPw5YgSNS1tfcwESupVaP27/aFkqYW0kF0Nw7f4OMNOojlU1MOAlEyzWN/FndZzQ1iB0Sp7BoxyllFiBWI5XU/itPYX7vKPA+lJnV06W96h4epyyJMua6i5GkyFEf0nTgavpXdgk9xsgsn/1myDYQF/LJRjONsLZxyzKO1cJbgNF0tgwCncywLoz1C3H4HF4B6PoubYI8UG/c0yJECN9/G4Xtl08ApXQeDYFiHn7e+d+VZiIkOr17IAT3xPtyjxsY9LXV2xzF00x1rwnCPmN3OO7wKvr/1WratmQrLdXsMqJQZIax4AQ==);strokeColor=none;spacingTop=-3;spacingBottom=-3;spacingLeft=-3;spacingRight=-3;points=[];labelBackgroundColor=none;rounded=0;html=1;whiteSpace=wrap;" parent="RRVFnwyOMEM094zqBqRR-456" vertex="1">
          <mxGeometry x="1" y="1" width="60" height="42" as="geometry" />
        </mxCell>
        <mxCell id="RRVFnwyOMEM094zqBqRR-464" style="vsdxID=465;fillColor=none;gradientColor=none;strokeColor=none;spacingTop=-3;spacingBottom=-3;spacingLeft=-3;spacingRight=-3;points=[];labelBackgroundColor=none;rounded=0;html=1;whiteSpace=wrap;" parent="RRVFnwyOMEM094zqBqRR-455" vertex="1">
          <mxGeometry y="49" width="152" height="37" as="geometry" />
        </mxCell>
        <mxCell id="RRVFnwyOMEM094zqBqRR-465" value="&lt;div style=&quot;font-size: 1px&quot;&gt;&lt;p style=&quot;align:left;margin-left:0;margin-right:0;margin-top:0px;margin-bottom:0px;text-indent:0;valign:middle;direction:ltr;&quot;&gt;&lt;font style=&quot;font-size:16.93px;font-family:Oracle Sans;color:#000000;direction:ltr;letter-spacing:0px;line-height:120%;opacity:1&quot;&gt;OpenSearch&lt;br&gt;&lt;/font&gt;&lt;/p&gt;&lt;/div&gt;" style="verticalAlign=middle;align=left;vsdxID=466;fillColor=none;gradientColor=none;shape=stencil(nZBLDoAgDERP0z3SIyjew0SURgSD+Lu9kMZoXLhwN9O+tukAlrNpJg1SzDH4QW/URgNYgZTkjA4UkwJUgGXng+6DX1zLfmoymdXo17xh5zmRJ6Q42BWCfc2oJfdAr+Yv+AP9Cb7OJ3H/2JG1HNGz/84klThPVCc=);strokeColor=none;spacingTop=-3;spacingBottom=-3;spacingLeft=-3;spacingRight=-3;points=[];labelBackgroundColor=none;rounded=0;html=1;whiteSpace=wrap;" parent="RRVFnwyOMEM094zqBqRR-464" vertex="1">
          <mxGeometry width="152" height="20" as="geometry" />
        </mxCell>
        <mxCell id="RRVFnwyOMEM094zqBqRR-466" value="&lt;div style=&quot;font-size: 1px&quot;&gt;&lt;p style=&quot;align:left;margin-left:0;margin-right:0;margin-top:0px;margin-bottom:0px;text-indent:0;valign:middle;direction:ltr;&quot;&gt;&lt;font style=&quot;font-size:16.93px;font-family:Oracle Sans;color:#000000;direction:ltr;letter-spacing:0px;line-height:120%;opacity:1&quot;&gt;(pod)&lt;br/&gt;&lt;/font&gt;&lt;/p&gt;&lt;/div&gt;" style="verticalAlign=middle;align=left;vsdxID=467;fillColor=none;gradientColor=none;shape=stencil(nZBLDoAgDERP0z3SIyjew0SURgSD+Lu9kMZoXLhwN9O+tukAlrNpJg1SzDH4QW/URgNYgZTkjA4UkwJUgGXng+6DX1zLfmoymdXo17xh5zmRJ6Q42BWCfc2oJfdAr+Yv+AP9Cb7OJ3H/2JG1HNGz/84klThPVCc=);strokeColor=none;spacingTop=-3;spacingBottom=-3;spacingLeft=-3;spacingRight=-3;points=[];labelBackgroundColor=none;rounded=0;html=1;whiteSpace=wrap;" parent="RRVFnwyOMEM094zqBqRR-464" vertex="1">
          <mxGeometry x="14" y="16" width="84" height="20" as="geometry" />
        </mxCell>
        <mxCell id="RRVFnwyOMEM094zqBqRR-390" style="vsdxID=391;fillColor=none;gradientColor=none;strokeColor=none;spacingTop=-3;spacingBottom=-3;spacingLeft=-3;spacingRight=-3;points=[];labelBackgroundColor=none;rounded=0;html=1;whiteSpace=wrap;" parent="RRVFnwyOMEM094zqBqRR-112" vertex="1">
          <mxGeometry x="467" y="64.90000000000006" width="42" height="42" as="geometry" />
        </mxCell>
        <mxCell id="RRVFnwyOMEM094zqBqRR-391" style="vsdxID=392;fillColor=none;gradientColor=none;strokeColor=none;spacingTop=-3;spacingBottom=-3;spacingLeft=-3;spacingRight=-3;points=[];labelBackgroundColor=none;rounded=0;html=1;whiteSpace=wrap;" parent="RRVFnwyOMEM094zqBqRR-390" vertex="1">
          <mxGeometry width="42" height="42" as="geometry" />
        </mxCell>
        <mxCell id="RRVFnwyOMEM094zqBqRR-392" style="vsdxID=393;fillColor=#FFFFFF;gradientColor=none;shape=stencil(lZPRDoIwDEW/Zq9LWUHCs+J/EAVZRCATFP/eYYdsAzW+td2922mzMtxey6zNmYBrp5pzfpfHrmS4Y0LIusyV7HTEMGW4LRqVn1TT10fK22xUjtGluY03DOSLOEajScCDCknC482rsif9oVdkCEggeIjGEfgWGASVwChMmsQchVGgqzBpEvIwsJ+tZG1hgsP4hv6ACC7fTDzhWT24wBOdNRaHdxVOs2/cIcI3Oj2MKHYJwcULwJuf1QH6Ep94FXGW+8gfIGfDknoQy0Z88gGXs/HQV0F//8d/9TqYP38hq4p2xz73l0WXaNEwfQI=);strokeColor=none;spacingTop=-3;spacingBottom=-3;spacingLeft=-3;spacingRight=-3;points=[];labelBackgroundColor=none;rounded=0;html=1;whiteSpace=wrap;" parent="RRVFnwyOMEM094zqBqRR-391" vertex="1">
          <mxGeometry width="41" height="41" as="geometry" />
        </mxCell>
        <mxCell id="RRVFnwyOMEM094zqBqRR-393" style="vsdxID=394;fillColor=#FFFFFF;gradientColor=none;shape=stencil(lZXRdoIwDIafprc9aUMpvXb6Hp6JgzMGHsTNvf1gLbQNCHpX4h/88iehDHfX4njJmYRr1zaf+U956gqGb0zKsi7ytuz6E8M9w925afOPtrnVJ/t8OQ7K4fTVfA9vuNs8gxzVkCXh10Ykx+w/cLD691trE4TLUDwxLkOQFLhLJ9IcR5ELJVyOIpyLXCjlCYZ/XpV1CBskTPiZWKUNUnwBRhHcoCZfQZYS3sArpKpF4L4cEfNSPeXtXdIEV/NUxri935rQKq5FTBuIPL/Sj2GDhOVmUNYgQcx6LGf1yNmw4MwlXJ5BMgabM/uqfmsn4IUWw7plmYotg9gvoGbRIYTYqfWFgYhsc1mA0ckTCZ28id9FBADb6OYoedQcFe80kS9stCAeegYKFWzzVApSzXPr4fXPbYcxXKf0Ozl1c+RKuRExKrFz4aOz7uba6PYHfxGcy6qy90j4O704+pC9dHD/Bw==);strokeColor=none;spacingTop=-3;spacingBottom=-3;spacingLeft=-3;spacingRight=-3;points=[];labelBackgroundColor=none;rounded=0;html=1;whiteSpace=wrap;" parent="RRVFnwyOMEM094zqBqRR-391" vertex="1">
          <mxGeometry width="42" height="42" as="geometry" />
        </mxCell>
        <mxCell id="RRVFnwyOMEM094zqBqRR-394" style="vsdxID=395;fillColor=none;gradientColor=none;strokeColor=none;spacingTop=-3;spacingBottom=-3;spacingLeft=-3;spacingRight=-3;points=[];labelBackgroundColor=none;rounded=0;html=1;whiteSpace=wrap;" parent="RRVFnwyOMEM094zqBqRR-390" vertex="1">
          <mxGeometry x="1" y="1" width="40" height="40" as="geometry" />
        </mxCell>
        <mxCell id="RRVFnwyOMEM094zqBqRR-395" style="vsdxID=396;fillColor=#2d5967;gradientColor=none;shape=stencil(lZXLcoMwDEW/xlvGSDzqdZr+R6YhhSmFDCEt+ftCDViSE+Lu/LgyR9I1Vri7lIdzoUBf+q79LH6qY18qfFUAVVMWXdWPI4V7hbtT2xUfXXttjnZ+PkzKafTVfk8nDDbOpFEaT1Ggb3ZF/83erLiuGiJOIkgea9+vnT05tpswS2Oq1QOw6Q2YeEC+i+uH08dYmjGZbAtKcyjzwqmAU8Vacy5SAeSSu2RjdfOM0Qm5xFt4Fj4HIIkWxDUDlAJ0DBvFc/r7pfYIzXLcCgkc0eQuad7sAX3T4VPXPbGo8HMWaS728vcyIiEx85BLKfVSGqPmQm2l5VRhF8rTS1iMjJGsDgQWUZ5IWo5KFGE2IQFhPiEB80oiIddMHLaoqH/dcJPSv29SH9B8gkF6LdqfcFCqCPpnBfj03wHjwP3mT1Vd21eC7stnYVyyTwrufwE=);strokeColor=none;spacingTop=-3;spacingBottom=-3;spacingLeft=-3;spacingRight=-3;points=[];labelBackgroundColor=none;rounded=0;html=1;whiteSpace=wrap;" parent="RRVFnwyOMEM094zqBqRR-394" vertex="1">
          <mxGeometry width="40" height="40" as="geometry" />
        </mxCell>
        <mxCell id="RRVFnwyOMEM094zqBqRR-396" style="vsdxID=397;fillColor=#2d5967;gradientColor=none;shape=stencil(pZLdDsIgDIWfhlvC6FTu53yPJWNCRFgY/r29kMbsx0XdvDst32kbcggUnapaSTjrgncnedN1UAT2hHNtlfQ6REWgJFA0zsujdxdbY91WiUzq7K5pwh19GWPJw9kDa6wOiBptB+hK8LVhFp2uXwSvRcc/IIBm+QgWOeW7D7O3VGz+M/SdWcP7SYsNX076wRBFH5pGG4OZG75PQxZbGFAonw==);strokeColor=none;spacingTop=-3;spacingBottom=-3;spacingLeft=-3;spacingRight=-3;points=[];labelBackgroundColor=none;rounded=0;html=1;whiteSpace=wrap;" parent="RRVFnwyOMEM094zqBqRR-394" vertex="1">
          <mxGeometry x="10" y="4" width="8" height="8" as="geometry" />
        </mxCell>
        <mxCell id="RRVFnwyOMEM094zqBqRR-397" style="vsdxID=398;fillColor=#2d5967;gradientColor=none;shape=stencil(pZLdDoIwDIWfZrfLtqLOa8T3IDJkERkZoPj2slQDDAL+3LXrd9qzpgTCKotLRQSramsu6q6TOiNwIELoIlNW111EICIQpsaqszVNkWBexo500dXcXIcWdZwxpxHsgTlmR0RzXQzQH8H3hFnUH+/Bp8aiWY7lvaRSvgTc69CKKSNGhlrwh8LqXxb3M16lBMqDESwDKnYLvbdUbv4T9C+zgqmlrwUrlj4QdEF/fanOczzeYd2/1u4JLx2iJw==);strokeColor=none;spacingTop=-3;spacingBottom=-3;spacingLeft=-3;spacingRight=-3;points=[];labelBackgroundColor=none;rounded=0;html=1;whiteSpace=wrap;" parent="RRVFnwyOMEM094zqBqRR-394" vertex="1">
          <mxGeometry x="20" y="4" width="8" height="8" as="geometry" />
        </mxCell>
        <mxCell id="RRVFnwyOMEM094zqBqRR-398" style="vsdxID=399;fillColor=#2d5967;gradientColor=none;shape=stencil(pZLLDsIgEEW/ZrYEGIl0Xet/NCkVIkJD6+vvBYmxamx97GYu5zJhuIBlr+tOAaf9EPxWHU0zaMAVcG6cVsEMsQKsAMvWB7UJfu+a3Hd1IlO184d0wyn7mCAFSy5Oz1lBQZZXYZ15a9yIlwtC5V98wYkU7w2M0gf81n8ET6A/gtPjX5Y397gvtz3Px+L+ta2xNidjfP4chSjlGGF1AQ==);strokeColor=none;spacingTop=-3;spacingBottom=-3;spacingLeft=-3;spacingRight=-3;points=[];labelBackgroundColor=none;rounded=0;html=1;whiteSpace=wrap;" parent="RRVFnwyOMEM094zqBqRR-394" vertex="1">
          <mxGeometry x="15" y="14" width="8" height="4" as="geometry" />
        </mxCell>
        <mxCell id="RRVFnwyOMEM094zqBqRR-399" style="vsdxID=400;fillColor=#2d5967;gradientColor=none;shape=stencil(pZJNDsIgEIVPw5bAjFi6rvUeTUotEUtDW39uL0iMVSOpupt5vI8MwyNYDG3VKwJsGJ3dq5Oux5bghgDorlVOj74iWBIsGuvUztmpq2PfV8EZqoM9hhvOkeOC5jxQwC5RAaAob8o2AkZ3M0CuKJP/AbmgAj4DnLEn+71fZE5YfzSuM8pFYoC3BWZIeep53258AeCLxwc32piYj/n5ayC8FMOE5RU=);strokeColor=none;spacingTop=-3;spacingBottom=-3;spacingLeft=-3;spacingRight=-3;points=[];labelBackgroundColor=none;rounded=0;html=1;whiteSpace=wrap;" parent="RRVFnwyOMEM094zqBqRR-394" vertex="1">
          <mxGeometry x="25" y="14" width="8" height="6" as="geometry" />
        </mxCell>
        <mxCell id="RRVFnwyOMEM094zqBqRR-400" style="vsdxID=401;fillColor=#2d5967;gradientColor=none;shape=stencil(pZLdDsIgDIWfhltSWnHb9ZzvsWTMEScsDP/e3iExzp+ZqXflcD6alsMo75uyUwyh985u1VFXvmG0YojaNMppP1SMCkZ5bZ3aOLs3VTx3ZXCGamcP4YVT5ITkGQYK4RwVRE7pVVlHoNVmBKQLDtl/QEJc4DQgAB7sy4QLOd8O09YfjbcO79u/LDCTXH4a79uNzwCG4v7BtW7bmI/x/XMgBimGiYoL);strokeColor=none;spacingTop=-3;spacingBottom=-3;spacingLeft=-3;spacingRight=-3;points=[];labelBackgroundColor=none;rounded=0;html=1;whiteSpace=wrap;" parent="RRVFnwyOMEM094zqBqRR-394" vertex="1">
          <mxGeometry x="5" y="14" width="8" height="6" as="geometry" />
        </mxCell>
        <mxCell id="RRVFnwyOMEM094zqBqRR-401" style="vsdxID=402;fillColor=#2d5967;gradientColor=none;shape=stencil(nVTLcoMwDPwaXzW25fhxTpP/yDSkMKWQIaSlf18Ym2LZA016s8WuVlphMdzfytO1YJLf+q59L76qc18yfGFSVk1ZdFU/nhgeGO4vbVe8de29Ofv79TQhp9NH+zllGDxvxyeK5N/+6m9Hj6yrJkJSoESQYgMMGineANoY/3rvfB3CAzTgzAgRw0EqHxpkyKJhZwMqhAQPhQ2YdIQUsKJrEJSkwkvKoOEQnKOycXFByDlAQ7WzrqlLv0KPmfr4rLaQdP7KgHEELDgIuZ46JzgB3GxZLC0ITS22DqylJgsBmJis1YKapwupxQ6Mfqbcp/vLCMkLkvPQVg1JhpMR/ijJKUgeU9pz6ri1oAV1PPZy/ocFWEUdj+eCebn4zwYzwnhYNtKlqmu/0OLv6QYbQ3774eEH);strokeColor=none;spacingTop=-3;spacingBottom=-3;spacingLeft=-3;spacingRight=-3;points=[];labelBackgroundColor=none;rounded=0;html=1;whiteSpace=wrap;" parent="RRVFnwyOMEM094zqBqRR-394" vertex="1">
          <mxGeometry x="4" y="18" width="31" height="16" as="geometry" />
        </mxCell>
        <mxCell id="d890zcpU8hJ1R3_jmAcA-137" style="edgeStyle=orthogonalEdgeStyle;rounded=0;orthogonalLoop=1;jettySize=auto;html=1;" edge="1" parent="RRVFnwyOMEM094zqBqRR-112" source="RRVFnwyOMEM094zqBqRR-422">
          <mxGeometry relative="1" as="geometry">
            <mxPoint x="582" y="329.29913690476207" as="targetPoint" />
          </mxGeometry>
        </mxCell>
      </root>
    </mxGraphModel>
  </diagram>
  <diagram id="ghCGKDanrG8kKlFKPM6z" name="Page-2">
    <mxGraphModel dx="1026" dy="635" grid="1" gridSize="10" guides="1" tooltips="1" connect="1" arrows="1" fold="1" page="1" pageScale="1" pageWidth="1100" pageHeight="850" math="0" shadow="0">
      <root>
        <mxCell id="0" />
        <mxCell id="1" parent="0" />
      </root>
    </mxGraphModel>
  </diagram>
</mxfile>
